<svg width="600" height="600" viewBox="0 0 600 600" fill="none" xmlns="http://www.w3.org/2000/svg">
<rect width="350" height="122" transform="translate(52 45)" fill="#CA1B1B"/>
<path d="M93.9092 93.8555C92.9863 94.9606 91.6818 95.8208 89.9956 96.436C88.3094 97.0399 86.4409 97.3418 84.3901 97.3418C82.2368 97.3418 80.3455 96.8747 78.7163 95.9404C77.0985 94.9948 75.8452 93.6276 74.9565 91.8389C74.0793 90.0501 73.6292 87.9481 73.6064 85.5327V83.8408C73.6064 81.3571 74.0223 79.2095 74.854 77.3979C75.6971 75.575 76.9048 74.1851 78.4771 73.228C80.0607 72.2596 81.9121 71.7754 84.0312 71.7754C86.9821 71.7754 89.2892 72.4818 90.9526 73.8945C92.616 75.2959 93.6016 77.341 93.9092 80.0298H88.9189C88.6911 78.6056 88.1841 77.5632 87.3979 76.9023C86.6232 76.2415 85.5522 75.9111 84.1851 75.9111C82.4419 75.9111 81.1146 76.5662 80.2031 77.8765C79.2917 79.1867 78.8302 81.1349 78.8188 83.7212V85.3105C78.8188 87.9196 79.3145 89.8906 80.3057 91.2236C81.2969 92.5566 82.7495 93.2231 84.6636 93.2231C86.589 93.2231 87.9619 92.813 88.7822 91.9927V87.7031H84.1167V83.9263H93.9092V93.8555ZM113.05 86.2163H103.206V92.8813H114.759V97H98.0791V72.1172H114.725V76.27H103.206V82.2002H113.05V86.2163ZM130.669 90.4717C130.669 89.5033 130.328 88.7627 129.644 88.25C128.96 87.7259 127.73 87.179 125.953 86.6094C124.175 86.0283 122.768 85.4587 121.731 84.9004C118.906 83.3737 117.493 81.3172 117.493 78.731C117.493 77.3866 117.869 76.1903 118.621 75.1421C119.384 74.0825 120.472 73.2565 121.885 72.6641C123.309 72.0716 124.904 71.7754 126.67 71.7754C128.448 71.7754 130.031 72.1001 131.421 72.7495C132.811 73.3875 133.888 74.2933 134.651 75.4668C135.426 76.6403 135.813 77.9733 135.813 79.4658H130.687C130.687 78.3265 130.328 77.4435 129.61 76.8169C128.892 76.1789 127.884 75.8599 126.585 75.8599C125.332 75.8599 124.358 76.1276 123.663 76.6631C122.968 77.1872 122.62 77.8822 122.62 78.748C122.62 79.557 123.025 80.2349 123.833 80.7817C124.654 81.3286 125.856 81.8413 127.439 82.3198C130.356 83.1971 132.481 84.2852 133.814 85.584C135.147 86.8828 135.813 88.5007 135.813 90.4375C135.813 92.5908 134.999 94.2827 133.37 95.5132C131.74 96.7323 129.547 97.3418 126.79 97.3418C124.876 97.3418 123.133 96.9943 121.561 96.2993C119.988 95.5929 118.786 94.6302 117.955 93.4111C117.134 92.1921 116.724 90.7793 116.724 89.1729H121.868C121.868 91.9186 123.509 93.2915 126.79 93.2915C128.009 93.2915 128.96 93.0465 129.644 92.5566C130.328 92.0553 130.669 91.3604 130.669 90.4717ZM158.03 76.27H150.408V97H145.281V76.27H137.762V72.1172H158.03V76.27ZM179.803 72.1172V88.5063C179.803 91.2293 178.948 93.3826 177.239 94.9663C175.542 96.55 173.217 97.3418 170.267 97.3418C167.361 97.3418 165.054 96.5728 163.345 95.0347C161.636 93.4966 160.765 91.3831 160.73 88.6943V72.1172H165.857V88.5405C165.857 90.1698 166.245 91.3604 167.02 92.1123C167.806 92.8529 168.888 93.2231 170.267 93.2231C173.149 93.2231 174.613 91.7078 174.659 88.6772V72.1172H179.803ZM193.218 87.8911H189.134V97H184.007V72.1172H193.252C196.192 72.1172 198.459 72.7723 200.054 74.0825C201.649 75.3927 202.447 77.2441 202.447 79.6367C202.447 81.3343 202.076 82.7528 201.336 83.8921C200.607 85.02 199.496 85.9201 198.003 86.5923L203.387 96.7607V97H197.884L193.218 87.8911ZM189.134 83.7383H193.27C194.557 83.7383 195.554 83.4136 196.26 82.7642C196.967 82.1034 197.32 81.1976 197.32 80.0469C197.32 78.8734 196.984 77.9505 196.312 77.2783C195.651 76.6061 194.631 76.27 193.252 76.27H189.134V83.7383ZM221.331 86.2163H211.487V92.8813H223.04V97H206.36V72.1172H223.006V76.27H211.487V82.2002H221.331V86.2163ZM251.29 97H234.234V93.6162L242.283 85.0371C243.388 83.8294 244.203 82.7756 244.727 81.8755C245.263 80.9754 245.53 80.1209 245.53 79.312C245.53 78.2069 245.251 77.341 244.693 76.7144C244.135 76.0763 243.337 75.7573 242.3 75.7573C241.184 75.7573 240.301 76.1447 239.651 76.9194C239.013 77.6828 238.694 78.6911 238.694 79.9443H233.738C233.738 78.429 234.097 77.0448 234.815 75.7915C235.544 74.5382 236.569 73.5584 237.891 72.8521C239.213 72.1343 240.711 71.7754 242.386 71.7754C244.949 71.7754 246.937 72.3906 248.35 73.6211C249.774 74.8516 250.486 76.589 250.486 78.8335C250.486 80.064 250.167 81.3172 249.529 82.5933C248.891 83.8693 247.798 85.3561 246.248 87.0537L240.591 93.0181H251.29V97ZM255.818 103.238L253.238 101.888L253.853 100.777C254.616 99.3869 255.009 98.0026 255.032 96.624V92.7959H259.202L259.185 96.2139C259.174 97.4785 258.855 98.7546 258.228 100.042C257.601 101.329 256.798 102.395 255.818 103.238ZM83.4331 128.891H79.3486V138H74.2217V113.117H83.4673C86.4067 113.117 88.674 113.772 90.269 115.083C91.8641 116.393 92.6616 118.244 92.6616 120.637C92.6616 122.334 92.2913 123.753 91.5508 124.892C90.8216 126.02 89.7108 126.92 88.2183 127.592L93.6016 137.761V138H88.0986L83.4331 128.891ZM79.3486 124.738H83.4844C84.7718 124.738 85.7687 124.414 86.4751 123.764C87.1815 123.103 87.5347 122.198 87.5347 121.047C87.5347 119.873 87.1986 118.951 86.5264 118.278C85.8656 117.606 84.8459 117.27 83.4673 117.27H79.3486V124.738ZM117.015 126.123C117.015 128.572 116.582 130.72 115.716 132.565C114.85 134.411 113.608 135.835 111.99 136.838C110.384 137.84 108.538 138.342 106.453 138.342C104.391 138.342 102.551 137.846 100.933 136.855C99.3153 135.864 98.062 134.451 97.1733 132.617C96.2847 130.771 95.8346 128.652 95.8232 126.259V125.029C95.8232 122.579 96.2619 120.426 97.1392 118.569C98.0278 116.7 99.2754 115.271 100.882 114.279C102.5 113.277 104.345 112.775 106.419 112.775C108.493 112.775 110.333 113.277 111.939 114.279C113.557 115.271 114.804 116.7 115.682 118.569C116.57 120.426 117.015 122.574 117.015 125.012V126.123ZM111.819 124.995C111.819 122.386 111.352 120.403 110.418 119.047C109.484 117.692 108.151 117.014 106.419 117.014C104.699 117.014 103.371 117.686 102.437 119.03C101.503 120.363 101.03 122.323 101.019 124.909V126.123C101.019 128.663 101.486 130.634 102.42 132.036C103.354 133.437 104.699 134.138 106.453 134.138C108.174 134.138 109.495 133.465 110.418 132.121C111.341 130.765 111.808 128.794 111.819 126.208V124.995ZM138.001 117.27H130.379V138H125.252V117.27H117.732V113.117H138.001V117.27ZM152.938 132.873H143.948L142.239 138H136.788L146.05 113.117H150.801L160.115 138H154.664L152.938 132.873ZM145.333 128.72H151.553L148.426 119.406L145.333 128.72ZM179.119 117.27H171.497V138H166.37V117.27H158.851V113.117H179.119V117.27ZM197.029 127.216H187.186V133.881H198.738V138H182.059V113.117H198.704V117.27H187.186V123.2H197.029V127.216ZM229.996 129.711C229.802 132.389 228.811 134.497 227.022 136.035C225.245 137.573 222.898 138.342 219.981 138.342C216.791 138.342 214.279 137.271 212.444 135.129C210.621 132.976 209.71 130.025 209.71 126.276V124.755C209.71 122.363 210.132 120.255 210.975 118.432C211.818 116.609 213.02 115.214 214.581 114.245C216.153 113.265 217.976 112.775 220.049 112.775C222.92 112.775 225.233 113.544 226.988 115.083C228.742 116.621 229.756 118.78 230.03 121.56H224.903C224.778 119.953 224.327 118.791 223.553 118.073C222.789 117.344 221.622 116.979 220.049 116.979C218.34 116.979 217.059 117.595 216.204 118.825C215.361 120.044 214.928 121.941 214.905 124.516V126.396C214.905 129.085 215.31 131.05 216.119 132.292C216.939 133.534 218.226 134.155 219.981 134.155C221.565 134.155 222.744 133.796 223.519 133.078C224.305 132.349 224.755 131.227 224.869 129.711H229.996ZM247.41 132.873H238.421L236.712 138H231.26L240.523 113.117H245.274L254.588 138H249.136L247.41 132.873ZM239.805 128.72H246.026L242.898 119.406L239.805 128.72ZM266.124 128.891H262.039V138H256.912V113.117H266.158C269.097 113.117 271.364 113.772 272.959 115.083C274.555 116.393 275.352 118.244 275.352 120.637C275.352 122.334 274.982 123.753 274.241 124.892C273.512 126.02 272.401 126.92 270.909 127.592L276.292 137.761V138H270.789L266.124 128.891ZM262.039 124.738H266.175C267.462 124.738 268.459 124.414 269.166 123.764C269.872 123.103 270.225 122.198 270.225 121.047C270.225 119.873 269.889 118.951 269.217 118.278C268.556 117.606 267.536 117.27 266.158 117.27H262.039V124.738ZM279.266 138V113.117H286.922C289.109 113.117 291.063 113.613 292.784 114.604C294.515 115.584 295.866 116.985 296.834 118.808C297.802 120.62 298.287 122.682 298.287 124.995V126.14C298.287 128.452 297.808 130.509 296.851 132.309C295.905 134.109 294.567 135.505 292.835 136.496C291.103 137.487 289.149 137.989 286.973 138H279.266ZM284.393 117.27V133.881H286.871C288.876 133.881 290.408 133.226 291.468 131.916C292.527 130.606 293.069 128.732 293.091 126.293V124.978C293.091 122.448 292.567 120.534 291.519 119.235C290.471 117.925 288.938 117.27 286.922 117.27H284.393Z" fill="white"/>
<path d="M284.083 254.957C286.268 254.636 287.779 252.603 287.457 250.417L282.214 214.801C281.893 212.616 279.86 211.105 277.674 211.426C275.489 211.748 273.978 213.781 274.3 215.966L278.96 247.625L247.301 252.286C245.116 252.607 243.605 254.64 243.926 256.826C244.248 259.011 246.281 260.522 248.466 260.2L284.083 254.957ZM168.114 170.21L281.114 254.21L285.886 247.79L172.886 163.79L168.114 170.21Z" fill="#CA1B1B"/>
</svg>
