<svg width="600" height="600" viewBox="0 0 600 600" fill="none" xmlns="http://www.w3.org/2000/svg">
<rect width="350" height="122" transform="translate(52 45)" fill="#CA1B1B"/>
<path d="M93.9092 93.8555C92.9863 94.9606 91.6818 95.8208 89.9956 96.436C88.3094 97.0399 86.4409 97.3418 84.3901 97.3418C82.2368 97.3418 80.3455 96.8747 78.7163 95.9404C77.0985 94.9948 75.8452 93.6276 74.9565 91.8389C74.0793 90.0501 73.6292 87.9481 73.6064 85.5327V83.8408C73.6064 81.3571 74.0223 79.2095 74.854 77.3979C75.6971 75.575 76.9048 74.1851 78.4771 73.228C80.0607 72.2596 81.9121 71.7754 84.0312 71.7754C86.9821 71.7754 89.2892 72.4818 90.9526 73.8945C92.616 75.2959 93.6016 77.341 93.9092 80.0298H88.9189C88.6911 78.6056 88.1841 77.5632 87.3979 76.9023C86.6232 76.2415 85.5522 75.9111 84.1851 75.9111C82.4419 75.9111 81.1146 76.5662 80.2031 77.8765C79.2917 79.1867 78.8302 81.1349 78.8188 83.7212V85.3105C78.8188 87.9196 79.3145 89.8906 80.3057 91.2236C81.2969 92.5566 82.7495 93.2231 84.6636 93.2231C86.589 93.2231 87.9619 92.813 88.7822 91.9927V87.7031H84.1167V83.9263H93.9092V93.8555ZM113.05 86.2163H103.206V92.8813H114.759V97H98.0791V72.1172H114.725V76.27H103.206V82.2002H113.05V86.2163ZM130.669 90.4717C130.669 89.5033 130.328 88.7627 129.644 88.25C128.96 87.7259 127.73 87.179 125.953 86.6094C124.175 86.0283 122.768 85.4587 121.731 84.9004C118.906 83.3737 117.493 81.3172 117.493 78.731C117.493 77.3866 117.869 76.1903 118.621 75.1421C119.384 74.0825 120.472 73.2565 121.885 72.6641C123.309 72.0716 124.904 71.7754 126.67 71.7754C128.448 71.7754 130.031 72.1001 131.421 72.7495C132.811 73.3875 133.888 74.2933 134.651 75.4668C135.426 76.6403 135.813 77.9733 135.813 79.4658H130.687C130.687 78.3265 130.328 77.4435 129.61 76.8169C128.892 76.1789 127.884 75.8599 126.585 75.8599C125.332 75.8599 124.358 76.1276 123.663 76.6631C122.968 77.1872 122.62 77.8822 122.62 78.748C122.62 79.557 123.025 80.2349 123.833 80.7817C124.654 81.3286 125.856 81.8413 127.439 82.3198C130.356 83.1971 132.481 84.2852 133.814 85.584C135.147 86.8828 135.813 88.5007 135.813 90.4375C135.813 92.5908 134.999 94.2827 133.37 95.5132C131.74 96.7323 129.547 97.3418 126.79 97.3418C124.876 97.3418 123.133 96.9943 121.561 96.2993C119.988 95.5929 118.786 94.6302 117.955 93.4111C117.134 92.1921 116.724 90.7793 116.724 89.1729H121.868C121.868 91.9186 123.509 93.2915 126.79 93.2915C128.009 93.2915 128.96 93.0465 129.644 92.5566C130.328 92.0553 130.669 91.3604 130.669 90.4717ZM158.03 76.27H150.408V97H145.281V76.27H137.762V72.1172H158.03V76.27ZM179.803 72.1172V88.5063C179.803 91.2293 178.948 93.3826 177.239 94.9663C175.542 96.55 173.217 97.3418 170.267 97.3418C167.361 97.3418 165.054 96.5728 163.345 95.0347C161.636 93.4966 160.765 91.3831 160.73 88.6943V72.1172H165.857V88.5405C165.857 90.1698 166.245 91.3604 167.02 92.1123C167.806 92.8529 168.888 93.2231 170.267 93.2231C173.149 93.2231 174.613 91.7078 174.659 88.6772V72.1172H179.803ZM193.218 87.8911H189.134V97H184.007V72.1172H193.252C196.192 72.1172 198.459 72.7723 200.054 74.0825C201.649 75.3927 202.447 77.2441 202.447 79.6367C202.447 81.3343 202.076 82.7528 201.336 83.8921C200.607 85.02 199.496 85.9201 198.003 86.5923L203.387 96.7607V97H197.884L193.218 87.8911ZM189.134 83.7383H193.27C194.557 83.7383 195.554 83.4136 196.26 82.7642C196.967 82.1034 197.32 81.1976 197.32 80.0469C197.32 78.8734 196.984 77.9505 196.312 77.2783C195.651 76.6061 194.631 76.27 193.252 76.27H189.134V83.7383ZM221.331 86.2163H211.487V92.8813H223.04V97H206.36V72.1172H223.006V76.27H211.487V82.2002H221.331V86.2163ZM246.231 97H241.292V77.9619L235.396 79.7905V75.7744L245.701 72.083H246.231V97ZM255.818 103.238L253.238 101.888L253.853 100.777C254.616 99.3869 255.009 98.0026 255.032 96.624V92.7959H259.202L259.185 96.2139C259.174 97.4785 258.855 98.7546 258.228 100.042C257.601 101.329 256.798 102.395 255.818 103.238ZM291.81 93.8555C290.887 94.9606 289.582 95.8208 287.896 96.436C286.21 97.0399 284.341 97.3418 282.291 97.3418C280.137 97.3418 278.246 96.8747 276.617 95.9404C274.999 94.9948 273.746 93.6276 272.857 91.8389C271.98 90.0501 271.53 87.9481 271.507 85.5327V83.8408C271.507 81.3571 271.923 79.2095 272.754 77.3979C273.597 75.575 274.805 74.1851 276.377 73.228C277.961 72.2596 279.812 71.7754 281.932 71.7754C284.882 71.7754 287.19 72.4818 288.853 73.8945C290.516 75.2959 291.502 77.341 291.81 80.0298H286.819C286.591 78.6056 286.084 77.5632 285.298 76.9023C284.524 76.2415 283.453 75.9111 282.085 75.9111C280.342 75.9111 279.015 76.5662 278.104 77.8765C277.192 79.1867 276.731 81.1349 276.719 83.7212V85.3105C276.719 87.9196 277.215 89.8906 278.206 91.2236C279.197 92.5566 280.65 93.2231 282.564 93.2231C284.489 93.2231 285.862 92.813 286.683 91.9927V87.7031H282.017V83.9263H291.81V93.8555ZM305.191 87.8911H301.106V97H295.979V72.1172H305.225C308.165 72.1172 310.432 72.7723 312.027 74.0825C313.622 75.3927 314.419 77.2441 314.419 79.6367C314.419 81.3343 314.049 82.7528 313.309 83.8921C312.579 85.02 311.469 85.9201 309.976 86.5923L315.359 96.7607V97H309.856L305.191 87.8911ZM301.106 83.7383H305.242C306.53 83.7383 307.527 83.4136 308.233 82.7642C308.939 82.1034 309.292 81.1976 309.292 80.0469C309.292 78.8734 308.956 77.9505 308.284 77.2783C307.623 76.6061 306.604 76.27 305.225 76.27H301.106V83.7383ZM332.381 91.873H323.392L321.683 97H316.231L325.494 72.1172H330.245L339.559 97H334.107L332.381 91.873ZM324.776 87.7202H330.997L327.869 78.4062L324.776 87.7202ZM341.883 97V72.1172H350.599C353.618 72.1172 355.908 72.6982 357.469 73.8604C359.03 75.0111 359.81 76.703 359.81 78.936C359.81 80.1551 359.497 81.2318 358.87 82.166C358.243 83.0889 357.372 83.7668 356.255 84.1997C357.531 84.5187 358.534 85.1624 359.263 86.1309C360.004 87.0993 360.374 88.2842 360.374 89.6855C360.374 92.0781 359.611 93.8896 358.084 95.1201C356.557 96.3506 354.381 96.9772 351.556 97H341.883ZM347.01 86.165V92.8813H351.402C352.61 92.8813 353.549 92.5965 354.222 92.0269C354.905 91.4458 355.247 90.6483 355.247 89.6343C355.247 87.3556 354.068 86.1992 351.709 86.165H347.01ZM347.01 82.542H350.804C353.39 82.4964 354.683 81.4653 354.683 79.4487C354.683 78.3208 354.353 77.5119 353.692 77.022C353.042 76.5207 352.011 76.27 350.599 76.27H347.01V82.542ZM88.2695 132.873H79.2803L77.5713 138H72.1196L81.3823 113.117H86.1333L95.4473 138H89.9956L88.2695 132.873ZM80.6646 128.72H86.8853L83.7578 119.406L80.6646 128.72ZM118.006 138H112.879L102.898 121.628V138H97.7715V113.117H102.898L112.896 129.523V113.117H118.006V138ZM122.483 138V113.117H130.14C132.327 113.117 134.281 113.613 136.001 114.604C137.733 115.584 139.083 116.985 140.052 118.808C141.02 120.62 141.504 122.682 141.504 124.995V126.14C141.504 128.452 141.026 130.509 140.069 132.309C139.123 134.109 137.785 135.505 136.053 136.496C134.321 137.487 132.367 137.989 130.191 138H122.483ZM127.61 117.27V133.881H130.088C132.094 133.881 133.626 133.226 134.686 131.916C135.745 130.606 136.286 128.732 136.309 126.293V124.978C136.309 122.448 135.785 120.534 134.737 119.235C133.689 117.925 132.156 117.27 130.14 117.27H127.61ZM160.662 113.117L167.054 131.164L173.411 113.117H180.145V138H175V131.198L175.513 119.458L168.797 138H165.276L158.577 119.475L159.09 131.198V138H153.963V113.117H160.662ZM205.062 126.123C205.062 128.572 204.629 130.72 203.763 132.565C202.897 134.411 201.655 135.835 200.037 136.838C198.431 137.84 196.585 138.342 194.5 138.342C192.438 138.342 190.598 137.846 188.98 136.855C187.362 135.864 186.109 134.451 185.22 132.617C184.332 130.771 183.882 128.652 183.87 126.259V125.029C183.87 122.579 184.309 120.426 185.186 118.569C186.075 116.7 187.322 115.271 188.929 114.279C190.547 113.277 192.392 112.775 194.466 112.775C196.539 112.775 198.379 113.277 199.986 114.279C201.604 115.271 202.851 116.7 203.729 118.569C204.617 120.426 205.062 122.574 205.062 125.012V126.123ZM199.866 124.995C199.866 122.386 199.399 120.403 198.465 119.047C197.531 117.692 196.198 117.014 194.466 117.014C192.745 117.014 191.418 117.686 190.484 119.03C189.55 120.363 189.077 122.323 189.065 124.909V126.123C189.065 128.663 189.533 130.634 190.467 132.036C191.401 133.437 192.745 134.138 194.5 134.138C196.22 134.138 197.542 133.465 198.465 132.121C199.388 130.765 199.855 128.794 199.866 126.208V124.995ZM217.605 131.831L223.245 113.117H228.953L220.289 138H214.939L206.309 113.117H212L217.605 131.831ZM246.282 127.216H236.438V133.881H247.991V138H231.312V113.117H247.957V117.27H236.438V123.2H246.282V127.216ZM279.249 129.711C279.055 132.389 278.064 134.497 276.275 136.035C274.498 137.573 272.151 138.342 269.234 138.342C266.044 138.342 263.532 137.271 261.697 135.129C259.874 132.976 258.963 130.025 258.963 126.276V124.755C258.963 122.363 259.384 120.255 260.228 118.432C261.071 116.609 262.273 115.214 263.833 114.245C265.406 113.265 267.229 112.775 269.302 112.775C272.173 112.775 274.486 113.544 276.241 115.083C277.995 116.621 279.009 118.78 279.283 121.56H274.156C274.03 119.953 273.58 118.791 272.806 118.073C272.042 117.344 270.875 116.979 269.302 116.979C267.593 116.979 266.312 117.595 265.457 118.825C264.614 120.044 264.181 121.941 264.158 124.516V126.396C264.158 129.085 264.563 131.05 265.372 132.292C266.192 133.534 267.479 134.155 269.234 134.155C270.818 134.155 271.997 133.796 272.771 133.078C273.558 132.349 274.008 131.227 274.122 129.711H279.249ZM296.663 132.873H287.674L285.965 138H280.513L289.776 113.117H294.527L303.841 138H298.389L296.663 132.873ZM289.058 128.72H295.279L292.151 119.406L289.058 128.72ZM315.376 128.891H311.292V138H306.165V113.117H315.411C318.35 113.117 320.617 113.772 322.212 115.083C323.807 116.393 324.605 118.244 324.605 120.637C324.605 122.334 324.235 123.753 323.494 124.892C322.765 126.02 321.654 126.92 320.162 127.592L325.545 137.761V138H320.042L315.376 128.891ZM311.292 124.738H315.428C316.715 124.738 317.712 124.414 318.418 123.764C319.125 123.103 319.478 122.198 319.478 121.047C319.478 119.873 319.142 118.951 318.47 118.278C317.809 117.606 316.789 117.27 315.411 117.27H311.292V124.738ZM328.519 138V113.117H336.175C338.362 113.117 340.316 113.613 342.037 114.604C343.768 115.584 345.118 116.985 346.087 118.808C347.055 120.62 347.54 122.682 347.54 124.995V126.14C347.54 128.452 347.061 130.509 346.104 132.309C345.158 134.109 343.82 135.505 342.088 136.496C340.356 137.487 338.402 137.989 336.226 138H328.519ZM333.646 117.27V133.881H336.124C338.129 133.881 339.661 133.226 340.721 131.916C341.78 130.606 342.321 128.732 342.344 126.293V124.978C342.344 122.448 341.82 120.534 340.772 119.235C339.724 117.925 338.191 117.27 336.175 117.27H333.646Z" fill="white"/>
<path d="M284.083 254.957C286.268 254.636 287.779 252.603 287.457 250.417L282.214 214.801C281.893 212.616 279.86 211.105 277.674 211.426C275.489 211.748 273.978 213.781 274.3 215.966L278.96 247.625L247.301 252.286C245.116 252.607 243.605 254.64 243.926 256.826C244.248 259.011 246.281 260.522 248.466 260.2L284.083 254.957ZM168.114 170.21L281.114 254.21L285.886 247.79L172.886 163.79L168.114 170.21Z" fill="#CA1B1B"/>
</svg>
