<svg width="2121" height="1075" viewBox="0 0 2121 1075" fill="none" xmlns="http://www.w3.org/2000/svg">
<rect width="2121" height="1075" fill="white"/>
<path fill-rule="evenodd" clip-rule="evenodd" d="M380.764 323.692C357.458 326.077 335.718 330.77 335.718 333.416C335.718 334.959 336.481 334.873 362.611 330.365C378.795 327.574 384.919 327.239 419.086 327.28C462.469 327.331 483.475 329.015 542.794 337.197C578.222 342.084 649.96 351.559 675.242 354.692C681.159 355.425 697.799 357.267 712.22 358.786C786.909 366.65 838.602 376.774 889.042 393.42C941.101 410.599 952.931 415.555 956.177 421.535C957.363 423.719 958.205 424.371 958.237 423.129C958.298 420.749 952.566 414.999 947.534 412.395C945.685 411.436 935.398 407.49 924.675 403.622C913.951 399.756 900.034 394.713 893.748 392.416C878.672 386.91 844.493 377.208 825.171 372.955C795.476 366.415 760.247 361.141 707.514 355.339C678.202 352.114 634.517 346.732 615.405 343.988C610.598 343.299 599.707 341.784 591.202 340.623C582.697 339.46 558.641 336.091 537.744 333.133C516.848 330.175 491.434 326.859 481.268 325.764C459.516 323.418 396.188 322.113 380.764 323.692ZM473.869 391.436C467.371 393.88 465.258 395.689 464.261 399.656C462.056 408.443 469.906 414.924 494.204 424.378C544.135 443.804 636.666 467.404 686.672 473.465C695.916 474.586 711.649 476.472 721.633 477.656C731.617 478.84 748.559 481.324 759.283 483.176C770.006 485.028 783.621 487.375 789.538 488.391C795.454 489.407 813.909 492.127 830.549 494.436C847.189 496.745 871.696 500.375 885.008 502.504C925.972 509.055 955.422 510.953 960.336 507.36C962.556 505.738 962.648 505.191 961.027 503.239C958.041 499.643 952.415 497.253 933.595 491.591C904.13 482.724 866.015 474.121 830.549 468.33C799.925 463.329 746.093 455.337 725.667 452.758C692.525 448.574 641.453 439.56 597.164 430.078C573.541 425.019 561.02 423.609 559.633 425.852C557.874 428.696 561.083 430.175 569.881 430.579C574.582 430.794 585.386 432.531 593.891 434.437C635.185 443.693 685.599 452.245 745.836 460.212C783.985 465.259 843.695 474.803 868.872 479.878C905.276 487.217 954.257 501 954.257 503.905C954.257 504.694 950.633 504.958 945.181 504.567C940.189 504.211 929.793 503.592 922.078 503.192C914.364 502.792 890.765 500.05 869.637 497.097C848.508 494.145 824.263 490.783 815.758 489.629C807.253 488.473 786.378 485.187 769.368 482.325C752.358 479.464 730.272 476.179 720.288 475.026C665.932 468.747 645.919 465.178 599.27 453.445C560.264 443.635 516.723 429.638 488.489 417.835C469.916 410.071 463.905 401.766 473.209 396.721C476.75 394.8 480.766 394.367 494.387 394.437C513.732 394.537 532.393 397.15 565.653 404.417C618.782 416.025 663.803 424.613 723.65 434.558C788.296 445.3 798.522 446.908 831.222 451.461C906.471 461.943 938.787 467.798 964.857 475.675C974.755 478.664 983.451 480.913 984.18 480.669C984.91 480.426 983.164 478.463 980.303 476.307C977.438 474.148 976.006 473.522 977.116 474.913C978.969 477.235 978.914 477.375 976.444 476.628C974.965 476.18 967.704 473.933 960.308 471.632C940.274 465.401 889.688 455.897 835.256 448.136C818.263 445.713 808.693 444.187 763.714 436.724C687.36 424.055 670.485 420.874 599.27 405.722C540.374 393.19 526.263 390.972 500.438 390.188C483.877 389.684 477.759 389.971 473.869 391.436ZM321.156 415.15C320.792 428.508 319.896 436.982 316.246 461.519C315.037 469.65 313.211 486.282 312.189 498.479C311.167 510.676 309.702 527.61 308.933 536.111C304.536 584.71 303.359 729.19 306.803 797.522C307.883 818.96 308.779 843.036 308.796 851.026C308.812 859.017 309.351 865.229 309.994 864.832C312.741 863.136 312.929 840.819 310.709 780.134C308.601 722.49 308.523 706.785 309.986 634.225C310.888 589.502 312.206 546.259 312.914 538.127C313.624 529.996 314.778 513.364 315.48 501.167C316.182 488.97 318.018 468.698 319.561 456.12C321.377 441.311 322.214 427.808 321.934 417.815L321.502 402.382L321.156 415.15ZM1066.29 409.279C1066.68 410.66 1067.32 413 1067.72 414.478C1069.75 422.066 1075.45 490.435 1076.59 520.835C1078.02 559.27 1076.59 626.596 1073.26 677.905C1072.16 694.907 1070.31 723.03 1069.16 740.402C1065.56 794.939 1051.98 925.926 1048.23 942.34L1046.77 948.724H1040.13C1029.02 948.724 1009.04 946.125 973.082 940C954.224 936.788 919.128 930.813 895.093 926.721C795.271 909.729 696.7 898.77 560.947 889.574C538.021 888.022 503.603 885.421 484.465 883.795L449.666 880.839L436.887 862.03C406.952 817.969 399.606 806.677 393.886 795.927C387.541 784.004 383.598 773.142 385.248 772.123C385.785 771.791 392.157 772.49 399.41 773.676C410.321 775.456 413.797 775.546 419.54 774.19C436.118 770.279 435.587 770.297 442.019 773.459C445.389 775.115 450.38 776.889 453.113 777.401C455.845 777.915 458.081 778.588 458.081 778.901C458.081 781.629 450.481 793.297 446.164 797.196C436.914 805.549 427.215 805.56 410.378 797.233C404.867 794.506 399.929 792.703 399.407 793.224C397.684 794.947 404.834 801.171 413.035 805.091C422.533 809.628 435.199 810.359 442.697 806.803C448.994 803.816 457.702 793.973 461.627 785.402C464.767 778.546 465.309 778.079 472.542 775.977C489.623 771.013 502.773 761.082 500.411 754.929C500.032 753.943 496.739 751.767 493.093 750.095C476.101 742.302 455.555 711.066 443.402 674.545C437.515 656.856 436.587 643.848 440.556 634.626C443.39 628.042 443.375 624.816 440.512 624.816C437.605 624.816 396.371 653.722 397.569 654.92C399.299 656.648 407.953 652.57 420.812 643.969C426.614 640.088 431.473 636.914 431.61 636.914C431.748 636.915 431.897 642.51 431.941 649.346C432.007 659.61 432.788 664.119 436.419 675.217C448.092 710.897 469.423 744.807 486.117 754.224C492.917 758.059 493.226 758.451 490.864 760.223C486.753 763.308 476.601 768.222 471.353 769.665L466.473 771.008L465.637 764.913C464.097 753.682 461.322 752.898 447.881 759.901C442.903 762.495 438.548 764.335 438.203 763.989C437.858 763.644 438.487 761.069 439.6 758.265C442.647 750.6 443.566 740.598 441.982 732.338C439.596 719.903 434.403 711.105 422.427 699.204C413.51 690.344 409.108 687.146 399.442 682.51C392.867 679.355 386.044 675.667 384.28 674.315C382.516 672.963 379.894 671.857 378.454 671.857C374.721 671.857 375.744 670.365 384.126 663.587C394.731 655.012 400.778 642.873 401.361 628.986C401.75 619.731 401.445 618.242 398.117 613.18C393.752 606.542 386.245 601.968 379.714 601.968C366.913 601.968 349.066 611.345 341.192 622.21C330.59 636.839 322.836 665.75 324.092 685.969C324.978 700.24 326.994 708.145 329.747 708.145C331.328 708.145 331.515 707.019 330.692 702.433C330.128 699.292 329.673 689.464 329.678 680.593C329.687 666.519 330.17 663.027 333.462 653.172C341.817 628.164 351.873 614.763 366.087 609.69C376.555 605.953 384.451 606.531 390.047 611.443C396.632 617.221 398.273 623.002 396.266 633.351C393.545 647.391 383.039 660.215 368.019 667.828C357.055 673.385 351.737 677.627 348.23 683.606C344.793 689.468 344.772 689.688 345.693 709.249C346.539 727.241 346.364 729.806 343.707 738.386C339.936 750.561 336.222 757.881 332.101 761.256L328.793 763.964L336.884 795.528C345.215 828.034 352.354 861.683 353.74 874.977L354.528 882.544L344.115 884.069C319.239 887.715 290 897.295 290 901.802C290 905.214 291.298 905.084 305.474 900.243C319.877 895.324 354.039 888.105 354.703 889.842C354.792 890.071 355.248 901.27 355.716 914.725C356.595 939.946 357.761 944.977 361.709 940.602C363.122 939.037 363.25 933.814 362.342 914.549C361.607 898.938 361.675 889.985 362.536 889.125C364.054 887.608 437.725 886.061 444.854 887.398C448.868 888.151 450.578 890.011 458.92 902.697C464.143 910.64 470.082 920.013 472.117 923.524C475.977 930.184 479.093 932.118 477.529 926.884C476.332 922.879 469.141 909.974 461.628 898.349C458.294 893.189 455.762 888.77 456.002 888.528C456.244 888.288 471.181 889.331 489.196 890.847C507.212 892.363 545.853 895.137 575.066 897.011C679.69 903.724 766.939 912.285 848.702 923.864C861.275 925.643 896.975 931.366 928.036 936.581C992.027 947.324 1021.52 951.412 1035.03 951.412C1044.96 951.412 1046.22 952.463 1042.37 957.54C1041.29 958.974 1040.38 960.925 1040.36 961.875C1040.28 964.909 1044.97 961.379 1047.67 956.368C1049.9 952.233 1050.92 951.642 1057.14 950.912C1066.26 949.84 1075.12 946.654 1078.94 943.069C1082.16 940.038 1083.09 933.428 1080.51 931.835C1079.51 931.218 1079.32 931.841 1079.91 933.721C1080.4 935.264 1080.17 937.714 1079.39 939.167C1077.78 942.175 1066.82 946.598 1057.68 947.926L1051.51 948.824L1053.22 940.374C1058.34 915.122 1071.81 778.663 1075.29 716.882C1076.08 702.837 1077.32 683.18 1078.04 673.201C1080.29 642.049 1081.13 548.874 1079.46 514.607C1077.92 483.039 1072.14 419.324 1070.14 411.877C1069.56 409.708 1068.29 407.671 1067.33 407.351C1066.17 406.964 1065.82 407.611 1066.29 409.279ZM577.44 569.376C567.676 580.441 582.093 610.753 592.6 601.248C597.269 597.025 594.803 580.417 589.187 578.262C585.92 577.01 585.6 578.257 587.823 583.574C590.396 589.731 590.549 599.28 588.074 599.28C586.046 599.28 581.515 594.658 579.268 590.297C575.398 582.786 578.984 565.118 582.984 571.99C584.119 573.94 584.404 574.007 584.438 572.333C584.478 570.248 582.016 567.024 580.384 567.024C579.907 567.024 578.582 568.083 577.44 569.376ZM496.628 597.489C493.39 600.724 497.934 616.282 503.584 621.306C509.489 626.556 512.545 617.762 508.966 605.82C507.052 599.436 503.005 598.425 504.304 604.656C504.766 606.874 505.491 610.653 505.915 613.056L506.686 617.424L503.915 614.273C500.809 610.739 497.86 601.334 498.961 598.467C499.704 596.532 498.211 595.905 496.628 597.489ZM848.911 608.458C846.11 611.551 845.991 620.921 848.687 626.132C850.729 630.076 854.984 632.383 857.43 630.873C861.233 628.523 856.792 618.096 851.987 618.096C850.243 618.096 849.374 617.173 849.374 615.32C849.374 611.04 852.007 607.035 854.254 607.897C855.369 608.324 855.877 608.075 855.416 607.329C854.143 605.27 851.359 605.753 848.911 608.458ZM729.469 674.107C727.06 674.744 724.771 683.442 725.464 689.329C725.913 693.153 730.241 698.3 734.012 699.497C740.832 701.661 742.81 690.48 737.096 682.065C735.247 679.342 733.735 676.768 733.735 676.345C733.735 675.921 735.247 675.865 737.096 676.218C740.799 676.925 741.706 675.311 738.331 674.017C736.033 673.135 733.03 673.166 729.469 674.107ZM381.589 681.347C385.461 683.418 387.085 688.609 385.174 692.802C381.493 700.878 362.776 704.574 356.31 698.503C350.659 693.195 353.305 683.78 361.266 680.87C364.867 679.554 378.85 679.882 381.589 681.347ZM733.624 684.448C736.542 689.165 737.405 696.049 735.079 696.049C732.124 696.049 728.356 690.527 728.356 686.194C728.356 682.366 729.187 679.921 730.487 679.921C730.674 679.921 732.086 681.959 733.624 684.448ZM583.3 684.425C580.848 687.379 580.048 697.641 581.764 704.127C584.187 713.281 590.927 723.159 594.411 722.663C596.383 722.381 597.383 721.126 597.677 718.562C598.123 714.703 596.806 713.833 594.305 716.333C593.244 717.394 591.635 715.359 588.498 708.991C584.644 701.166 584.222 699.201 584.719 691.395C585.026 686.563 585.172 682.609 585.043 682.609C584.914 682.609 584.129 683.426 583.3 684.425ZM397.975 687.509C404.66 690.945 417.005 700.819 422.506 707.132C429.232 714.849 435.236 727.901 436.155 736.804C437.005 745.036 434.461 757.874 431.979 757.874C429.338 757.874 424.874 750.833 417.184 734.535C413.213 726.12 409.362 718.864 408.626 718.41C407.891 717.955 406.568 718.453 405.684 719.516C404.399 721.064 405.499 724.561 411.208 737.079C415.129 745.676 420.321 755.026 422.745 757.857C427.841 763.808 428.171 765.434 424.516 766.594C421.625 767.511 418.047 765.989 411.355 760.997C405.302 756.482 405.843 759.425 411.997 764.496L417.01 768.626H409.533C405.419 768.626 398.605 767.934 394.389 767.087C380.031 764.206 377.474 768.013 383.192 783.761C387.845 796.575 394.396 807.572 420.014 845.571L443.347 880.179L409.702 880.467C391.197 880.626 372.578 880.777 368.326 880.803L360.594 880.851L359.621 871.095C357.828 853.128 344.331 793.93 337.876 775.723C335.886 770.107 335.912 769.974 340.497 762.363C350.632 745.541 354.3 730.254 352.263 713.339C351.518 707.156 351.117 701.849 351.373 701.545C351.628 701.243 353.096 702.132 354.633 703.523C359.166 707.623 373.777 707.808 381.357 703.862C388.572 700.107 392.641 694.884 392.641 689.38C392.641 684.602 392.45 684.669 397.975 687.509ZM841.339 747.102C838.795 748.674 839.682 749.821 851.172 759.788C859.235 766.781 862.079 768.556 863.274 767.344C864.467 766.134 863.722 764.804 860.132 761.73C857.543 759.515 852.639 755.08 849.235 751.876C845.252 748.127 842.435 746.424 841.339 747.102ZM459.426 765.938C459.426 772.161 457.426 772.783 448.962 769.195L443.962 767.075L450.013 763.879C458.454 759.421 459.426 759.633 459.426 765.938Z" fill="black"/>
<rect width="350" height="204" transform="translate(57 88)" fill="#CA1B1B"/>
<path d="M93.2695 134.873H84.2803L82.5713 140H77.1196L86.3823 115.117H91.1333L100.447 140H94.9956L93.2695 134.873ZM85.6646 130.72H91.8853L88.7578 121.406L85.6646 130.72ZM123.006 140H117.879L107.898 123.628V140H102.771V115.117H107.898L117.896 131.523V115.117H123.006V140ZM132.935 140H127.808V115.117H132.935V140ZM144.402 115.117L150.794 133.164L157.151 115.117H163.885V140H158.741V133.198L159.253 121.458L152.537 140H149.017L142.317 121.475L142.83 133.198V140H137.703V115.117H144.402ZM182.718 134.873H173.729L172.02 140H166.568L175.831 115.117H180.582L189.896 140H184.444L182.718 134.873ZM175.113 130.72H181.333L178.206 121.406L175.113 130.72ZM208.899 119.27H201.277V140H196.15V119.27H188.631V115.117H208.899V119.27ZM217.291 140H212.164V115.117H217.291V140ZM242.498 128.123C242.498 130.572 242.065 132.72 241.199 134.565C240.333 136.411 239.091 137.835 237.474 138.838C235.867 139.84 234.021 140.342 231.937 140.342C229.874 140.342 228.034 139.846 226.417 138.855C224.799 137.864 223.545 136.451 222.657 134.617C221.768 132.771 221.318 130.652 221.307 128.259V127.029C221.307 124.579 221.745 122.426 222.623 120.569C223.511 118.7 224.759 117.271 226.365 116.279C227.983 115.277 229.829 114.775 231.902 114.775C233.976 114.775 235.816 115.277 237.422 116.279C239.04 117.271 240.288 118.7 241.165 120.569C242.054 122.426 242.498 124.574 242.498 127.012V128.123ZM237.303 126.995C237.303 124.386 236.836 122.403 235.901 121.047C234.967 119.692 233.634 119.014 231.902 119.014C230.182 119.014 228.855 119.686 227.92 121.03C226.986 122.363 226.513 124.323 226.502 126.909V128.123C226.502 130.663 226.969 132.634 227.903 134.036C228.838 135.437 230.182 136.138 231.937 136.138C233.657 136.138 234.979 135.465 235.901 134.121C236.824 132.765 237.291 130.794 237.303 128.208V126.995ZM266.458 140H261.331L251.351 123.628V140H246.224V115.117H251.351L261.348 131.523V115.117H266.458V140ZM300.091 128.123C300.091 130.572 299.658 132.72 298.792 134.565C297.926 136.411 296.684 137.835 295.066 138.838C293.46 139.84 291.614 140.342 289.529 140.342C287.467 140.342 285.627 139.846 284.009 138.855C282.391 137.864 281.138 136.451 280.25 134.617C279.361 132.771 278.911 130.652 278.899 128.259V127.029C278.899 124.579 279.338 122.426 280.215 120.569C281.104 118.7 282.352 117.271 283.958 116.279C285.576 115.277 287.422 114.775 289.495 114.775C291.569 114.775 293.409 115.277 295.015 116.279C296.633 117.271 297.881 118.7 298.758 120.569C299.646 122.426 300.091 124.574 300.091 127.012V128.123ZM294.896 126.995C294.896 124.386 294.428 122.403 293.494 121.047C292.56 119.692 291.227 119.014 289.495 119.014C287.775 119.014 286.447 119.686 285.513 121.03C284.579 122.363 284.106 124.323 284.095 126.909V128.123C284.095 130.663 284.562 132.634 285.496 134.036C286.43 135.437 287.775 136.138 289.529 136.138C291.25 136.138 292.571 135.465 293.494 134.121C294.417 132.765 294.884 130.794 294.896 128.208V126.995ZM318.787 129.832H308.943V140H303.816V115.117H320.018V119.27H308.943V125.696H318.787V129.832ZM97.9521 160.27H90.3301V181H85.2031V160.27H77.6836V156.117H97.9521V160.27ZM106.343 181H101.216V156.117H106.343V181ZM117.811 156.117L124.202 174.164L130.56 156.117H137.293V181H132.149V174.198L132.662 162.458L125.945 181H122.425L115.726 162.475L116.238 174.198V181H111.111V156.117H117.811ZM156.741 170.216H146.897V176.881H158.45V181H141.771V156.117H158.416V160.27H146.897V166.2H156.741V170.216ZM166.585 176.881H177.471V181H161.458V156.117H166.585V176.881ZM185.879 181H180.752V156.117H185.879V181ZM210.882 181H205.755L195.774 164.628V181H190.647V156.117H195.774L205.772 172.523V156.117H210.882V181ZM230.33 170.216H220.486V176.881H232.039V181H215.359V156.117H232.005V160.27H220.486V166.2H230.33V170.216ZM236.004 187.238L233.423 185.888L234.039 184.777C234.802 183.387 235.195 182.003 235.218 180.624V176.796H239.388L239.371 180.214C239.359 181.479 239.04 182.755 238.414 184.042C237.787 185.329 236.984 186.395 236.004 187.238ZM92.1245 215.472C92.1245 214.503 91.7827 213.763 91.0991 213.25C90.4155 212.726 89.1851 212.179 87.4077 211.609C85.6304 211.028 84.2233 210.459 83.1865 209.9C80.361 208.374 78.9482 206.317 78.9482 203.731C78.9482 202.387 79.3242 201.19 80.0762 200.142C80.8395 199.083 81.9276 198.257 83.3403 197.664C84.7645 197.072 86.3595 196.775 88.1255 196.775C89.9028 196.775 91.4865 197.1 92.8765 197.75C94.2664 198.388 95.3431 199.293 96.1064 200.467C96.8812 201.64 97.2686 202.973 97.2686 204.466H92.1416C92.1416 203.326 91.7827 202.444 91.0649 201.817C90.3472 201.179 89.3389 200.86 88.04 200.86C86.7868 200.86 85.8127 201.128 85.1177 201.663C84.4227 202.187 84.0752 202.882 84.0752 203.748C84.0752 204.557 84.4797 205.235 85.2886 205.782C86.1089 206.329 87.3109 206.841 88.8945 207.32C91.8112 208.197 93.936 209.285 95.269 210.584C96.6021 211.883 97.2686 213.501 97.2686 215.438C97.2686 217.591 96.4539 219.283 94.8247 220.513C93.1955 221.732 91.0023 222.342 88.2451 222.342C86.3311 222.342 84.5879 221.994 83.0156 221.299C81.4434 220.593 80.2414 219.63 79.4097 218.411C78.5894 217.192 78.1792 215.779 78.1792 214.173H83.3232C83.3232 216.919 84.9639 218.292 88.2451 218.292C89.4642 218.292 90.4155 218.047 91.0991 217.557C91.7827 217.055 92.1245 216.36 92.1245 215.472ZM121.006 222H115.879V211.336H105.882V222H100.755V197.117H105.882V207.2H115.879V197.117H121.006V222ZM145.94 210.123C145.94 212.572 145.507 214.72 144.642 216.565C143.776 218.411 142.534 219.835 140.916 220.838C139.31 221.84 137.464 222.342 135.379 222.342C133.317 222.342 131.477 221.846 129.859 220.855C128.241 219.864 126.988 218.451 126.099 216.617C125.21 214.771 124.76 212.652 124.749 210.259V209.029C124.749 206.579 125.188 204.426 126.065 202.569C126.954 200.7 128.201 199.271 129.808 198.279C131.425 197.277 133.271 196.775 135.345 196.775C137.418 196.775 139.258 197.277 140.865 198.279C142.483 199.271 143.73 200.7 144.607 202.569C145.496 204.426 145.94 206.574 145.94 209.012V210.123ZM140.745 208.995C140.745 206.386 140.278 204.403 139.344 203.047C138.41 201.692 137.076 201.014 135.345 201.014C133.624 201.014 132.297 201.686 131.363 203.03C130.429 204.363 129.956 206.323 129.944 208.909V210.123C129.944 212.663 130.411 214.634 131.346 216.036C132.28 217.437 133.624 218.138 135.379 218.138C137.099 218.138 138.421 217.465 139.344 216.121C140.267 214.765 140.734 212.794 140.745 210.208V208.995ZM169.046 214.822L172.396 197.117H177.505L171.985 222H166.824L162.774 205.354L158.724 222H153.562L148.042 197.117H153.152L156.519 214.788L160.621 197.117H164.961L169.046 214.822ZM185.743 222H180.616V197.117H185.743V222ZM210.745 222H205.618L195.638 205.628V222H190.511V197.117H195.638L205.635 213.523V197.117H210.745V222ZM234.91 218.855C233.987 219.961 232.683 220.821 230.997 221.436C229.31 222.04 227.442 222.342 225.391 222.342C223.238 222.342 221.347 221.875 219.717 220.94C218.099 219.995 216.846 218.628 215.958 216.839C215.08 215.05 214.63 212.948 214.607 210.533V208.841C214.607 206.357 215.023 204.209 215.855 202.398C216.698 200.575 217.906 199.185 219.478 198.228C221.062 197.26 222.913 196.775 225.032 196.775C227.983 196.775 230.29 197.482 231.954 198.895C233.617 200.296 234.603 202.341 234.91 205.03H229.92C229.692 203.606 229.185 202.563 228.399 201.902C227.624 201.242 226.553 200.911 225.186 200.911C223.443 200.911 222.116 201.566 221.204 202.876C220.293 204.187 219.831 206.135 219.82 208.721V210.311C219.82 212.92 220.315 214.891 221.307 216.224C222.298 217.557 223.75 218.223 225.665 218.223C227.59 218.223 228.963 217.813 229.783 216.993V212.703H225.118V208.926H234.91V218.855ZM261.844 216.873H252.854L251.146 222H245.694L254.957 197.117H259.708L269.021 222H263.57L261.844 216.873ZM254.239 212.72H260.459L257.332 203.406L254.239 212.72ZM82.0244 236.169L84.3486 237.519C83.3688 239.069 82.8618 240.641 82.8276 242.236V245.09H78.9141V242.526C78.9141 241.455 79.2103 240.316 79.8027 239.108C80.4066 237.889 81.1471 236.91 82.0244 236.169ZM87.8862 236.169L90.2104 237.519C89.2306 239.069 88.7236 240.641 88.6895 242.236V245.09H84.7759V242.526C84.7759 241.455 85.0721 240.316 85.6646 239.108C86.2684 237.889 87.009 236.91 87.8862 236.169ZM112.82 255.822L116.17 238.117H121.28L115.76 263H110.599L106.548 246.354L102.498 263H97.3369L91.8169 238.117H96.9268L100.293 255.788L104.395 238.117H108.736L112.82 255.822ZM137.361 257.873H128.372L126.663 263H121.211L130.474 238.117H135.225L144.539 263H139.087L137.361 257.873ZM129.756 253.72H135.977L132.85 244.406L129.756 253.72ZM154.725 256.831L160.364 238.117H166.072L157.408 263H152.059L143.428 238.117H149.119L154.725 256.831ZM183.401 252.216H173.558V258.881H185.11V263H168.431V238.117H185.076V242.27H173.558V248.2H183.401V252.216ZM189.451 245.756L187.127 244.406C188.107 242.868 188.614 241.279 188.648 239.638V236.75H192.579V239.399C192.579 240.424 192.294 241.535 191.724 242.731C191.154 243.928 190.397 244.936 189.451 245.756ZM195.381 245.756L193.057 244.406C194.037 242.868 194.544 241.279 194.578 239.638V236.75H198.509V239.399C198.509 240.424 198.224 241.535 197.654 242.731C197.085 243.928 196.327 244.936 195.381 245.756ZM231.595 251.123C231.595 253.572 231.162 255.72 230.296 257.565C229.43 259.411 228.188 260.835 226.57 261.838C224.964 262.84 223.118 263.342 221.033 263.342C218.971 263.342 217.131 262.846 215.513 261.855C213.895 260.864 212.642 259.451 211.753 257.617C210.865 255.771 210.415 253.652 210.403 251.259V250.029C210.403 247.579 210.842 245.426 211.719 243.569C212.608 241.7 213.855 240.271 215.462 239.279C217.08 238.277 218.925 237.775 220.999 237.775C223.073 237.775 224.913 238.277 226.519 239.279C228.137 240.271 229.384 241.7 230.262 243.569C231.15 245.426 231.595 247.574 231.595 250.012V251.123ZM226.399 249.995C226.399 247.386 225.932 245.403 224.998 244.047C224.064 242.692 222.731 242.014 220.999 242.014C219.279 242.014 217.951 242.686 217.017 244.03C216.083 245.363 215.61 247.323 215.599 249.909V251.123C215.599 253.663 216.066 255.634 217 257.036C217.934 258.437 219.279 259.138 221.033 259.138C222.754 259.138 224.075 258.465 224.998 257.121C225.921 255.765 226.388 253.794 226.399 251.208V249.995ZM250.291 252.832H240.447V263H235.32V238.117H251.521V242.27H240.447V248.696H250.291V252.832ZM263.211 263V238.117H271.927C274.946 238.117 277.236 238.698 278.797 239.86C280.358 241.011 281.138 242.703 281.138 244.936C281.138 246.155 280.825 247.232 280.198 248.166C279.572 249.089 278.7 249.767 277.583 250.2C278.86 250.519 279.862 251.162 280.591 252.131C281.332 253.099 281.702 254.284 281.702 255.686C281.702 258.078 280.939 259.89 279.412 261.12C277.885 262.351 275.709 262.977 272.884 263H263.211ZM268.338 252.165V258.881H272.73C273.938 258.881 274.878 258.597 275.55 258.027C276.233 257.446 276.575 256.648 276.575 255.634C276.575 253.356 275.396 252.199 273.038 252.165H268.338ZM268.338 248.542H272.132C274.718 248.496 276.011 247.465 276.011 245.449C276.011 244.321 275.681 243.512 275.02 243.022C274.371 242.521 273.34 242.27 271.927 242.27H268.338V248.542ZM290.691 258.881H301.578V263H285.564V238.117H290.691V258.881ZM309.986 263H304.859V238.117H309.986V263ZM334.988 263H329.861L319.881 246.628V263H314.754V238.117H319.881L329.878 254.523V238.117H334.988V263ZM347.259 253.02L344.593 255.891V263H339.466V238.117H344.593V249.396L346.849 246.303L353.189 238.117H359.495L350.66 249.174L359.751 263H353.65L347.259 253.02ZM374.585 256.472C374.585 255.503 374.244 254.763 373.56 254.25C372.876 253.726 371.646 253.179 369.869 252.609C368.091 252.028 366.684 251.459 365.647 250.9C362.822 249.374 361.409 247.317 361.409 244.731C361.409 243.387 361.785 242.19 362.537 241.142C363.3 240.083 364.389 239.257 365.801 238.664C367.225 238.072 368.82 237.775 370.586 237.775C372.364 237.775 373.947 238.1 375.337 238.75C376.727 239.388 377.804 240.293 378.567 241.467C379.342 242.64 379.729 243.973 379.729 245.466H374.603C374.603 244.326 374.244 243.444 373.526 242.817C372.808 242.179 371.8 241.86 370.501 241.86C369.248 241.86 368.274 242.128 367.579 242.663C366.884 243.187 366.536 243.882 366.536 244.748C366.536 245.557 366.941 246.235 367.75 246.782C368.57 247.329 369.772 247.841 371.355 248.32C374.272 249.197 376.397 250.285 377.73 251.584C379.063 252.883 379.729 254.501 379.729 256.438C379.729 258.591 378.915 260.283 377.286 261.513C375.656 262.732 373.463 263.342 370.706 263.342C368.792 263.342 367.049 262.994 365.477 262.299C363.904 261.593 362.702 260.63 361.871 259.411C361.05 258.192 360.64 256.779 360.64 255.173H365.784C365.784 257.919 367.425 259.292 370.706 259.292C371.925 259.292 372.876 259.047 373.56 258.557C374.244 258.055 374.585 257.36 374.585 256.472Z" fill="white"/>
<path d="M289.083 379.957C291.268 379.636 292.779 377.603 292.457 375.417L287.214 339.801C286.893 337.616 284.86 336.105 282.674 336.426C280.489 336.748 278.978 338.781 279.3 340.966L283.96 372.625L252.301 377.286C250.116 377.607 248.605 379.64 248.926 381.826C249.248 384.011 251.281 385.522 253.466 385.2L289.083 379.957ZM173.114 295.21L286.114 379.21L290.886 372.79L177.886 288.79L173.114 295.21Z" fill="#CA1B1B"/>
<rect width="350" height="163" transform="translate(686 47.25)" fill="#CA1B1B"/>
<path d="M726.952 78.52H719.33V99.25H714.203V78.52H706.684V74.3672H726.952V78.52ZM735.343 99.25H730.216V74.3672H735.343V99.25ZM746.811 74.3672L753.202 92.4141L759.56 74.3672H766.293V99.25H761.149V92.4482L761.662 80.7075L754.945 99.25H751.425L744.726 80.7246L745.238 92.4482V99.25H740.111V74.3672H746.811ZM785.741 88.4663H775.897V95.1313H787.45V99.25H770.771V74.3672H787.416V78.52H775.897V84.4502H785.741V88.4663ZM795.585 95.1313H806.471V99.25H790.458V74.3672H795.585V95.1313ZM814.879 99.25H809.752V74.3672H814.879V99.25ZM839.882 99.25H834.755L824.774 82.8779V99.25H819.647V74.3672H824.774L834.772 90.7734V74.3672H839.882V99.25ZM859.33 88.4663H849.486V95.1313H861.039V99.25H844.359V74.3672H861.005V78.52H849.486V84.4502H859.33V88.4663ZM892.143 92.0723L895.492 74.3672H900.602L895.082 99.25H889.921L885.871 82.6045L881.82 99.25H876.659L871.139 74.3672H876.249L879.616 92.0381L883.717 74.3672H888.058L892.143 92.0723ZM908.839 99.25H903.712V74.3672H908.839V99.25ZM931.825 78.52H924.203V99.25H919.076V78.52H911.557V74.3672H931.825V78.52ZM955.016 99.25H949.889V88.5859H939.892V99.25H934.765V74.3672H939.892V84.4502H949.889V74.3672H955.016V99.25ZM727.602 133.072L730.951 115.367H736.061L730.541 140.25H725.38L721.33 123.604L717.279 140.25H712.118L706.598 115.367H711.708L715.075 133.038L719.176 115.367H723.517L727.602 133.072ZM753.817 129.466H743.974V136.131H755.526V140.25H738.847V115.367H755.492V119.52H743.974V125.45H753.817V129.466ZM773.505 129.466H763.661V136.131H775.214V140.25H758.534V115.367H775.18V119.52H763.661V125.45H773.505V129.466ZM786.015 130.27L783.349 133.141V140.25H778.222V115.367H783.349V126.646L785.604 123.553L791.945 115.367H798.251L789.416 126.424L798.507 140.25H792.406L786.015 130.27ZM713.349 172.483V181.25H708.222V156.367H717.929C719.797 156.367 721.438 156.709 722.851 157.393C724.275 158.076 725.368 159.05 726.132 160.315C726.895 161.568 727.277 162.998 727.277 164.604C727.277 167.043 726.439 168.968 724.765 170.381C723.101 171.782 720.794 172.483 717.843 172.483H713.349ZM713.349 168.33H717.929C719.285 168.33 720.316 168.011 721.022 167.373C721.74 166.735 722.099 165.824 722.099 164.639C722.099 163.42 721.74 162.434 721.022 161.682C720.304 160.93 719.313 160.543 718.048 160.52H713.349V168.33ZM740.026 172.141H735.941V181.25H730.814V156.367H740.06C743 156.367 745.267 157.022 746.862 158.333C748.457 159.643 749.254 161.494 749.254 163.887C749.254 165.584 748.884 167.003 748.144 168.142C747.414 169.27 746.304 170.17 744.811 170.842L750.194 181.011V181.25H744.691L740.026 172.141ZM735.941 167.988H740.077C741.365 167.988 742.361 167.664 743.068 167.014C743.774 166.353 744.127 165.448 744.127 164.297C744.127 163.123 743.791 162.201 743.119 161.528C742.458 160.856 741.439 160.52 740.06 160.52H735.941V167.988ZM773.607 169.373C773.607 171.822 773.174 173.97 772.309 175.815C771.443 177.661 770.201 179.085 768.583 180.088C766.977 181.09 765.131 181.592 763.046 181.592C760.984 181.592 759.144 181.096 757.526 180.105C755.908 179.114 754.655 177.701 753.766 175.867C752.877 174.021 752.427 171.902 752.416 169.509V168.279C752.416 165.829 752.855 163.676 753.732 161.819C754.621 159.95 755.868 158.521 757.475 157.529C759.092 156.527 760.938 156.025 763.012 156.025C765.085 156.025 766.925 156.527 768.532 157.529C770.15 158.521 771.397 159.95 772.274 161.819C773.163 163.676 773.607 165.824 773.607 168.262V169.373ZM768.412 168.245C768.412 165.636 767.945 163.653 767.011 162.297C766.076 160.942 764.743 160.264 763.012 160.264C761.291 160.264 759.964 160.936 759.03 162.28C758.096 163.613 757.623 165.573 757.611 168.159V169.373C757.611 171.913 758.078 173.884 759.013 175.286C759.947 176.687 761.291 177.388 763.046 177.388C764.766 177.388 766.088 176.715 767.011 175.371C767.934 174.015 768.401 172.044 768.412 169.458V168.245ZM797.021 178.105C796.098 179.211 794.793 180.071 793.107 180.686C791.421 181.29 789.552 181.592 787.501 181.592C785.348 181.592 783.457 181.125 781.828 180.19C780.21 179.245 778.957 177.878 778.068 176.089C777.191 174.3 776.741 172.198 776.718 169.783V168.091C776.718 165.607 777.134 163.459 777.965 161.648C778.808 159.825 780.016 158.435 781.588 157.478C783.172 156.51 785.023 156.025 787.143 156.025C790.093 156.025 792.401 156.732 794.064 158.145C795.727 159.546 796.713 161.591 797.021 164.28H792.03C791.802 162.856 791.295 161.813 790.509 161.152C789.735 160.492 788.664 160.161 787.296 160.161C785.553 160.161 784.226 160.816 783.314 162.126C782.403 163.437 781.942 165.385 781.93 167.971V169.561C781.93 172.17 782.426 174.141 783.417 175.474C784.408 176.807 785.861 177.473 787.775 177.473C789.7 177.473 791.073 177.063 791.894 176.243V171.953H787.228V168.176H797.021V178.105ZM810.402 172.141H806.317V181.25H801.19V156.367H810.436C813.375 156.367 815.643 157.022 817.238 158.333C818.833 159.643 819.63 161.494 819.63 163.887C819.63 165.584 819.26 167.003 818.52 168.142C817.79 169.27 816.68 170.17 815.187 170.842L820.57 181.011V181.25H815.067L810.402 172.141ZM806.317 167.988H810.453C811.741 167.988 812.737 167.664 813.444 167.014C814.15 166.353 814.503 165.448 814.503 164.297C814.503 163.123 814.167 162.201 813.495 161.528C812.834 160.856 811.815 160.52 810.436 160.52H806.317V167.988ZM838.515 170.466H828.671V177.131H840.224V181.25H823.544V156.367H840.189V160.52H828.671V166.45H838.515V170.466ZM856.134 174.722C856.134 173.753 855.792 173.013 855.109 172.5C854.425 171.976 853.195 171.429 851.417 170.859C849.64 170.278 848.233 169.709 847.196 169.15C844.371 167.624 842.958 165.567 842.958 162.981C842.958 161.637 843.334 160.44 844.086 159.392C844.849 158.333 845.937 157.507 847.35 156.914C848.774 156.322 850.369 156.025 852.135 156.025C853.913 156.025 855.496 156.35 856.886 157C858.276 157.638 859.353 158.543 860.116 159.717C860.891 160.89 861.278 162.223 861.278 163.716H856.151C856.151 162.576 855.792 161.694 855.075 161.067C854.357 160.429 853.349 160.11 852.05 160.11C850.797 160.11 849.822 160.378 849.127 160.913C848.432 161.437 848.085 162.132 848.085 162.998C848.085 163.807 848.489 164.485 849.298 165.032C850.119 165.579 851.321 166.091 852.904 166.57C855.821 167.447 857.946 168.535 859.279 169.834C860.612 171.133 861.278 172.751 861.278 174.688C861.278 176.841 860.464 178.533 858.834 179.763C857.205 180.982 855.012 181.592 852.255 181.592C850.341 181.592 848.598 181.244 847.025 180.549C845.453 179.843 844.251 178.88 843.419 177.661C842.599 176.442 842.189 175.029 842.189 173.423H847.333C847.333 176.169 848.974 177.542 852.255 177.542C853.474 177.542 854.425 177.297 855.109 176.807C855.792 176.305 856.134 175.61 856.134 174.722ZM877.667 174.722C877.667 173.753 877.326 173.013 876.642 172.5C875.958 171.976 874.728 171.429 872.951 170.859C871.173 170.278 869.766 169.709 868.729 169.15C865.904 167.624 864.491 165.567 864.491 162.981C864.491 161.637 864.867 160.44 865.619 159.392C866.382 158.333 867.471 157.507 868.883 156.914C870.307 156.322 871.903 156.025 873.668 156.025C875.446 156.025 877.029 156.35 878.419 157C879.809 157.638 880.886 158.543 881.649 159.717C882.424 160.89 882.812 162.223 882.812 163.716H877.685C877.685 162.576 877.326 161.694 876.608 161.067C875.89 160.429 874.882 160.11 873.583 160.11C872.33 160.11 871.356 160.378 870.661 160.913C869.966 161.437 869.618 162.132 869.618 162.998C869.618 163.807 870.023 164.485 870.832 165.032C871.652 165.579 872.854 166.091 874.438 166.57C877.354 167.447 879.479 168.535 880.812 169.834C882.145 171.133 882.812 172.751 882.812 174.688C882.812 176.841 881.997 178.533 880.368 179.763C878.738 180.982 876.545 181.592 873.788 181.592C871.874 181.592 870.131 181.244 868.559 180.549C866.986 179.843 865.784 178.88 864.953 177.661C864.132 176.442 863.722 175.029 863.722 173.423H868.866C868.866 176.169 870.507 177.542 873.788 177.542C875.007 177.542 875.958 177.297 876.642 176.807C877.326 176.305 877.667 175.61 877.667 174.722ZM891.75 181.25H886.623V156.367H891.75V181.25ZM916.957 169.373C916.957 171.822 916.524 173.97 915.658 175.815C914.792 177.661 913.55 179.085 911.933 180.088C910.326 181.09 908.48 181.592 906.396 181.592C904.333 181.592 902.493 181.096 900.875 180.105C899.258 179.114 898.004 177.701 897.116 175.867C896.227 174.021 895.777 171.902 895.766 169.509V168.279C895.766 165.829 896.204 163.676 897.082 161.819C897.97 159.95 899.218 158.521 900.824 157.529C902.442 156.527 904.288 156.025 906.361 156.025C908.435 156.025 910.275 156.527 911.881 157.529C913.499 158.521 914.747 159.95 915.624 161.819C916.513 163.676 916.957 165.824 916.957 168.262V169.373ZM911.762 168.245C911.762 165.636 911.295 163.653 910.36 162.297C909.426 160.942 908.093 160.264 906.361 160.264C904.641 160.264 903.314 160.936 902.379 162.28C901.445 163.613 900.972 165.573 900.961 168.159V169.373C900.961 171.913 901.428 173.884 902.362 175.286C903.297 176.687 904.641 177.388 906.396 177.388C908.116 177.388 909.438 176.715 910.36 175.371C911.283 174.015 911.75 172.044 911.762 169.458V168.245ZM940.917 181.25H935.79L925.81 164.878V181.25H920.683V156.367H925.81L935.807 172.773V156.367H940.917V181.25Z" fill="white"/>
<path d="M830.016 334.185C830.808 336.247 833.122 337.276 835.185 336.484L868.79 323.573C870.852 322.781 871.882 320.467 871.089 318.405C870.297 316.343 867.983 315.313 865.921 316.106L836.049 327.582L824.573 297.71C823.781 295.648 821.467 294.618 819.405 295.411C817.343 296.203 816.313 298.517 817.106 300.579L830.016 334.185ZM884.595 208.624L830.095 331.124L837.405 334.376L891.905 211.876L884.595 208.624Z" fill="#CA1B1B"/>
<path fill-rule="evenodd" clip-rule="evenodd" d="M1353.04 377.955C1349.78 381.878 1354.73 387.137 1364.41 390.046C1375.29 393.315 1399.1 396.316 1436 399.069C1440.12 399.376 1450.25 400.487 1458.5 401.537C1516.49 408.914 1547.59 410.625 1623 410.583C1654.61 410.565 1698.09 409.846 1724 408.912C1799.18 406.202 1824.89 408.99 1847.18 422.264C1850.43 424.202 1854.73 427.634 1856.72 429.893C1859.44 432.965 1859.89 433.244 1858.51 430.999C1856.32 427.467 1855.38 426.643 1847.64 421.474C1828.27 408.532 1795.19 404.12 1734.07 406.327C1619.85 410.451 1536.62 408.282 1471 399.471C1442.55 395.65 1433.33 394.563 1420.5 393.52C1391.16 391.132 1379.02 389.416 1366 385.815C1359.05 383.893 1356 381.976 1356 379.535C1356 376.976 1354.51 376.181 1353.04 377.955ZM1971.42 409.999C1971.65 411.649 1972.54 419.074 1973.41 426.499C1974.28 433.924 1975.43 443.374 1975.97 447.499C1976.51 451.624 1977.66 462.424 1978.52 471.499C1980.54 492.544 1985.14 531.603 1989.61 565.499C1994.55 603.022 1997.57 629.824 2000.4 661.499C2004.96 712.403 2005.38 720.67 2005.44 761.499C2005.49 798.86 2005.32 803.18 2003.2 817.231C2001.93 825.609 2000.25 834.961 1999.45 838.012C1997.9 843.97 1994.68 850.964 1993 852C1991.05 853.206 1993.06 854.534 1995.15 853.417C2000.04 850.804 2005.52 832.019 2009.13 805.499C2010.76 793.563 2010.77 743.473 2009.15 723.999C2008.51 716.299 2007.29 701.224 2006.44 690.499C2003.36 651.477 1998.62 608.366 1993.04 568.499C1992 561.074 1990.43 549.374 1989.55 542.499C1988.66 535.624 1987.52 527.524 1987 524.499C1986.08 519.061 1981.9 484.416 1980.07 466.999C1978.4 451.054 1973.02 413.092 1971.99 409.999L1971 406.999L1971.42 409.999ZM1291.6 458.249C1287.9 479.255 1287.76 483.095 1286.99 578.499C1286.58 630.474 1285.69 696.399 1285.03 724.999C1283.76 779.715 1284.02 791.823 1286.61 800.548C1288.16 805.765 1293.44 812.499 1295.98 812.499C1297.56 812.499 1303.41 806.575 1302.61 805.777C1302.26 805.429 1300.71 806.362 1299.16 807.851L1296.33 810.557L1293.68 807.904C1287.37 801.595 1286.55 790.932 1288.43 739.508C1291.19 664.173 1292.03 617.432 1291.84 548.999C1291.72 503.419 1292.03 479.282 1292.8 473.499C1295.41 454.129 1295.39 454.499 1293.77 454.499C1292.81 454.499 1292.02 455.865 1291.6 458.249ZM1849.1 490.145C1843.56 492.559 1825.26 496.344 1813.99 497.406C1801.72 498.562 1743.45 497.425 1678.5 494.762C1619.16 492.329 1541 492.36 1521.5 494.824C1500.81 497.438 1486.15 499.892 1460.5 505.032C1447.85 507.567 1432.17 510.239 1425.65 510.971C1413.91 512.289 1411.11 513.248 1412.49 515.481C1412.98 516.279 1415.26 516.432 1419.85 515.975C1425.78 515.386 1468.92 506.754 1484.5 503.04C1492.06 501.239 1514.81 497.923 1530.5 496.337C1549.11 494.456 1628.5 494.682 1674 496.745C1727.22 499.158 1801.33 500.122 1815.35 498.583C1827.07 497.297 1846.94 492.671 1851.61 490.142C1855.25 488.174 1853.61 488.176 1849.1 490.145ZM1732.64 522.193C1732.29 522.545 1732 523.602 1732 524.543C1732 525.484 1731.36 526.784 1730.58 527.432C1729.06 528.698 1728.9 528.226 1735.08 540.999C1737.56 546.129 1739.52 547.206 1741.28 544.412C1742.93 541.794 1741.13 535.646 1737.54 531.672C1735 528.865 1734.31 527.33 1734.69 525.349C1735.17 522.81 1733.93 520.899 1732.64 522.193ZM1737.38 537.051C1737.72 537.941 1737.56 538.342 1736.99 537.992C1736.45 537.656 1736 536.958 1736 536.44C1736 535.002 1736.72 535.319 1737.38 537.051ZM1660 546.916C1660 548.094 1658.99 548.499 1656.04 548.499C1650.81 548.499 1647.86 551.457 1648.68 555.882C1649.8 561.895 1653 561.938 1653 555.94C1653 552.61 1653.13 552.499 1656.88 552.499C1661.03 552.499 1663.38 550.681 1662.83 547.88C1662.4 545.66 1660 544.842 1660 546.916ZM1496.07 601.134C1494.93 602.583 1493.98 604.271 1493.96 604.884C1493.94 605.497 1493.25 604.761 1492.43 603.249C1491.61 601.737 1490.29 600.499 1489.51 600.499C1486.24 600.499 1470.69 609.657 1459.42 618.218C1446.13 628.305 1444.23 630.133 1445.59 631.475C1446.09 631.966 1450.73 633.097 1455.89 633.989C1466.72 635.859 1472.87 638.664 1480 644.999C1482.79 647.474 1485.96 649.499 1487.06 649.499C1490.02 649.499 1490.99 645.774 1492.08 630.047C1493.52 609.321 1496.7 598.663 1501.09 599.811C1502.14 600.087 1502.75 599.904 1502.44 599.406C1501.36 597.65 1498.12 598.528 1496.07 601.134ZM1485.48 614.929C1482.8 626.996 1485.82 629.34 1489.44 617.999L1491.03 612.999L1490.44 617.499C1490.11 619.974 1489.29 627.271 1488.62 633.715C1487.95 640.158 1487.15 645.683 1486.84 645.992C1486.53 646.301 1484.08 644.579 1481.39 642.166C1475.32 636.715 1468.31 633.123 1460.5 631.46C1457.2 630.758 1454.14 629.87 1453.7 629.488C1452.74 628.656 1473.64 613.303 1481.12 609.346C1484.02 607.812 1486.57 606.733 1486.78 606.948C1487 607.162 1486.41 610.754 1485.48 614.929ZM1500.25 625.99C1498.46 626.767 1497 627.537 1497 627.701C1497 627.865 1502.06 628.032 1508.25 628.073C1525.4 628.187 1540.5 633.065 1556.19 643.566C1569.26 652.314 1587.88 673.862 1599.76 693.999C1604.89 702.697 1609.41 713.928 1612.8 726.414C1615.12 734.978 1615.39 737.756 1615.35 752.499C1615.3 766.167 1614.92 770.372 1613.13 776.999C1608.01 795.949 1597.67 811.833 1577 832.506C1558.13 851.383 1551.83 855.157 1534.72 857.811C1529.67 858.595 1526.47 859.578 1526.19 860.437C1525.81 861.559 1527.18 861.688 1533.72 861.143C1553.05 859.531 1566.67 851.553 1585.79 830.653C1610.48 803.66 1619.06 785.418 1620.66 756.506C1622.27 727.25 1610.39 696.691 1585.46 665.999C1571.33 648.589 1552.62 634.925 1535 629.148C1521.73 624.796 1506.24 623.388 1500.25 625.99ZM1447.03 674.125C1443.17 677.378 1440.84 681.862 1436.87 693.742C1431.79 708.914 1424.03 721.907 1418.87 723.854C1415.23 725.227 1415.12 727.499 1418.69 727.499C1425.49 727.499 1437.33 709.5 1442.05 691.999C1446.8 674.395 1452.05 670.954 1460.91 679.652C1466.44 685.09 1469.51 692.757 1469.45 700.999C1469.42 704.849 1469.03 709.011 1468.58 710.249C1467.32 713.73 1471.33 713.269 1472.93 709.749C1475.91 703.191 1483.57 692.167 1487.64 688.588C1493.97 683.013 1498.47 681.14 1506.6 680.689C1514.86 680.231 1522.91 682.915 1530.42 688.633C1537.02 693.662 1540.27 699.078 1539.54 703.841C1537.78 715.255 1525.88 728.499 1517.38 728.499C1514.6 728.499 1514 728.03 1513.04 725.123C1512.43 723.267 1510.4 720.004 1508.54 717.873C1505.25 714.106 1505.08 714.04 1502.41 715.499C1500.9 716.324 1499.18 718.429 1498.58 720.177C1497.07 724.611 1496.6 724.859 1493.09 723.047C1490.56 721.735 1490 720.837 1490 718.045C1490 714.415 1487.75 711.275 1485.7 712.059C1483.6 712.865 1473.28 734.315 1468.58 747.65C1462.06 766.126 1459.2 777.578 1457.97 790.203C1456.95 800.569 1457.01 801.74 1458.84 805.867C1462.01 813.04 1463.75 813.369 1473.34 808.622C1477.83 806.401 1483.66 804.054 1486.31 803.407C1499.92 800.08 1515.63 807.102 1519.42 818.207C1522.93 828.526 1520.3 843.049 1513.71 849.634C1509.34 854.009 1504.54 855.811 1497.37 855.779C1483.85 855.719 1473.28 847.003 1464.84 828.979C1461.74 822.354 1459.22 820.207 1460.46 825.249C1460.83 826.762 1462.73 831.34 1464.69 835.424C1469.55 845.577 1478.31 854.441 1486.5 857.487C1503.83 863.934 1518.83 857.148 1523.65 840.683C1529.48 820.72 1519.97 803.861 1500.38 799.473C1493.61 797.954 1483.58 799.739 1473.81 804.205C1464.12 808.636 1462.82 808.223 1461.8 800.392C1460.7 791.984 1463.42 778.058 1470.07 758.058C1475.79 740.831 1483.52 722.499 1485.05 722.499C1485.44 722.499 1486.01 723.439 1486.31 724.589C1486.71 726.125 1487.38 726.514 1488.81 726.058C1489.89 725.716 1491.99 725.995 1493.49 726.676C1495.89 727.769 1496.14 728.331 1495.67 731.457C1492.07 755.178 1490.91 765.224 1490.36 777.506C1489.77 790.613 1489.88 792.153 1491.47 793.473C1493.04 794.778 1493.42 794.693 1495.06 792.673C1498.33 788.639 1498.67 779.577 1496.37 758.204C1495.76 752.515 1498.55 730.509 1499.89 730.491C1500.22 730.486 1503.53 731.26 1507.24 732.21L1513.99 733.938L1515.6 739.469C1520.63 756.638 1522.89 787.465 1519.74 795.999C1518.64 798.967 1517.73 799.98 1516.18 799.925C1515.04 799.884 1514.33 800.222 1514.61 800.675C1514.89 801.128 1516.02 801.499 1517.11 801.499C1519.9 801.499 1522.8 794.531 1523.6 785.903C1524.53 775.837 1521.37 750.173 1517.45 735.999C1516.99 734.324 1517.74 733.7 1522.09 732.158C1536.46 727.06 1547.35 706.809 1541.65 695.78C1539.2 691.047 1530.35 683.559 1523.22 680.191C1517.15 677.319 1515.59 677.013 1507 677.006C1498.97 677 1496.83 677.358 1493.15 679.32C1487.29 682.446 1480.8 688.577 1476.88 694.682L1473.66 699.712L1472.3 694.402C1470.33 686.733 1467.11 680.835 1462.73 676.875C1456.06 670.848 1451.81 670.104 1447.03 674.125ZM1507.91 720.368C1509.03 721.947 1510.4 724.422 1510.95 725.868C1511.84 728.221 1511.72 728.498 1509.72 728.493C1508.5 728.49 1505.81 728.018 1503.74 727.445C1500.32 726.494 1500.04 726.161 1500.63 723.7C1502.27 716.853 1504.63 715.77 1507.91 720.368ZM1402.53 801.249C1400.55 804.961 1397.41 811.824 1395.54 816.499C1377.58 861.579 1370.15 880.556 1367.02 889.341L1363.33 899.683L1324.41 899.92C1282.4 900.177 1271.21 901.213 1248.68 906.929C1234.99 910.4 1219 917.335 1219 919.797C1219 922.421 1222.81 921.754 1234.98 916.992C1246.01 912.681 1260.38 909.296 1278 906.861C1287.87 905.497 1297.81 905.134 1325.24 905.136C1344.34 905.137 1360.25 905.415 1360.59 905.753C1360.93 906.092 1360.42 908.761 1359.47 911.684C1355.48 923.859 1337.23 972.661 1328.45 994.618C1319.17 1017.8 1318 1021.76 1320 1023C1320.57 1023.35 1321 1022.51 1321 1021.06C1321 1019.66 1323.03 1014 1325.51 1008.49C1334.7 988.025 1351.94 943.792 1362.06 914.667L1365.31 905.335L1381.4 905.905C1390.26 906.218 1407.85 906.745 1420.5 907.075C1433.15 907.406 1443.7 907.877 1443.95 908.122C1444.74 908.905 1440.09 932.337 1435.03 952.999C1432.34 963.999 1428.95 977.887 1427.49 983.861C1426.03 989.835 1421.94 1003.51 1418.4 1014.26C1414.86 1025 1412.11 1033.94 1412.28 1034.11C1412.82 1034.66 1419.94 1016.19 1425.15 1000.7C1430.31 985.358 1443.89 933.819 1447.01 917.684C1448.01 912.548 1449.12 908.043 1449.49 907.672C1450.69 906.472 1540.7 906.31 1569.08 907.457C1584.25 908.071 1600 908.796 1604.08 909.07C1617.22 909.952 1638.02 911.515 1657 913.047C1802.03 924.754 1886.84 925.364 1927.64 914.994C1939.67 911.934 1951.85 906.06 1953.94 902.306C1956.21 898.242 1954.51 897.835 1950.8 901.552C1946.38 905.969 1937.28 909.953 1923.71 913.41C1905.64 918.014 1890.89 918.999 1840 918.999C1788.44 918.999 1752.8 917.357 1687.5 911.973C1570.66 902.341 1575.06 902.588 1507.27 901.826L1450.04 901.183L1450.48 899.091C1450.98 896.769 1452.8 886.875 1455.93 869.499C1460.08 846.503 1461.93 828.499 1460.14 828.499C1459.2 828.499 1457.92 834.435 1455.51 849.999C1453.96 860.017 1445.92 900.649 1445.34 901.397C1444.91 901.955 1408.19 901.618 1385.73 900.849C1367.26 900.216 1366.97 900.173 1367.58 898.103C1367.92 896.946 1371.02 888.574 1374.47 879.499C1390.26 837.905 1399.1 815.261 1402.95 806.499C1405.25 801.274 1407.37 796.437 1407.67 795.749C1407.97 795.062 1407.75 794.499 1407.17 794.499C1406.6 794.499 1404.51 797.537 1402.53 801.249Z" fill="black"/>
<rect width="350" height="204" transform="translate(1397 67.5)" fill="#CA1B1B"/>
<path d="M1439.47 119.5H1434.35V108.836H1424.35V119.5H1419.22V94.6172H1424.35V104.7H1434.35V94.6172H1439.47V119.5ZM1458.32 114.373H1449.33L1447.62 119.5H1442.17L1451.44 94.6172H1456.19L1465.5 119.5H1460.05L1458.32 114.373ZM1450.72 110.22H1456.94L1453.81 100.906L1450.72 110.22ZM1488.06 119.5H1482.93L1472.95 103.128V119.5H1467.83V94.6172H1472.95L1482.95 111.023V94.6172H1488.06V119.5ZM1492.54 119.5V94.6172H1500.19C1502.38 94.6172 1504.33 95.1128 1506.06 96.104C1507.79 97.0838 1509.14 98.4852 1510.11 100.308C1511.07 102.12 1511.56 104.182 1511.56 106.495V107.64C1511.56 109.952 1511.08 112.009 1510.12 113.809C1509.18 115.609 1507.84 117.005 1506.11 117.996C1504.37 118.987 1502.42 119.489 1500.24 119.5H1492.54ZM1497.66 98.77V115.381H1500.14C1502.15 115.381 1503.68 114.726 1504.74 113.416C1505.8 112.106 1506.34 110.232 1506.36 107.793V106.478C1506.36 103.948 1505.84 102.034 1504.79 100.735C1503.74 99.4251 1502.21 98.77 1500.19 98.77H1497.66ZM1526.82 92.6689L1529.14 94.019C1528.16 95.5685 1527.66 97.1408 1527.62 98.7358V101.59H1523.71V99.0264C1523.71 97.9554 1524.01 96.8161 1524.6 95.6084C1525.2 94.3893 1525.94 93.4095 1526.82 92.6689ZM1532.68 92.6689L1535.01 94.019C1534.03 95.5685 1533.52 97.1408 1533.48 98.7358V101.59H1529.57V99.0264C1529.57 97.9554 1529.87 96.8161 1530.46 95.6084C1531.06 94.3893 1531.8 93.4095 1532.68 92.6689ZM1538.24 119.5V94.6172H1545.89C1548.08 94.6172 1550.03 95.1128 1551.75 96.104C1553.49 97.0838 1554.84 98.4852 1555.8 100.308C1556.77 102.12 1557.26 104.182 1557.26 106.495V107.64C1557.26 109.952 1556.78 112.009 1555.82 113.809C1554.88 115.609 1553.54 117.005 1551.8 117.996C1550.07 118.987 1548.12 119.489 1545.94 119.5H1538.24ZM1543.36 98.77V115.381H1545.84C1547.85 115.381 1549.38 114.726 1550.44 113.416C1551.5 112.106 1552.04 110.232 1552.06 107.793V106.478C1552.06 103.948 1551.54 102.034 1550.49 100.735C1549.44 99.4251 1547.91 98.77 1545.89 98.77H1543.36ZM1566.45 119.5H1561.32V94.6172H1566.45V119.5ZM1585.57 114.373H1576.58L1574.88 119.5H1569.42L1578.69 94.6172H1583.44L1592.75 119.5H1587.3L1585.57 114.373ZM1577.97 110.22H1584.19L1581.06 100.906L1577.97 110.22ZM1600.2 115.381H1611.09V119.5H1595.08V94.6172H1600.2V115.381ZM1626.95 112.972C1626.95 112.003 1626.61 111.263 1625.92 110.75C1625.24 110.226 1624.01 109.679 1622.23 109.109C1620.45 108.528 1619.05 107.959 1618.01 107.4C1615.19 105.874 1613.77 103.817 1613.77 101.231C1613.77 99.8866 1614.15 98.6903 1614.9 97.6421C1615.66 96.5825 1616.75 95.7565 1618.16 95.1641C1619.59 94.5716 1621.18 94.2754 1622.95 94.2754C1624.73 94.2754 1626.31 94.6001 1627.7 95.2495C1629.09 95.8875 1630.17 96.7933 1630.93 97.9668C1631.71 99.1403 1632.09 100.473 1632.09 101.966H1626.97C1626.97 100.826 1626.61 99.9435 1625.89 99.3169C1625.17 98.6789 1624.16 98.3599 1622.86 98.3599C1621.61 98.3599 1620.64 98.6276 1619.94 99.1631C1619.25 99.6872 1618.9 100.382 1618.9 101.248C1618.9 102.057 1619.3 102.735 1620.11 103.282C1620.93 103.829 1622.14 104.341 1623.72 104.82C1626.64 105.697 1628.76 106.785 1630.09 108.084C1631.43 109.383 1632.09 111.001 1632.09 112.938C1632.09 115.091 1631.28 116.783 1629.65 118.013C1628.02 119.232 1625.83 119.842 1623.07 119.842C1621.16 119.842 1619.41 119.494 1617.84 118.799C1616.27 118.093 1615.07 117.13 1614.23 115.911C1613.41 114.692 1613 113.279 1613 111.673H1618.15C1618.15 114.419 1619.79 115.792 1623.07 115.792C1624.29 115.792 1625.24 115.547 1625.92 115.057C1626.61 114.555 1626.95 113.86 1626.95 112.972ZM1636.91 102.256L1634.59 100.906C1635.57 99.3682 1636.07 97.7788 1636.11 96.1382V93.25H1640.04V95.8989C1640.04 96.9243 1639.75 98.0352 1639.19 99.2314C1638.62 100.428 1637.86 101.436 1636.91 102.256ZM1642.84 102.256L1640.52 100.906C1641.5 99.3682 1642 97.7788 1642.04 96.1382V93.25H1645.97V95.8989C1645.97 96.9243 1645.68 98.0352 1645.12 99.2314C1644.55 100.428 1643.79 101.436 1642.84 102.256ZM1438.6 153.322L1441.95 135.617H1447.06L1441.54 160.5H1436.38L1432.33 143.854L1428.28 160.5H1423.12L1417.6 135.617H1422.71L1426.07 153.288L1430.18 135.617H1434.52L1438.6 153.322ZM1455.3 160.5H1450.17V135.617H1455.3V160.5ZM1478.28 139.77H1470.66V160.5H1465.54V139.77H1458.02V135.617H1478.28V139.77ZM1501.48 160.5H1496.35V149.836H1486.35V160.5H1481.22V135.617H1486.35V145.7H1496.35V135.617H1501.48V160.5ZM1535.12 148.623C1535.12 151.072 1534.69 153.22 1533.83 155.065C1532.96 156.911 1531.72 158.335 1530.1 159.338C1528.49 160.34 1526.65 160.842 1524.56 160.842C1522.5 160.842 1520.66 160.346 1519.04 159.355C1517.43 158.364 1516.17 156.951 1515.28 155.117C1514.4 153.271 1513.94 151.152 1513.93 148.759V147.529C1513.93 145.079 1514.37 142.926 1515.25 141.069C1516.14 139.2 1517.39 137.771 1518.99 136.779C1520.61 135.777 1522.46 135.275 1524.53 135.275C1526.6 135.275 1528.44 135.777 1530.05 136.779C1531.67 137.771 1532.91 139.2 1533.79 141.069C1534.68 142.926 1535.12 145.074 1535.12 147.512V148.623ZM1529.93 147.495C1529.93 144.886 1529.46 142.903 1528.53 141.547C1527.59 140.192 1526.26 139.514 1524.53 139.514C1522.81 139.514 1521.48 140.186 1520.55 141.53C1519.61 142.863 1519.14 144.823 1519.13 147.409V148.623C1519.13 151.163 1519.6 153.134 1520.53 154.536C1521.46 155.937 1522.81 156.638 1524.56 156.638C1526.28 156.638 1527.61 155.965 1528.53 154.621C1529.45 153.265 1529.92 151.294 1529.93 148.708V147.495ZM1538.85 160.5V135.617H1547.57C1550.59 135.617 1552.88 136.198 1554.44 137.36C1556 138.511 1556.78 140.203 1556.78 142.436C1556.78 143.655 1556.46 144.732 1555.84 145.666C1555.21 146.589 1554.34 147.267 1553.22 147.7C1554.5 148.019 1555.5 148.662 1556.23 149.631C1556.97 150.599 1557.34 151.784 1557.34 153.186C1557.34 155.578 1556.58 157.39 1555.05 158.62C1553.53 159.851 1551.35 160.477 1548.52 160.5H1538.85ZM1543.98 149.665V156.381H1548.37C1549.58 156.381 1550.52 156.097 1551.19 155.527C1551.87 154.946 1552.21 154.148 1552.21 153.134C1552.21 150.856 1551.04 149.699 1548.68 149.665H1543.98ZM1543.98 146.042H1547.77C1550.36 145.996 1551.65 144.965 1551.65 142.949C1551.65 141.821 1551.32 141.012 1550.66 140.522C1550.01 140.021 1548.98 139.77 1547.57 139.77H1543.98V146.042ZM1571.24 135.617H1576.36V152.844C1576.36 154.427 1576.01 155.829 1575.3 157.048C1574.61 158.256 1573.62 159.19 1572.35 159.851C1571.07 160.511 1569.63 160.842 1568.02 160.842C1565.39 160.842 1563.34 160.175 1561.87 158.842C1560.4 157.498 1559.67 155.601 1559.67 153.151H1564.83C1564.83 154.37 1565.08 155.271 1565.6 155.852C1566.11 156.433 1566.92 156.723 1568.02 156.723C1569 156.723 1569.78 156.387 1570.36 155.715C1570.95 155.043 1571.24 154.086 1571.24 152.844V135.617ZM1595.73 149.716H1585.88V156.381H1597.43V160.5H1580.75V135.617H1597.4V139.77H1585.88V145.7H1595.73V149.716ZM1619.98 152.211C1619.78 154.889 1618.79 156.997 1617 158.535C1615.23 160.073 1612.88 160.842 1609.96 160.842C1606.77 160.842 1604.26 159.771 1602.42 157.629C1600.6 155.476 1599.69 152.525 1599.69 148.776V147.255C1599.69 144.863 1600.11 142.755 1600.96 140.932C1601.8 139.109 1603 137.714 1604.56 136.745C1606.13 135.765 1607.96 135.275 1610.03 135.275C1612.9 135.275 1615.21 136.044 1616.97 137.583C1618.72 139.121 1619.74 141.28 1620.01 144.06H1614.88C1614.76 142.453 1614.31 141.291 1613.53 140.573C1612.77 139.844 1611.6 139.479 1610.03 139.479C1608.32 139.479 1607.04 140.095 1606.18 141.325C1605.34 142.544 1604.91 144.441 1604.89 147.016V148.896C1604.89 151.585 1605.29 153.55 1606.1 154.792C1606.92 156.034 1608.21 156.655 1609.96 156.655C1611.55 156.655 1612.72 156.296 1613.5 155.578C1614.29 154.849 1614.74 153.727 1614.85 152.211H1619.98ZM1641.56 139.77H1633.94V160.5H1628.81V139.77H1621.29V135.617H1641.56V139.77ZM1641.05 166.738L1638.47 165.388L1639.08 164.277C1639.85 162.887 1640.24 161.503 1640.26 160.124V156.296H1644.43L1644.41 159.714C1644.4 160.979 1644.08 162.255 1643.46 163.542C1642.83 164.829 1642.03 165.895 1641.05 166.738ZM1432.12 194.972C1432.12 194.003 1431.78 193.263 1431.1 192.75C1430.42 192.226 1429.19 191.679 1427.41 191.109C1425.63 190.528 1424.22 189.959 1423.19 189.4C1420.36 187.874 1418.95 185.817 1418.95 183.231C1418.95 181.887 1419.32 180.69 1420.08 179.642C1420.84 178.583 1421.93 177.757 1423.34 177.164C1424.76 176.572 1426.36 176.275 1428.13 176.275C1429.9 176.275 1431.49 176.6 1432.88 177.25C1434.27 177.888 1435.34 178.793 1436.11 179.967C1436.88 181.14 1437.27 182.473 1437.27 183.966H1432.14C1432.14 182.826 1431.78 181.944 1431.06 181.317C1430.35 180.679 1429.34 180.36 1428.04 180.36C1426.79 180.36 1425.81 180.628 1425.12 181.163C1424.42 181.687 1424.08 182.382 1424.08 183.248C1424.08 184.057 1424.48 184.735 1425.29 185.282C1426.11 185.829 1427.31 186.341 1428.89 186.82C1431.81 187.697 1433.94 188.785 1435.27 190.084C1436.6 191.383 1437.27 193.001 1437.27 194.938C1437.27 197.091 1436.45 198.783 1434.82 200.013C1433.2 201.232 1431 201.842 1428.25 201.842C1426.33 201.842 1424.59 201.494 1423.02 200.799C1421.44 200.093 1420.24 199.13 1419.41 197.911C1418.59 196.692 1418.18 195.279 1418.18 193.673H1423.32C1423.32 196.419 1424.96 197.792 1428.25 197.792C1429.46 197.792 1430.42 197.547 1431.1 197.057C1431.78 196.555 1432.12 195.86 1432.12 194.972ZM1460.29 193.211C1460.09 195.889 1459.1 197.997 1457.31 199.535C1455.54 201.073 1453.19 201.842 1450.27 201.842C1447.08 201.842 1444.57 200.771 1442.74 198.629C1440.91 196.476 1440 193.525 1440 189.776V188.255C1440 185.863 1440.42 183.755 1441.27 181.932C1442.11 180.109 1443.31 178.714 1444.87 177.745C1446.45 176.765 1448.27 176.275 1450.34 176.275C1453.21 176.275 1455.53 177.044 1457.28 178.583C1459.04 180.121 1460.05 182.28 1460.32 185.06H1455.2C1455.07 183.453 1454.62 182.291 1453.85 181.573C1453.08 180.844 1451.91 180.479 1450.34 180.479C1448.63 180.479 1447.35 181.095 1446.5 182.325C1445.65 183.544 1445.22 185.441 1445.2 188.016V189.896C1445.2 192.585 1445.6 194.55 1446.41 195.792C1447.23 197.034 1448.52 197.655 1450.27 197.655C1451.86 197.655 1453.04 197.296 1453.81 196.578C1454.6 195.849 1455.05 194.727 1455.16 193.211H1460.29ZM1472.87 192.391H1468.78V201.5H1463.66V176.617H1472.9C1475.84 176.617 1478.11 177.272 1479.7 178.583C1481.3 179.893 1482.1 181.744 1482.1 184.137C1482.1 185.834 1481.72 187.253 1480.98 188.392C1480.26 189.52 1479.14 190.42 1477.65 191.092L1483.04 201.261V201.5H1477.53L1472.87 192.391ZM1468.78 188.238H1472.92C1474.21 188.238 1475.2 187.914 1475.91 187.264C1476.62 186.603 1476.97 185.698 1476.97 184.547C1476.97 183.373 1476.63 182.451 1475.96 181.778C1475.3 181.106 1474.28 180.77 1472.9 180.77H1468.78V188.238ZM1504.84 176.617V193.006C1504.84 195.729 1503.99 197.883 1502.28 199.466C1500.58 201.05 1498.26 201.842 1495.31 201.842C1492.4 201.842 1490.09 201.073 1488.38 199.535C1486.68 197.997 1485.8 195.883 1485.77 193.194V176.617H1490.9V193.041C1490.9 194.67 1491.28 195.86 1492.06 196.612C1492.84 197.353 1493.93 197.723 1495.31 197.723C1498.19 197.723 1499.65 196.208 1499.7 193.177V176.617H1504.84ZM1509.05 201.5V176.617H1517.76C1520.78 176.617 1523.07 177.198 1524.63 178.36C1526.19 179.511 1526.97 181.203 1526.97 183.436C1526.97 184.655 1526.66 185.732 1526.03 186.666C1525.41 187.589 1524.53 188.267 1523.42 188.7C1524.69 189.019 1525.7 189.662 1526.43 190.631C1527.17 191.599 1527.54 192.784 1527.54 194.186C1527.54 196.578 1526.77 198.39 1525.25 199.62C1523.72 200.851 1521.54 201.477 1518.72 201.5H1509.05ZM1514.17 190.665V197.381H1518.56C1519.77 197.381 1520.71 197.097 1521.38 196.527C1522.07 195.946 1522.41 195.148 1522.41 194.134C1522.41 191.856 1521.23 190.699 1518.87 190.665H1514.17ZM1514.17 187.042H1517.97C1520.55 186.996 1521.85 185.965 1521.85 183.949C1521.85 182.821 1521.52 182.012 1520.85 181.522C1520.21 181.021 1519.17 180.77 1517.76 180.77H1514.17V187.042ZM1531.4 201.5V176.617H1540.12C1543.13 176.617 1545.42 177.198 1546.99 178.36C1548.55 179.511 1549.33 181.203 1549.33 183.436C1549.33 184.655 1549.01 185.732 1548.39 186.666C1547.76 187.589 1546.89 188.267 1545.77 188.7C1547.05 189.019 1548.05 189.662 1548.78 190.631C1549.52 191.599 1549.89 192.784 1549.89 194.186C1549.89 196.578 1549.13 198.39 1547.6 199.62C1546.07 200.851 1543.9 201.477 1541.07 201.5H1531.4ZM1536.53 190.665V197.381H1540.92C1542.13 197.381 1543.07 197.097 1543.74 196.527C1544.42 195.946 1544.76 195.148 1544.76 194.134C1544.76 191.856 1543.58 190.699 1541.23 190.665H1536.53ZM1536.53 187.042H1540.32C1542.91 186.996 1544.2 185.965 1544.2 183.949C1544.2 182.821 1543.87 182.012 1543.21 181.522C1542.56 181.021 1541.53 180.77 1540.12 180.77H1536.53V187.042ZM1559.2 201.5H1554.08V176.617H1559.2V201.5ZM1584.21 201.5H1579.08L1569.1 185.128V201.5H1563.97V176.617H1569.1L1579.1 193.023V176.617H1584.21V201.5ZM1608.37 198.355C1607.45 199.461 1606.14 200.321 1604.46 200.936C1602.77 201.54 1600.9 201.842 1598.85 201.842C1596.7 201.842 1594.81 201.375 1593.18 200.44C1591.56 199.495 1590.31 198.128 1589.42 196.339C1588.54 194.55 1588.09 192.448 1588.07 190.033V188.341C1588.07 185.857 1588.49 183.709 1589.32 181.898C1590.16 180.075 1591.37 178.685 1592.94 177.728C1594.52 176.76 1596.38 176.275 1598.49 176.275C1601.44 176.275 1603.75 176.982 1605.42 178.395C1607.08 179.796 1608.06 181.841 1608.37 184.53H1603.38C1603.15 183.106 1602.65 182.063 1601.86 181.402C1601.09 180.742 1600.02 180.411 1598.65 180.411C1596.9 180.411 1595.58 181.066 1594.67 182.376C1593.75 183.687 1593.29 185.635 1593.28 188.221V189.811C1593.28 192.42 1593.78 194.391 1594.77 195.724C1595.76 197.057 1597.21 197.723 1599.13 197.723C1601.05 197.723 1602.42 197.313 1603.25 196.493V192.203H1598.58V188.426H1608.37V198.355ZM1437.95 221.77H1430.33V242.5H1425.2V221.77H1417.68V217.617H1437.95V221.77ZM1446.34 242.5H1441.22V217.617H1446.34V242.5ZM1457.81 217.617L1464.2 235.664L1470.56 217.617H1477.29V242.5H1472.15V235.698L1472.66 223.958L1465.95 242.5H1462.42L1455.73 223.975L1456.24 235.698V242.5H1451.11V217.617H1457.81ZM1496.74 231.716H1486.9V238.381H1498.45V242.5H1481.77V217.617H1498.42V221.77H1486.9V227.7H1496.74V231.716ZM1506.58 238.381H1517.47V242.5H1501.46V217.617H1506.58V238.381ZM1525.88 242.5H1520.75V217.617H1525.88V242.5ZM1550.88 242.5H1545.75L1535.77 226.128V242.5H1530.65V217.617H1535.77L1545.77 234.023V217.617H1550.88V242.5ZM1570.33 231.716H1560.49V238.381H1572.04V242.5H1555.36V217.617H1572V221.77H1560.49V227.7H1570.33V231.716ZM1589.21 242.5H1584.09V217.617H1589.21V242.5ZM1614.22 242.5H1609.09L1599.11 226.128V242.5H1593.98V217.617H1599.11L1609.11 234.023V217.617H1614.22V242.5ZM1640.31 235.972C1640.31 235.003 1639.97 234.263 1639.29 233.75C1638.6 233.226 1637.37 232.679 1635.6 232.109C1633.82 231.528 1632.41 230.959 1631.38 230.4C1628.55 228.874 1627.14 226.817 1627.14 224.231C1627.14 222.887 1627.51 221.69 1628.26 220.642C1629.03 219.583 1630.12 218.757 1631.53 218.164C1632.95 217.572 1634.55 217.275 1636.31 217.275C1638.09 217.275 1639.67 217.6 1641.06 218.25C1642.45 218.888 1643.53 219.793 1644.29 220.967C1645.07 222.14 1645.46 223.473 1645.46 224.966H1640.33C1640.33 223.826 1639.97 222.944 1639.25 222.317C1638.54 221.679 1637.53 221.36 1636.23 221.36C1634.98 221.36 1634 221.628 1633.31 222.163C1632.61 222.687 1632.26 223.382 1632.26 224.248C1632.26 225.057 1632.67 225.735 1633.48 226.282C1634.3 226.829 1635.5 227.341 1637.08 227.82C1640 228.697 1642.12 229.785 1643.46 231.084C1644.79 232.383 1645.46 234.001 1645.46 235.938C1645.46 238.091 1644.64 239.783 1643.01 241.013C1641.38 242.232 1639.19 242.842 1636.43 242.842C1634.52 242.842 1632.78 242.494 1631.2 241.799C1629.63 241.093 1628.43 240.13 1627.6 238.911C1626.78 237.692 1626.37 236.279 1626.37 234.673H1631.51C1631.51 237.419 1633.15 238.792 1636.43 238.792C1637.65 238.792 1638.6 238.547 1639.29 238.057C1639.97 237.555 1640.31 236.86 1640.31 235.972ZM1657.52 228.828L1662.7 217.617H1668.31L1660.14 233.477V242.5H1654.92V233.477L1646.76 217.617H1652.38L1657.52 228.828ZM1690.81 242.5H1685.69L1675.71 226.128V242.5H1670.58V217.617H1675.71L1685.7 234.023V217.617H1690.81V242.5ZM1714.82 234.211C1714.63 236.889 1713.64 238.997 1711.85 240.535C1710.07 242.073 1707.73 242.842 1704.81 242.842C1701.62 242.842 1699.11 241.771 1697.27 239.629C1695.45 237.476 1694.54 234.525 1694.54 230.776V229.255C1694.54 226.863 1694.96 224.755 1695.8 222.932C1696.65 221.109 1697.85 219.714 1699.41 218.745C1700.98 217.765 1702.8 217.275 1704.88 217.275C1707.75 217.275 1710.06 218.044 1711.82 219.583C1713.57 221.121 1714.59 223.28 1714.86 226.06H1709.73C1709.61 224.453 1709.16 223.291 1708.38 222.573C1707.62 221.844 1706.45 221.479 1704.88 221.479C1703.17 221.479 1701.89 222.095 1701.03 223.325C1700.19 224.544 1699.76 226.441 1699.73 229.016V230.896C1699.73 233.585 1700.14 235.55 1700.95 236.792C1701.77 238.034 1703.06 238.655 1704.81 238.655C1706.39 238.655 1707.57 238.296 1708.35 237.578C1709.13 236.849 1709.58 235.727 1709.7 234.211H1714.82Z" fill="white"/>
<path d="M1514.31 605.312C1515.31 607.282 1517.72 608.067 1519.69 607.066L1551.78 590.755C1553.75 589.754 1554.53 587.346 1553.53 585.377C1552.53 583.408 1550.13 582.622 1548.16 583.623L1519.63 598.122L1505.13 569.595C1504.13 567.625 1501.72 566.84 1499.75 567.841C1497.78 568.842 1497 571.25 1498 573.219L1514.31 605.312ZM1622.32 270.26L1514.07 602.26L1521.68 604.74L1629.93 272.74L1622.32 270.26Z" fill="#CA1B1B"/>
</svg>
