<svg width="2124" height="1187" viewBox="0 0 2124 1187" fill="none" xmlns="http://www.w3.org/2000/svg">
<g clip-path="url(#clip0_4:8)">
<rect width="2124" height="1187" fill="white"/>
<path fill-rule="evenodd" clip-rule="evenodd" d="M884.648 174.334C855.683 179.494 815.566 193.987 815.566 199.292C815.566 201.078 815.862 200.987 823.002 196.995C831.623 192.176 850.506 185.921 870.361 181.309C890.788 176.564 917.742 175.942 932.583 179.874C951.581 184.909 963.931 193.66 969.741 206.203C974.53 216.545 973.856 234.329 968.03 251.327C965.503 258.695 961.228 269.325 958.529 274.95C954.566 283.209 952.697 285.563 948.825 287.182C946.187 288.284 942.564 290.903 940.773 293.001C936.762 297.703 930.05 300.681 923.464 300.681C920.725 300.681 918.485 301.303 918.485 302.064C918.485 304.384 925.284 305.317 931.21 303.813C936.582 302.449 936.813 302.531 936.813 305.781C936.813 311.049 942.325 321.512 947.203 325.503L951.616 329.112L944.871 328.199C941.087 327.687 936.078 327.962 933.459 328.827C922.132 332.566 922.179 349.97 933.56 366.784C936.512 371.144 939.338 375.699 939.838 376.906C940.913 379.495 951.33 383.248 953.58 381.856C956.607 379.985 955.077 377.342 949.559 374.907C939.449 370.445 929.851 354.787 929.794 342.664C929.748 332.778 932.82 331.184 948.252 333.088C954.754 333.889 961.819 334.933 963.952 335.404C967.105 336.102 967.829 335.77 967.827 333.631C967.824 331.87 965.232 329.645 960.003 326.912C950.66 322.029 943.084 313.657 941.797 306.792C941.282 304.048 941.061 301.613 941.304 301.382C941.547 301.15 945.237 298.303 949.501 295.053L957.256 289.145L970.649 289.905C978.015 290.323 988.212 291.958 993.308 293.537C1004.13 296.889 1021.39 308.429 1023.93 314.001C1026.39 319.386 1022.99 325.915 1013.84 333.417C1009.86 336.681 1002.8 343.118 998.157 347.722C993.512 352.328 987.803 356.984 985.468 358.07L981.223 360.045L985.433 359.16C987.749 358.673 994.016 354.676 999.361 350.278C1004.71 345.878 1010.74 341.062 1012.77 339.576C1025.14 330.532 1031.11 321.346 1029.3 314.139C1028.21 309.783 1015.59 298.536 1006.8 294.081C995.791 288.5 987.887 286.515 973.046 285.601C963.768 285.031 959.456 284.242 959.922 283.198C974.365 250.806 978.254 237.096 977.356 221.714C975.977 198.103 962.397 183.073 936.032 175.977C924.403 172.848 897.771 171.996 884.648 174.334ZM788.044 205.3C778.809 214.941 775.736 225.868 775.896 248.506C776.024 266.71 778.863 287.414 782.388 295.853C785.522 303.356 791.489 310.375 797.81 314.001C807.021 319.282 811.43 319.761 802.877 314.552C793.407 308.783 786.814 299.437 784.379 288.328C783.303 283.418 782.571 269.138 782.519 252.032C782.425 220.688 783.303 216.77 792.852 205.891C799.649 198.148 795.397 197.626 788.044 205.3ZM1519.99 222.607C1498.05 227.314 1475.25 238.826 1462.12 251.824C1452.09 261.753 1443.69 277.331 1438.45 295.745C1435.72 305.337 1435.25 310.195 1435.34 328.178C1435.43 346.242 1435.98 351.318 1439.08 362.95C1450.23 404.69 1471.64 440.443 1492 451.291C1510.21 461 1538.64 459.481 1556.25 447.859C1565.61 441.676 1560.95 440.782 1542.48 445.217C1512.25 452.472 1497.88 448.962 1480.29 430.028C1465.77 414.397 1454.4 392.009 1446.1 362.726C1442.71 350.746 1442.31 346.945 1442.28 326.768C1442.25 306.973 1442.65 302.909 1445.55 293.63C1456.18 259.684 1471.62 243.437 1503.01 233.18C1534.83 222.779 1559.82 224.274 1588.16 238.273C1619.86 253.931 1635.29 280.788 1635.36 320.422C1635.4 340.909 1633.07 349.699 1622.29 369.777C1604.05 403.758 1590.01 418.176 1575.37 417.975C1568.56 417.88 1563.74 415.345 1554.33 406.892C1546.1 399.494 1533.44 381.302 1532.19 375.079C1531 369.09 1528.68 370.43 1529.78 376.475C1531.75 387.295 1545.08 407.922 1555.01 415.491C1562.07 420.879 1571.15 424.705 1576.96 424.74C1593.3 424.842 1614.73 403.106 1631.86 369.072C1642.36 348.205 1644.61 339.58 1644.65 320.114C1644.72 286.557 1632.45 258.723 1610.21 242.006C1599.58 234.006 1594.7 231.541 1580.41 226.916C1558.84 219.94 1539.01 218.526 1519.99 222.607ZM814.043 360.715C787.669 392.546 778.472 408.022 768.312 437.653C763.878 450.588 762.8 452.552 760.466 451.941C757.485 451.162 756.808 454.195 759.034 458.358C759.924 460.019 758.24 467.227 753.443 482.299C744.697 509.772 737.693 537.713 738.277 542.798C738.548 545.166 739.575 546.747 740.844 546.747C742.435 546.747 743.404 543.598 744.755 534.056C747.712 513.179 759.652 467.075 762.103 467.075C762.69 467.075 764.886 472.309 766.983 478.708C773.571 498.808 780.949 511.919 800.035 537.445C810.128 550.943 818.386 562.4 818.386 562.907C818.386 564.188 778.552 575.654 774.095 575.654C772.091 575.654 770.451 576.22 770.451 576.912C770.451 577.603 768.707 578.593 766.574 579.11C761.648 580.307 653.253 615.338 622.417 625.698C581.554 639.428 553.273 647.848 550.977 646.967C549.751 646.496 548.035 646.968 547.164 648.016C546.293 649.063 537.048 652.634 526.618 655.948C508.062 661.846 501.17 664.968 501.17 667.474C501.17 669.743 506.283 668.785 525.114 662.984C535.358 659.827 544.04 657.545 544.405 657.911C545.489 658.995 531.591 752.986 530.13 754.446C529.869 754.707 524.142 752.974 517.405 750.595C510.666 748.217 496.167 743.704 485.186 740.566C461.248 733.727 426.449 722.353 426.449 721.367C426.449 720.978 427.679 715.796 429.182 709.851C435.415 685.212 438.14 666.711 438.287 648.054C438.421 630.891 437.709 625.967 435.419 628.256C434.926 628.749 433.666 638.215 432.62 649.29C429.612 681.097 421.414 719.263 417.813 718.217C394.588 711.468 386.981 709.615 382.498 709.615C373.647 709.615 376.313 711.571 389.912 715.056C403.292 718.484 417.99 724.309 417.99 726.184C417.99 730.024 401.713 783.523 389.137 821.015C370.426 876.801 360.668 908.234 352.573 938.792C346.003 963.599 339.542 983.317 332.074 1001.35C325.835 1016.42 326.901 1016.87 334.319 1002.31C343.101 985.075 348.783 969.713 359.597 933.979C368.834 903.452 381.53 864.785 401.75 805.591C407.695 788.189 415.362 763.816 418.786 751.431C422.212 739.045 425.184 728.741 425.393 728.534C425.6 728.326 436.232 731.585 449.019 735.777C461.806 739.97 480.833 745.902 491.302 748.962C501.77 752.023 512.238 755.293 514.564 756.231C518.736 757.913 518.661 757.963 509.152 759.797C497.656 762.015 468.506 769.953 462.047 772.624C457.53 774.492 456.301 776.414 458.682 777.888C459.352 778.301 471.245 775.791 485.109 772.308C498.975 768.825 514.548 765.583 519.717 765.102L529.112 764.229L527.134 774.643C524.275 789.692 524.754 789.081 516.655 788.007C512.293 787.429 509.63 787.609 509.63 788.483C509.63 790.503 514.47 792.812 518.7 792.812C523.288 792.812 523.284 793.001 518.163 817.86C515.885 828.921 512.666 848.91 511.013 862.279C509.357 875.647 506.504 897.056 504.67 909.852C502.835 922.649 500.316 945.81 499.071 961.322C497.228 984.269 495.758 993.8 491.177 1012.47C488.083 1025.09 485.217 1036.51 484.811 1037.85C484.405 1039.19 484.987 1038.7 486.103 1036.76C488.703 1032.25 497.749 999.375 499.684 987.409C500.499 982.368 502.146 968.408 503.344 956.386C504.541 944.365 507.409 922.834 509.716 908.539C512.023 894.245 515.444 871.718 517.319 858.48C520.119 838.716 524.175 816.885 528.629 797.617C529.286 794.772 530.484 794.619 561.413 793.443C611.203 791.548 604.055 790.441 632.925 804.521C646.847 811.31 659.218 817.735 660.417 818.795C661.617 819.856 663.549 820.947 664.713 821.222C668.387 822.088 692.909 835.353 692.909 836.474C692.909 837.065 662.932 844.988 626.294 854.083C561.481 870.173 541.354 876.222 534.711 881.609C529.24 886.045 532.931 886.341 543.015 882.275C548.303 880.142 580.545 871.477 614.663 863.019C648.781 854.56 682.406 846.035 689.385 844.072L702.073 840.503L720.049 849.399C729.936 854.292 738.015 858.633 738.002 859.044C737.989 859.456 730.585 863.6 721.546 868.254C712.508 872.907 698.562 880.769 690.552 885.722C677.271 893.938 673.568 897.161 677.411 897.161C678.192 897.161 694.06 889.476 712.671 880.082L746.51 863.004L763.768 870.884C780.337 878.449 803.3 888.162 814.581 892.375C817.529 893.477 830.534 898.88 843.482 904.382C863.037 912.694 924.317 937.092 953.378 948.136C957.45 949.683 960.78 951.145 960.78 951.385C960.78 951.623 958.529 958.039 955.778 965.642C949.425 983.194 925.174 1062.39 920.669 1080.3C914.585 1104.48 908.709 1141.89 901.481 1202.45C900.554 1210.21 898.359 1221.15 896.603 1226.78C894.844 1232.4 893.949 1237 894.61 1237C896.548 1237 901.474 1219.27 904.406 1201.75C905.899 1192.83 909.06 1172.84 911.43 1157.33C916.37 1125.01 923.299 1087.58 926.445 1076.25C931.981 1056.28 958.309 971.535 961.639 962.956C964.881 954.602 965.784 953.405 968.368 954.027C970.01 954.422 987.48 959.425 1007.19 965.145C1037.96 974.075 1043.23 976.001 1044.47 978.776C1045.75 981.663 1046.56 981.909 1052.02 981.092C1056.01 980.494 1060.86 980.975 1066.04 982.479L1073.96 984.78L1072.97 999.138C1072.43 1007.03 1070.48 1026.82 1068.64 1043.11C1062.91 1093.63 1061.74 1112.26 1061.66 1153.8C1061.6 1186.91 1062.05 1196.79 1064.25 1209.89C1065.71 1218.64 1067.13 1225.58 1067.4 1225.3C1067.67 1225.04 1066.96 1215.66 1065.82 1204.47C1063.19 1178.53 1063.19 1165.2 1065.86 1125.8C1068.1 1092.82 1070.06 1072.11 1074.95 1029.71C1076.52 1016.14 1077.81 1002.5 1077.82 999.396C1077.85 989.191 1078.97 987.145 1083.97 988.138C1086.39 988.619 1091.47 990.57 1095.27 992.475C1099.06 994.382 1102.46 995.643 1102.83 995.276C1104.02 994.084 1094.19 988.88 1086.53 986.646L1079.05 984.465L1079.48 978.536C1079.91 972.648 1079.97 972.589 1088.6 969.52L1097.28 966.432L1105.26 979.023C1115.31 994.877 1124.05 1003.77 1131.6 1005.8C1136.69 1007.17 1138.13 1006.93 1145.04 1003.55C1157.52 997.445 1169.32 979.177 1181.41 947.22C1184.35 939.465 1187.46 932.402 1188.32 931.524C1190.59 929.205 1226.02 915.442 1227.44 916.323C1228.11 916.734 1228.65 918.19 1228.65 919.561C1228.65 923.374 1234.64 928.184 1239.39 928.184C1244.9 928.184 1251.36 921.541 1255.94 911.171L1259.4 903.323L1286.67 893.702C1344.34 873.358 1377.85 860.858 1430.26 840.15C1460.11 828.353 1496.59 814.081 1511.32 808.435C1538.63 797.971 1577.2 780.134 1592.86 770.73C1616.77 756.376 1655.85 729.521 1662.47 722.906C1671.82 713.555 1672.31 710.041 1663.1 718.314C1659.35 721.692 1651.67 727.544 1646.05 731.319L1635.82 738.182L1630.51 735.196C1627.59 733.555 1607.82 727.472 1586.59 721.678C1533.5 707.194 1535.17 707.707 1476.35 687.701C1440.12 675.376 1411.75 664.634 1384.56 652.946C1331.51 630.138 1280.68 609.821 1244.16 596.824C1233.69 593.099 1214.34 585.942 1201.16 580.921C1187.98 575.899 1163.23 567.238 1146.17 561.676C1129.12 556.113 1101.71 546.734 1085.28 540.833L1055.39 530.104L1056.22 525.734C1056.67 523.332 1058.03 520.215 1059.25 518.811C1060.82 517.004 1061.01 515.969 1059.88 515.273C1059 514.731 1057.56 508.995 1056.68 502.527C1052.23 470.057 1039.23 441.425 1011.75 403.62C1001.25 389.164 981.361 366.956 978.921 366.956C976.669 366.956 977.667 370.721 980.631 373.403C985.055 377.408 1010.11 411.086 1019.29 425.38C1029.2 440.789 1039.95 462.013 1043.7 473.587C1048.97 489.806 1053.42 515.644 1051.19 517.026C1049.56 518.03 1014.02 523.48 1009.09 523.48C1006.38 523.48 1002.32 521.278 996.726 516.772C989.253 510.752 985.572 506.674 977.284 495.241C975.894 493.321 976.49 495.121 978.61 499.238C980.815 503.518 986.601 510.626 992.118 515.831C997.89 521.277 1001.04 525.184 999.955 525.551C998.957 525.888 986.087 528.109 971.354 530.485C956.621 532.861 931.323 537.468 915.134 540.72L885.702 546.634L882.469 542.578C875.035 533.253 874.97 534.762 884.314 499.154C889.046 481.122 894.616 457.803 896.691 447.333C898.768 436.863 902.962 420.365 906.013 410.67C909.064 400.976 911.837 389.871 912.177 385.993L912.795 378.942L910.577 385.993C909.356 389.871 906.115 399.072 903.374 406.44C900.632 413.808 896.543 427.451 894.288 436.757C892.032 446.064 887.278 464.783 883.724 478.356C880.168 491.928 875.989 507.951 874.436 513.961C872.882 519.971 871.214 524.864 870.728 524.832C867.835 524.642 837.839 472.198 834.669 461.787C834.138 460.041 832.796 458.614 831.685 458.614C829.123 458.614 829.143 458.943 832.364 469.537C835.684 480.458 845.102 498.02 858.875 518.967C868.076 532.963 869.302 535.573 868.554 539.561C867.469 545.344 869.072 547.05 871.975 543.202L874.213 540.233L876.143 543.84C877.204 545.824 877.808 547.673 877.484 547.947C876.615 548.683 825.06 561.671 824.772 561.226C824.637 561.018 818.197 552.281 810.46 541.811C785.456 507.973 779.661 497.844 772.54 475.536C771.178 471.27 768.824 465.311 767.308 462.295L764.552 456.809L769.136 443.258C779.893 411.457 786.783 399.032 811.222 367.368C820.076 355.895 827.925 345.717 828.665 344.747C829.405 343.778 829.722 342.984 829.371 342.984C829.02 342.984 822.123 350.963 814.043 360.715ZM514.869 353.476C504.754 356.373 487.715 364.84 477.9 371.845C468.016 378.899 455.569 391.932 452.441 398.502C450.512 402.552 450.716 402.451 454.933 397.274C472.159 376.124 497.372 360.828 521.954 356.615C549.938 351.819 582.655 373.973 601.781 410.67C619.566 444.794 621.468 478.102 607.326 507.839C597.793 527.886 564.468 555.484 534.302 568.313C519.589 574.57 498.621 579.884 488.65 579.884C468.29 579.884 438.288 564.963 435.386 553.393C434 547.872 436.532 545.273 442.854 545.727C446.897 546.018 447.756 545.751 446.186 544.692C443.037 542.566 435.497 542.927 433.529 545.298C432.581 546.441 431.806 549.673 431.806 552.479C431.806 559.321 437.397 566.031 448.885 572.978C473.254 587.712 493.571 589.119 526.754 578.371C565.916 565.686 601.199 538.896 615.303 511.137C630.177 481.861 628.105 441.296 610.084 408.926C602.709 395.679 588.1 377.716 578.032 369.513C573.366 365.711 564.86 360.268 559.132 357.417C549.579 352.663 547.595 352.205 535.165 351.889C526.872 351.678 518.997 352.293 514.869 353.476ZM1643.73 374.36C1645.65 386.546 1649.89 392.25 1679.05 421.951C1694.67 437.85 1712.17 456.221 1717.94 462.775C1723.72 469.33 1738.09 485.1 1749.89 497.821C1761.69 510.542 1776.76 527.916 1783.38 536.43L1795.41 551.912V564.303C1795.41 587.63 1788.37 615.964 1778.3 633.132C1775.69 637.584 1766.87 647.945 1758.69 656.159C1724.26 690.748 1702.29 697.123 1670.14 681.86C1653.78 674.09 1630.54 650.024 1607.41 616.9C1600.52 607.035 1597.82 604.997 1595.86 608.177C1593.68 611.707 1625.76 654.065 1643.16 670.624C1657.74 684.496 1670.29 691.481 1686.85 694.943C1712.15 700.23 1732.57 690.882 1763.6 659.814C1778.4 644.994 1781.57 640.989 1786.66 630.649C1794.17 615.393 1799.03 598.188 1801.07 579.68C1801.95 571.659 1802.85 564.92 1803.07 564.706C1803.63 564.138 1808.21 571.262 1830.03 606.677C1877.66 683.975 1890.76 710.243 1937.26 821.72C1946.96 844.987 1956.68 868.118 1958.85 873.124C1962.64 881.88 1966 885.642 1966 881.144C1966 876.451 1955.51 847.433 1940.59 810.848C1931.96 789.682 1921.69 764.434 1917.76 754.739C1909.04 733.218 1887.85 689.066 1874.98 665.61C1862.54 642.939 1832.34 594.05 1815.86 569.905C1804.57 553.367 1802.66 549.718 1801.84 543.113C1801.31 538.906 1799.38 524.361 1797.54 510.789C1795.7 497.216 1793.79 482.621 1793.28 478.356C1791.93 466.949 1790.12 460.849 1786.84 456.684C1783.68 452.663 1780.03 452.091 1773.06 454.522C1768.22 456.21 1766.78 459.388 1771.55 457.877C1773.15 457.366 1776.32 457.713 1778.57 458.648C1783.29 460.601 1784.85 464.796 1786.98 481.176C1787.74 486.993 1789.67 500.768 1791.28 511.787C1792.89 522.806 1794 533.153 1793.75 534.779C1793.38 537.151 1791.17 535.134 1782.56 524.615C1776.65 517.398 1764.24 503.562 1754.98 493.867C1745.72 484.173 1730.56 467.907 1721.31 457.722C1712.05 447.536 1692.62 427.991 1678.13 414.286C1651.05 388.674 1645.97 382.125 1645.97 372.856C1645.97 370.387 1645.25 368.367 1644.37 368.367C1643.3 368.367 1643.09 370.293 1643.73 374.36ZM1300.04 482.155C1299.55 482.651 1299.14 484.404 1299.14 486.051C1299.14 492.396 1294.75 505.374 1286.49 523.411C1281.76 533.733 1278.16 542.444 1278.49 542.771C1279.27 543.553 1287.67 528.431 1294.07 514.727C1298.97 504.247 1303.37 490.256 1303.37 485.193C1303.37 482.497 1301.45 480.746 1300.04 482.155ZM972.103 486.111C972.103 486.887 972.717 488.473 973.469 489.637C974.22 490.8 974.835 491.117 974.835 490.342C974.835 489.566 974.22 487.98 973.469 486.817C972.717 485.653 972.103 485.336 972.103 486.111ZM1451.41 490.593C1447.35 492.171 1444.02 496.039 1440.1 503.738C1437.92 508.004 1433.49 514.032 1430.25 517.134C1417.3 529.523 1403.47 553.07 1403.47 562.73C1403.47 570.523 1408.13 574.529 1424.4 580.718C1440.13 586.702 1464.76 597.137 1473.96 601.716C1481.31 605.369 1483.83 604.986 1483.83 600.213C1483.83 597.247 1481.59 595.727 1466.56 588.49C1457.06 583.916 1443.58 578.13 1436.6 575.631C1418.22 569.046 1410.81 565.751 1410.07 563.823C1408.02 558.475 1418.9 539.658 1432.37 525.261C1437.97 519.277 1444.07 510.969 1446.47 506.053C1450.4 498.002 1451.07 497.361 1455.89 496.961C1463.32 496.342 1469.65 500.073 1489.64 516.835C1512.47 535.98 1511.45 534.574 1508.52 542.835C1507.21 546.538 1505.79 555.595 1505.37 562.963C1504.93 570.838 1503.72 578.102 1502.44 580.589C1497.43 590.345 1501.82 612.649 1510.75 622.827C1515.27 627.975 1529.85 636.041 1541.42 639.8C1552.61 643.434 1564.32 642.277 1569.83 636.993C1572.16 634.765 1574.06 632.146 1574.06 631.173C1574.06 627.542 1570.89 627.644 1566.96 631.4C1559.51 638.547 1543.67 637.347 1525.48 628.257C1516.61 623.824 1511.17 618.829 1507.55 611.784C1504.37 605.594 1502.7 593.392 1504.22 587.413C1505.22 583.475 1505.28 583.52 1507.85 590.264C1510.9 598.25 1514.3 602.446 1517.72 602.446C1521.74 602.446 1523.85 598.401 1523.74 590.897C1523.6 581.632 1519.79 576.191 1511.68 573.686C1509.8 573.103 1509.21 571.384 1509.21 566.459C1509.21 559.14 1513.06 540.804 1514.82 539.714C1515.46 539.32 1519.24 542.564 1523.23 546.926C1527.21 551.287 1530.87 554.463 1531.35 553.981C1532.83 552.496 1529.29 546.356 1523.04 539.572L1517.08 533.098L1521.09 525.437C1526.02 516.009 1537.92 504.876 1545.48 502.61C1562.81 497.418 1581.12 503.61 1596.23 519.765C1611.52 536.109 1618.46 548.505 1640.27 598.394C1646.58 612.84 1652.61 625.847 1653.67 627.3C1657.23 632.169 1657.81 627.841 1654.59 620.394C1652.84 616.339 1646.66 601.283 1640.85 586.935C1624.99 547.766 1615.26 530.805 1599.48 514.864C1580.74 495.929 1559.15 490.727 1539.22 500.348C1531.06 504.288 1521.7 513.978 1517.22 523.127C1515.61 526.423 1513.91 529.12 1513.44 529.12C1512.97 529.12 1509.14 526.07 1504.91 522.342C1490.68 509.79 1473.96 496.745 1468.59 494.004C1462.6 490.944 1454.59 489.355 1451.41 490.593ZM1224.42 511.619C1224.42 512.075 1227.29 515.724 1230.81 519.727C1236.86 526.637 1241.31 536.783 1241.36 543.83C1241.37 545.434 1241.92 547.6 1242.58 548.643C1244.71 551.995 1245.73 543.867 1244.1 536.567C1242.22 528.173 1237.11 519.273 1231.39 514.462C1227.23 510.963 1224.42 509.817 1224.42 511.619ZM1051.01 524.89C1051.01 528.175 1050.27 528.292 1043.82 526.025C1039.09 524.361 1039.07 524.326 1042.55 523.344C1048.94 521.542 1051.01 521.92 1051.01 524.89ZM1044.67 535.123C1041.28 537.021 1033.03 535.693 1024.8 531.921L1017.88 528.753L1024.93 527.157C1031.56 525.655 1032.43 525.805 1039.55 529.655C1045.97 533.122 1046.75 533.96 1044.67 535.123ZM1016.58 532.132C1019.79 534.586 1037.18 540.401 1041.31 540.401C1043.69 540.401 1047.36 539.384 1049.46 538.142C1053.17 535.955 1054.2 536.217 1082.11 546.434C1097.96 552.236 1123.93 561.258 1139.83 566.485C1155.73 571.711 1184.91 581.98 1204.68 589.305C1224.46 596.63 1250.15 606.144 1261.78 610.447C1290.96 621.242 1352.99 646.177 1389.37 661.731C1435.46 681.433 1514.3 707.228 1585.45 725.884C1605.17 731.052 1621.84 735.614 1622.5 736.02C1623.17 736.427 1622.85 737.306 1621.8 737.973C1620.49 738.796 1621.32 739.191 1624.38 739.207C1626.86 739.218 1629.24 739.813 1629.68 740.529C1630.79 742.31 1591.72 765.47 1568.42 776.847C1547.36 787.134 1523.42 796.845 1478.9 813.159C1462.61 819.125 1436.92 828.816 1421.8 834.693C1377.74 851.819 1356.3 859.747 1307.77 876.846C1282.67 885.693 1261.89 892.931 1261.6 892.931C1261.31 892.931 1261.08 890.919 1261.08 888.459C1261.08 883.042 1257.59 878.83 1253.1 878.83C1250.38 878.83 1249.8 878.095 1249.8 874.649C1249.8 867.866 1244.02 866.373 1238.02 871.607C1233.81 875.287 1231.28 881.398 1228.7 894.152L1226.28 906.123L1209.01 913.029C1199.51 916.828 1191.44 919.64 1191.08 919.278C1190.11 918.313 1194.54 889.798 1195.83 888.653C1196.44 888.118 1208.42 880.358 1222.47 871.408C1236.52 862.458 1257.06 849.097 1268.11 841.718L1288.2 828.301L1294.73 830.409C1302.83 833.021 1315.93 834.584 1313.95 832.699C1313.17 831.964 1308.57 830.203 1303.73 828.786C1294.54 826.1 1293.82 825.49 1296.58 822.731C1299.49 819.819 1296.47 819.014 1291.51 821.379C1287.05 823.504 1286.14 823.481 1278.09 821.044C1273.34 819.606 1266.88 817.993 1263.72 817.46C1258.38 816.556 1258.05 816.236 1258.9 812.76C1260.99 804.268 1261.39 785.587 1259.63 779.294C1257.59 771.991 1251.48 765.167 1244.29 762.163C1239.29 760.077 1221.11 759.55 1212.14 761.233C1209.11 761.801 1207.5 761.549 1207.5 760.507C1207.5 757.411 1200.02 747.653 1195.52 744.867C1188.91 740.782 1183.14 741.243 1177.36 746.321C1169.82 752.939 1167.79 760.607 1166.98 785.426C1166.31 805.973 1166.14 806.974 1163.27 807.554C1144.77 811.303 1129.96 816.753 1106.83 828.321C1089.06 837.213 1078.51 844.84 1059.58 862.496C1049.95 871.48 1041.54 878.83 1040.9 878.83C1040.26 878.83 1039.73 879.481 1039.73 880.276C1039.73 883.404 1048.46 876.913 1064.27 862.032C1083.28 844.141 1094.49 836.718 1119.68 825.348C1140.16 816.101 1149.14 812.918 1159.25 811.32L1166.3 810.205L1167.16 816.512C1167.64 819.981 1168.04 827.965 1168.05 834.256C1168.09 850.029 1170.36 870.193 1172.37 872.62C1174.44 875.11 1178.45 872.446 1177.27 869.369C1176.86 868.292 1175.88 857.129 1175.1 844.565C1174.32 832 1173.31 818.925 1172.85 815.51L1172.02 809.3L1190.49 810.275C1200.65 810.811 1209.77 811.563 1210.77 811.946C1212.11 812.458 1211.38 815.164 1208.01 822.239C1201.47 835.972 1192.31 863.275 1190.53 874.321C1189.7 879.515 1188.46 885.129 1187.78 886.797C1186.23 890.599 1159.36 903.926 1142.94 909.03C1122.25 915.466 1107.95 916.549 1088.2 913.179L1083.8 912.427L1082.89 897.391C1081.54 875.376 1080.47 867.549 1078.83 867.549C1077.83 867.549 1077.68 876.005 1078.35 893.98C1078.93 909.685 1078.82 919.842 1078.06 919.01C1077.36 918.238 1073.75 910.456 1070.04 901.713C1066.33 892.97 1063.02 886.088 1062.69 886.417C1062.36 886.747 1065.7 896.122 1070.11 907.248L1078.13 927.479L1077.22 945.095C1076.65 956.046 1075.65 963.32 1074.58 964.317C1072.38 966.367 1051.27 973.308 1047.24 973.308C1045.56 973.308 1034.77 970.42 1023.28 966.892C1011.78 963.362 994.848 958.162 985.654 955.333C976.46 952.504 968.655 949.457 968.311 948.56C967.967 947.663 970.33 940.332 973.56 932.269C981.059 913.554 989.286 889.652 993.72 873.698C998.554 856.3 999.094 853.448 997.552 853.448C996.809 853.448 992.925 863.76 988.918 876.362C979.664 905.478 963.677 946.515 961.591 946.515C959.537 946.515 878.087 914.056 851.213 902.527L830.65 893.706L845.314 891.28C859.164 888.987 874.644 884.598 886.339 879.649C889.823 878.174 892.348 875.771 893.941 872.412C897.558 864.788 895.659 863.795 881.403 865.857C864.027 868.369 862.989 867.922 875.744 863.423C890.725 858.138 903.659 851.193 910.332 844.853C914.809 840.596 915.665 838.857 915.665 834.008C915.665 829.058 914.455 826.73 907.199 817.707C893.528 800.709 871.261 782.942 863.629 782.942C861.528 782.942 858.579 783.845 857.073 784.95C854.688 786.7 854.021 786.671 851.87 784.731C850.513 783.506 849.402 781.78 849.402 780.894C849.402 779.079 880.351 763.292 899.095 755.543C905.877 752.74 919.2 748.172 928.702 745.393C943.267 741.133 948.189 740.328 960.075 740.267C975.214 740.19 982.382 742.02 992.121 748.45C998.248 752.496 1003.08 761.052 1003.08 767.87C1003.08 781.997 982.375 794.897 956.903 796.642C950.505 797.081 945.272 798.024 945.272 798.738C945.272 800.498 963.779 798.76 973.426 796.095C1005.32 787.282 1016.84 765.366 998.661 748.117C974.253 724.96 928.177 733.187 854.144 773.921L846.901 777.906L840.974 773.798C833.131 768.361 822.722 767.96 815.894 772.831C809.846 777.146 800.859 790.522 797.091 800.813C795.438 805.331 793.367 809.742 792.49 810.612C791.001 812.092 776.362 816.096 724.979 829.081L704.178 834.338L690.438 827.429L676.696 820.521L683.041 819.354C686.53 818.712 695.095 817.925 702.073 817.607C710.291 817.231 718.487 815.82 725.336 813.599C738.438 809.349 757.104 804.811 774.68 801.603C786.619 799.423 788.123 798.814 788.525 795.985C788.917 793.221 788.349 792.812 784.115 792.812C781.442 792.812 774.686 793.845 769.102 795.105C760.874 796.964 758.332 797.07 755.703 795.662C753.592 794.531 750.798 794.314 747.709 795.039C741.672 796.455 738.611 795.989 732.098 792.666C729.216 791.195 726.417 789.992 725.879 789.992C724.088 789.992 729.893 795.547 732.571 796.397C737.587 797.989 735.146 799.75 722.164 803.899C706.427 808.93 696.61 810.858 678.467 812.481L664.731 813.71L641.237 801.892C628.317 795.392 618.637 789.785 619.729 789.431C620.82 789.077 632.454 787.096 645.584 785.03C696.156 777.067 772.75 757.949 795.311 747.656C800.836 745.136 804.438 744.572 813.795 744.767C826.409 745.029 833.668 742.745 837.468 737.32C844.344 727.501 834.631 716.336 811.047 706.952L800.763 702.859L801.197 697.423C802.096 686.158 793.241 672.989 778.135 663.125C758.494 650.302 743.754 648.193 727.367 655.863C717.955 660.268 708.949 668.477 685.749 693.797C673.432 707.241 668.475 709.362 646.617 710.536C628.298 711.522 625.73 712.244 627.174 716.007C628.026 718.227 629.762 718.361 645.874 717.443C675.279 715.768 681.642 712.617 697.163 692.052C725.505 654.502 745.829 648.353 775.305 668.407C787.356 676.606 794.418 686.217 794.418 694.419C794.418 700.021 794.383 700.058 789.836 699.227C787.316 698.766 780.782 697.978 775.316 697.474C767.025 696.711 764.979 696.958 762.98 698.958C759.723 702.214 759.962 704.311 764.019 708.123C768.669 712.492 777.816 713.363 787.987 710.406C795.532 708.212 796.547 708.214 803.348 710.419C813.585 713.739 825.852 720.411 830.352 725.108C837.306 732.368 831.025 739.029 816.659 739.627C809.927 739.909 809.182 739.618 807.433 736.04C805.978 733.064 801.307 730.12 787.637 723.556C777.798 718.83 763.402 712.472 755.648 709.425C747.893 706.379 740.165 703.187 738.471 702.334C732.762 699.451 728.33 703.957 733.88 707.004C734.996 707.617 743.221 710.917 752.157 714.336C768.414 720.557 800.85 736.085 799.794 737.141C799.487 737.45 790.011 735.411 778.739 732.61C764.337 729.033 757.021 727.835 754.126 728.58C750.669 729.471 753.352 730.491 770.834 734.935C782.289 737.849 791.979 740.548 792.367 740.936C793.455 742.026 783.103 745.61 758.696 752.599C713.069 765.661 666.853 775.804 626.647 781.581L604.794 784.72L576.93 773.608C544.253 760.576 543.7 761.416 586.466 759.085C632.62 756.569 643.91 751.726 654.755 729.789C659.984 719.213 660.448 714.47 655.281 724.422C643.281 747.531 633.817 751.08 578.011 753.397C560.18 754.137 543.483 755.137 540.907 755.621C536.246 756.495 536.228 756.476 537.023 751.741C543.989 710.309 549.105 673.783 549.105 665.477C549.105 662.13 549.899 658.387 550.868 657.16C551.837 655.934 559.609 652.892 568.138 650.402C593.693 642.939 650.663 624.622 710.533 604.618C741.549 594.253 769.167 585.356 771.905 584.845C775.82 584.115 777.413 584.501 779.357 586.65C781.751 589.296 781.711 589.36 778.102 588.671C774.798 588.039 774.539 588.26 775.824 590.62C778.271 595.108 787.228 603.243 807.227 619.138C831.913 638.76 836.268 641.477 839.649 639.365C841.286 638.342 842.534 638.259 843.076 639.138C844.567 641.552 847.992 640.625 847.992 637.809C847.992 634.422 839.202 626.808 826.749 619.409C821.506 616.294 812.872 609.775 807.559 604.922C802.249 600.07 795.057 593.681 791.579 590.724C784.218 584.467 785.569 584.827 806.402 594.674C836.203 608.759 855.535 628.164 872.016 660.536C877.423 671.157 882.52 680.264 883.342 680.771C886.674 682.832 886.232 679.549 881.865 669.812C875.253 655.065 875.435 655.941 879.363 657.795C882.077 659.075 883.258 661.443 885.101 669.297C887.799 680.795 892.855 687.382 896.985 684.778C898.954 683.534 900.771 684.253 906.486 688.536C922.676 700.67 955.492 716.425 967.134 717.654C975.661 718.554 983.467 715.7 986.929 710.418C989.92 705.85 991.086 695.956 989.183 691.284C987.931 688.213 987.735 688.705 987.656 695.095C987.495 708.338 982.409 713.846 970.34 713.846C959.759 713.846 913.687 690.793 904.787 681.046C903.201 679.309 901.475 674.901 900.952 671.25C899.913 663.985 895.937 657.808 893.336 659.415C890.991 660.863 891.314 669.53 893.898 674.527C896.755 680.054 895.727 683.16 892.614 678.408C890.415 675.051 888.768 668.312 886.669 654.085C885.865 648.635 883.994 648.55 882.978 653.916C882.163 658.221 874.079 646.431 861.224 622.188C855.262 610.942 845.642 594.259 839.846 585.115C834.052 575.97 829.619 568.179 829.996 567.801C830.911 566.887 879.125 554.543 881.829 554.53C882.992 554.526 885.53 556.873 887.468 559.745C889.407 562.619 894.285 568.867 898.308 573.632C909.563 586.959 920.564 602.82 929.097 618.027C934.31 627.317 941.018 636.381 949.546 645.659C963.701 661.058 973.496 676.055 975.106 684.789C976.023 689.778 976.087 689.518 975.561 682.919C975.068 676.729 973.694 673.368 968.405 665.412C964.804 659.998 957.952 651.387 953.177 646.28C942.069 634.4 939.707 630.986 930.968 614.173C922.864 598.583 920.182 594.488 902.686 570.985C895.867 561.825 890.288 553.859 890.288 553.283C890.288 551.266 1009.01 529.004 1012.94 530.282C1014.11 530.66 1015.74 531.492 1016.58 532.132ZM1182.13 533.252C1182.13 534.749 1184.03 540.087 1186.36 545.114C1188.68 550.141 1190.58 555.224 1190.58 556.41C1190.58 559.534 1192.96 560.523 1193.99 557.83C1195.73 553.288 1191.29 538.166 1186.7 532.998C1183.84 529.773 1182.13 529.869 1182.13 533.252ZM1015.76 557.143C1015.76 557.819 1019.01 562.42 1022.97 567.367C1026.93 572.312 1031.98 578.972 1034.19 582.165L1038.2 587.971L1032.27 592.694C1015.78 605.826 1002.39 621.198 1003.33 625.925C1003.63 627.408 1006.04 625.261 1010.43 619.591C1016.38 611.924 1036.06 594.172 1040.23 592.716C1041.12 592.406 1042.16 591.718 1042.55 591.188C1045.12 587.674 1060.54 579.254 1069.76 576.325C1089.43 570.081 1107.55 571.883 1128.55 582.169C1149 592.186 1168.29 616.361 1177.35 643.34C1183.07 660.351 1179.16 696.432 1169.89 712.314C1161.33 726.968 1137.94 747.14 1118.28 756.828C1105.45 763.144 1093.27 765.441 1083.59 763.364C1072.74 761.037 1058.19 753.538 1051.45 746.795C1043.41 738.75 1043.6 741.687 1051.68 750.33C1062.92 762.347 1081.96 769.748 1097.88 768.286C1116.42 766.583 1139.16 754.636 1158.74 736.315C1171.64 724.241 1178.5 713.772 1182.36 700.256C1184.1 694.158 1185.77 688.853 1186.06 688.466C1187.11 687.063 1190.58 693.319 1190.58 696.621C1190.58 698.822 1189.6 700.266 1187.77 700.746C1184.47 701.607 1184.35 702.367 1186.95 705.8C1188.76 708.186 1189.04 708.114 1191.84 704.552C1196.05 699.206 1195.69 692.525 1190.94 687.431C1187.15 683.373 1187.06 682.888 1187 665.778C1186.95 650.526 1186.47 646.95 1183.24 637.973C1171.97 606.622 1149.45 582.332 1122.11 572.043C1096.26 562.309 1073.22 565.26 1047.78 581.561C1044.07 583.941 1040.83 585.648 1040.59 585.354C1040.34 585.06 1037.83 581.152 1034.99 576.671C1026.97 563.964 1015.76 552.59 1015.76 557.143ZM833.606 584.115C840.687 594.756 854.216 616.899 859.02 625.713C859.443 626.489 853.759 621.412 846.389 614.432C832.001 600.802 817.221 591.275 800.41 584.792C794.789 582.623 790.189 580.439 790.189 579.938C790.189 578.669 818.46 570.265 821.892 570.514C823.759 570.651 827.663 575.182 833.606 584.115ZM971.571 578.122C970.693 579.543 980.38 596.806 982.056 596.806C982.761 596.806 983.338 595.025 983.338 592.849C983.338 586.965 973.622 574.804 971.571 578.122ZM1516.29 581.348C1517.13 582.929 1517.63 586.896 1517.4 590.161L1516.96 596.101L1513.79 590.164C1512.05 586.898 1510.62 582.933 1510.62 581.351C1510.62 577.634 1514.3 577.632 1516.29 581.348ZM786.14 592.223C787.892 594.459 787.843 594.509 785.607 592.756C783.258 590.913 782.512 589.755 783.672 589.755C783.964 589.755 785.075 590.866 786.14 592.223ZM793.713 598.216C795.116 599.767 795.948 601.036 795.56 601.036C795.173 601.036 793.706 599.767 792.304 598.216C790.901 596.665 790.069 595.396 790.457 595.396C790.844 595.396 792.311 596.665 793.713 598.216ZM1398.99 609.865C1397.19 612.539 1393.88 617.515 1391.64 620.925C1389.4 624.334 1385.09 630.853 1382.07 635.414C1379.05 639.972 1376.95 644.074 1377.4 644.529C1379.96 647.085 1389.3 634.942 1398.44 617.172C1404.18 606.005 1404.51 601.675 1398.99 609.865ZM1417.43 621.553C1417.36 622.289 1417.2 630.983 1417.08 640.872C1416.92 654.059 1417.32 658.851 1418.56 658.851C1421.92 658.851 1423.25 648.886 1421.66 635.584C1420.83 628.604 1419.57 622.289 1418.86 621.553C1418.05 620.707 1417.52 620.707 1417.43 621.553ZM961.109 623.489C956.249 623.936 952.442 624.938 952.649 625.713C953.225 627.869 965.096 627.17 970.649 624.654C975.984 622.236 975.433 622.17 961.109 623.489ZM1055.81 632.834C1055.94 638.035 1056.71 641.103 1058.09 641.979C1060.95 643.788 1061.75 643.678 1064.3 641.124C1067.55 637.88 1067.01 632.421 1063.06 628.47C1057.38 622.793 1055.59 623.873 1055.81 632.834ZM1279.41 628.66C1279.41 629.117 1280.83 630.646 1282.57 632.057L1285.74 634.622L1281.96 636.346C1277.83 638.227 1273.02 637.221 1274.52 634.793C1275.04 633.96 1276.4 633.638 1277.55 634.079C1278.84 634.573 1279.4 634.204 1279.02 633.118C1278.39 631.31 1273.93 631.458 1271.96 633.351C1270.09 635.136 1272.38 638.809 1275.9 639.693C1279.9 640.699 1285.96 638.203 1287.17 635.052C1287.7 633.658 1286.86 631.836 1284.97 630.309C1281.92 627.831 1279.41 627.088 1279.41 628.66ZM1062.27 635.232C1062.25 637.797 1061.98 638 1060.88 636.289C1059.11 633.555 1059.11 632.059 1060.88 632.059C1061.65 632.059 1062.28 633.487 1062.27 635.232ZM933.125 647.218C933.528 648.574 934.537 654.762 935.369 660.966C936.899 672.383 941.555 692.268 943.048 693.761C944.282 694.995 944.023 691.12 942.521 685.882C941.782 683.31 940.161 674.113 938.918 665.445C936.283 647.088 935.705 644.75 933.803 644.75C933.027 644.75 932.723 645.861 933.125 647.218ZM1477.88 651.221C1481.95 654.78 1487.24 660.549 1489.65 664.039C1492.6 668.34 1494.47 669.923 1495.45 668.952C1498.33 666.07 1488.38 653.828 1478.19 647.72C1470.12 642.88 1470 644.32 1477.88 651.221ZM943.973 697.746C944.041 699.389 944.375 699.723 944.825 698.6C945.232 697.581 945.182 696.364 944.714 695.896C944.245 695.428 943.913 696.26 943.973 697.746ZM779.371 703.487C783.044 704.095 784.169 704.757 782.896 705.565C779.927 707.448 772.652 706.985 769.663 704.725C767.021 702.726 767.048 702.654 770.451 702.625C772.389 702.609 776.403 702.998 779.371 703.487ZM1418.39 715.996C1415.35 717.151 1408.13 721.307 1402.34 725.232C1394.88 730.298 1391.38 731.933 1390.32 730.864C1389.49 730.035 1387.67 729.357 1386.27 729.357C1383.43 729.357 1382.82 733.517 1385.29 735.994C1386.44 737.135 1385.87 738.203 1383.18 739.964C1379.42 742.426 1378.43 745.446 1380.87 746.96C1381.63 747.425 1383.87 746.741 1385.85 745.441C1387.84 744.141 1389.66 743.321 1389.91 743.62C1390.16 743.919 1392.41 748.059 1394.92 752.821C1397.42 757.585 1401.25 763.189 1403.43 765.277C1407.19 768.883 1407.6 768.966 1411.47 766.962C1413.72 765.802 1425.67 761.894 1438.04 758.277C1455.73 753.109 1494.6 738.3 1497.81 735.508C1499.52 734.026 1496.39 733.706 1492.96 735.013C1490.78 735.839 1488.63 736.017 1488.18 735.405C1487.73 734.793 1484.82 734.254 1481.72 734.208C1477.59 734.146 1473.43 732.464 1466.21 727.95C1448.44 716.837 1443.14 714.64 1433.14 714.255C1427.55 714.037 1421.74 714.724 1418.39 715.996ZM1455.64 728.641C1463 732.817 1470.78 736.66 1472.92 737.182C1475.06 737.704 1477.11 738.609 1477.47 739.195C1478.43 740.756 1457.9 748.255 1434.49 754.89C1423.24 758.076 1412.97 761.252 1411.66 761.949C1409.81 762.926 1408.48 762.168 1405.82 758.625C1402.68 754.435 1395.01 740.263 1395.01 738.641C1395.01 736.839 1414.68 724.224 1420.99 721.982C1431.94 718.09 1439.63 719.568 1455.64 728.641ZM1190.41 748.302C1194.65 750.498 1201.86 760.357 1201.86 763.966C1201.86 765.195 1199.99 767.777 1197.71 769.701C1192.13 774.398 1185.78 787.498 1186.91 791.992C1188.02 796.438 1191.48 799.863 1194.87 799.863C1199.08 799.863 1206.86 792.066 1208.67 786.018C1209.58 782.982 1210.32 777.632 1210.32 774.13C1210.32 766.562 1211.33 766.068 1226.93 766.04C1244.45 766.006 1251.64 771.133 1254.32 785.549C1255.99 794.517 1254.31 810.012 1251.36 812.969C1250.51 813.819 1244.06 813.186 1233.8 811.244C1216.62 807.997 1186.49 805.518 1177.4 806.606L1171.96 807.256L1172.51 784.171C1173 763.554 1173.4 760.436 1176.25 755.023C1178.84 750.101 1182.12 747.203 1186.07 746.367C1186.3 746.319 1188.26 747.189 1190.41 748.302ZM562.418 774.485C576.332 779.911 588.069 784.393 588.501 784.441C588.932 784.49 587.872 785.099 586.143 785.794C583.192 786.982 532.552 788.007 531.447 786.901C531.166 786.621 531.468 783.869 532.118 780.788C532.768 777.707 533.714 772.807 534.217 769.898C534.722 766.99 535.582 764.611 536.128 764.614C536.675 764.616 548.505 769.058 562.418 774.485ZM1204.03 778.359C1202.04 789.242 1193.4 798.129 1193.4 789.298C1193.4 784.985 1195.38 780.731 1199.47 776.244C1203.68 771.62 1205.14 772.297 1204.03 778.359ZM835.36 777.329C838.431 778.897 840.942 780.642 840.94 781.207C840.939 781.774 838.243 783.943 834.949 786.027C826.929 791.102 819.108 799.271 821.093 800.499C821.941 801.024 823.024 800.437 823.501 799.197C824.411 796.823 841.065 784.352 843.325 784.352C845.878 784.352 850.812 792.75 850.812 797.094C850.812 802.662 857.481 809.734 862.731 809.734C868.408 809.734 868.456 806.286 862.883 798.985C857.24 791.593 857.107 789.489 862.245 788.871C868.774 788.084 891.038 806.231 903.163 822.222C909.979 831.211 910.134 831.61 906.975 832.088C905.163 832.362 896.068 831.871 886.763 831C869.218 829.356 859.598 829.91 827.55 834.412C790.206 839.659 774.827 843.441 755.848 852.049L746.491 856.293L728.512 847.271L710.533 838.249L716.172 836.719C719.274 835.879 736.715 831.049 754.93 825.987C773.145 820.926 788.553 816.784 789.168 816.784C789.784 816.784 789.609 818.054 788.779 819.605C787.949 821.156 786.34 822.425 785.205 822.425C782.531 822.425 782.566 824.424 785.281 826.678C787.933 828.879 791.847 825.815 794.468 819.485C795.556 816.856 797.54 815.042 799.884 814.527C808.639 812.603 817.836 809.243 819.796 807.252C821.681 805.336 821.604 805.212 819.091 806.103C813.66 808.03 799.468 811.024 798.823 810.38C797.634 809.19 808.754 788.813 813.828 782.885C821.482 773.941 826.288 772.701 835.36 777.329ZM1236.61 816.236C1242.7 817.484 1247.89 818.699 1248.15 818.935C1250.1 820.727 1234.31 840.975 1225.56 847.89C1219.95 852.325 1217.34 853.452 1212.66 853.469C1208.36 853.486 1207.36 853.854 1208.91 854.858C1210.08 855.609 1213.32 856.234 1216.12 856.247C1225.62 856.286 1244.12 840.613 1252.12 825.741C1253.73 822.753 1255.72 821.023 1257.52 821.039C1260.66 821.066 1280.69 826.063 1281.7 827.071C1282.51 827.885 1202.08 880.571 1197.12 882.476C1193.16 883.998 1198.67 862.911 1209.19 836.275C1214.32 823.292 1216.8 818.604 1218.22 819.152C1219.52 819.65 1220.19 818.898 1220.19 816.935C1220.19 813.297 1221.92 813.224 1236.61 816.236ZM907.843 837.885L913.416 837.788L910.7 840.79C906.55 845.377 891.748 853.163 876.515 858.772C863.2 863.675 862.097 863.841 839.081 864.421C819.385 864.916 815.225 865.386 814.533 867.192C813.36 870.251 817.598 872.917 825.273 873.948C828.851 874.427 833.365 875.355 835.304 876.009L838.828 877.197L835.304 877.312C833.365 877.377 826.302 878.895 819.608 880.685L807.437 883.941L782.281 872.887C768.445 866.807 756.585 861.295 755.927 860.636C754.537 859.246 771.569 851.868 783.859 848.539C788.504 847.281 805.944 844.076 822.615 841.416C851.042 836.881 854.461 836.625 877.599 837.282C891.169 837.667 904.78 837.938 907.843 837.885ZM863.119 868.4C862.651 868.869 861.434 868.919 860.417 868.512C859.292 868.062 859.627 867.728 861.269 867.66C862.755 867.599 863.587 867.932 863.119 868.4ZM1243.52 885.275C1240.97 889.159 1234.84 890.168 1236.25 886.47C1236.72 885.243 1237.11 883.706 1237.11 883.053C1237.11 882.4 1238.85 879.784 1240.99 877.239L1244.86 872.611L1245.31 877.231C1245.56 879.801 1244.77 883.369 1243.52 885.275ZM1253.07 895.83C1252.43 896.453 1250.1 897.409 1247.88 897.958C1244.01 898.917 1243.92 898.828 1245.59 895.589C1246.55 893.739 1248.68 890.738 1250.33 888.92L1253.32 885.617L1253.78 890.159C1254.03 892.656 1253.71 895.208 1253.07 895.83ZM1237.04 897.298C1233.59 904.068 1233.05 903.982 1233.94 896.809C1234.44 892.773 1235.24 891.521 1237.29 891.521C1239.9 891.521 1239.9 891.698 1237.04 897.298ZM1185.62 907.944C1184.34 915.586 1182.55 922.58 1181.65 923.485C1179.56 925.592 1151.38 937.422 1121.5 948.735C1103.81 955.433 1097.84 957.152 1096.58 955.908C1095.67 955.007 1092.35 949.512 1089.2 943.695C1084.27 934.579 1083.47 931.908 1083.46 924.341L1083.44 915.563L1088.02 916.586C1090.54 917.148 1101.17 917.569 1111.63 917.519C1129.12 917.437 1131.75 917.066 1144.06 912.96C1151.43 910.502 1164.12 905.15 1172.26 901.064C1180.4 896.978 1187.26 893.729 1187.5 893.843C1187.75 893.957 1186.9 900.303 1185.62 907.944ZM1052.42 897.133C1052.42 900.89 1057.3 909.951 1060.42 911.996C1065.39 915.255 1066.1 913.558 1061.88 908.535C1059.91 906.194 1057.88 902.36 1057.36 900.015C1056.52 896.169 1052.42 893.78 1052.42 897.133ZM1249.8 908.234C1249.8 910.188 1243.65 918.629 1241.05 920.246C1237.78 922.28 1237.15 921.243 1238.29 915.692C1238.99 912.283 1240.42 910.46 1243.47 909.118C1248.62 906.847 1249.8 906.682 1249.8 908.234ZM1179.31 935.808C1179.31 937.684 1165.8 968.157 1161.78 975.337C1152.31 992.285 1139.89 1002.89 1131.87 1000.88C1126.36 999.496 1116.6 989.538 1108.74 977.293C1104.77 971.099 1101.75 965.797 1102.04 965.513C1102.32 965.226 1112.69 961.185 1125.07 956.532C1137.45 951.878 1154.25 945.227 1162.39 941.749C1177.05 935.488 1179.31 934.696 1179.31 935.808ZM1089.33 960.201C1083.07 963.018 1080.15 962.539 1081.14 958.854C1081.61 957.11 1082 951.874 1082.02 947.22L1082.06 938.76L1087.58 948.631L1093.1 958.501L1089.33 960.201ZM1074.98 978.243C1074.98 982.2 1073.4 982.545 1066.43 980.114L1061.68 978.462L1066.57 976.696C1073.74 974.107 1074.98 974.336 1074.98 978.243Z" fill="black"/>
<rect width="350" height="245" transform="translate(52 45)" fill="#CA1B1B"/>
<path d="M79.3486 88.2329V97H74.2217V72.1172H83.9287C85.7972 72.1172 87.4378 72.459 88.8506 73.1426C90.2747 73.8262 91.3685 74.8003 92.1318 76.0649C92.8952 77.3182 93.2769 78.748 93.2769 80.3545C93.2769 82.7926 92.4395 84.7181 90.7646 86.1309C89.1012 87.5322 86.7941 88.2329 83.8433 88.2329H79.3486ZM79.3486 84.0801H83.9287C85.2845 84.0801 86.3156 83.7611 87.022 83.123C87.7397 82.485 88.0986 81.5736 88.0986 80.3887C88.0986 79.1696 87.7397 78.1841 87.022 77.4321C86.3042 76.6802 85.313 76.2928 84.0483 76.27H79.3486V84.0801ZM117.254 85.1226C117.254 87.5721 116.821 89.7197 115.955 91.5654C115.089 93.4111 113.847 94.8353 112.229 95.8379C110.623 96.8405 108.777 97.3418 106.692 97.3418C104.63 97.3418 102.79 96.8462 101.172 95.855C99.5545 94.8638 98.3013 93.451 97.4126 91.6167C96.5239 89.771 96.0739 87.6519 96.0625 85.2593V84.0288C96.0625 81.5793 96.5011 79.4259 97.3784 77.5688C98.2671 75.7004 99.5146 74.2705 101.121 73.2793C102.739 72.2767 104.585 71.7754 106.658 71.7754C108.732 71.7754 110.572 72.2767 112.178 73.2793C113.796 74.2705 115.044 75.7004 115.921 77.5688C116.81 79.4259 117.254 81.5736 117.254 84.0117V85.1226ZM112.059 83.9946C112.059 81.3856 111.591 79.4032 110.657 78.0474C109.723 76.6916 108.39 76.0137 106.658 76.0137C104.938 76.0137 103.611 76.6859 102.676 78.0303C101.742 79.3633 101.269 81.3229 101.258 83.9092V85.1226C101.258 87.6632 101.725 89.6343 102.659 91.0356C103.593 92.437 104.938 93.1377 106.692 93.1377C108.413 93.1377 109.734 92.4655 110.657 91.1211C111.58 89.7653 112.047 87.7943 112.059 85.208V83.9946ZM140.513 88.7114C140.319 91.3888 139.328 93.4966 137.54 95.0347C135.762 96.5728 133.415 97.3418 130.499 97.3418C127.308 97.3418 124.796 96.2708 122.962 94.1289C121.139 91.9756 120.228 89.0247 120.228 85.2764V83.7554C120.228 81.3628 120.649 79.255 121.492 77.4321C122.335 75.6092 123.537 74.2135 125.098 73.2451C126.67 72.2653 128.493 71.7754 130.567 71.7754C133.438 71.7754 135.751 72.5444 137.505 74.0825C139.26 75.6206 140.274 77.7796 140.547 80.5596H135.42C135.295 78.9531 134.845 77.791 134.07 77.0732C133.307 76.3441 132.139 75.9795 130.567 75.9795C128.858 75.9795 127.576 76.5947 126.722 77.8252C125.879 79.0443 125.446 80.9412 125.423 83.5161V85.396C125.423 88.0848 125.827 90.0501 126.636 91.292C127.457 92.5339 128.744 93.1548 130.499 93.1548C132.082 93.1548 133.261 92.7959 134.036 92.0781C134.822 91.349 135.272 90.2267 135.386 88.7114H140.513ZM156.783 90.4717C156.783 89.5033 156.441 88.7627 155.757 88.25C155.074 87.7259 153.843 87.179 152.066 86.6094C150.289 86.0283 148.882 85.4587 147.845 84.9004C145.019 83.3737 143.606 81.3172 143.606 78.731C143.606 77.3866 143.982 76.1903 144.734 75.1421C145.498 74.0825 146.586 73.2565 147.999 72.6641C149.423 72.0716 151.018 71.7754 152.784 71.7754C154.561 71.7754 156.145 72.1001 157.535 72.7495C158.925 73.3875 160.001 74.2933 160.765 75.4668C161.539 76.6403 161.927 77.9733 161.927 79.4658H156.8C156.8 78.3265 156.441 77.4435 155.723 76.8169C155.005 76.1789 153.997 75.8599 152.698 75.8599C151.445 75.8599 150.471 76.1276 149.776 76.6631C149.081 77.1872 148.733 77.8822 148.733 78.748C148.733 79.557 149.138 80.2349 149.947 80.7817C150.767 81.3286 151.969 81.8413 153.553 82.3198C156.469 83.1971 158.594 84.2852 159.927 85.584C161.26 86.8828 161.927 88.5007 161.927 90.4375C161.927 92.5908 161.112 94.2827 159.483 95.5132C157.854 96.7323 155.66 97.3418 152.903 97.3418C150.989 97.3418 149.246 96.9943 147.674 96.2993C146.102 95.5929 144.9 94.6302 144.068 93.4111C143.248 92.1921 142.837 90.7793 142.837 89.1729H147.981C147.981 91.9186 149.622 93.2915 152.903 93.2915C154.122 93.2915 155.074 93.0465 155.757 92.5566C156.441 92.0553 156.783 91.3604 156.783 90.4717ZM188.177 91.873H179.188L177.479 97H172.027L181.29 72.1172H186.041L195.354 97H189.903L188.177 91.873ZM180.572 87.7202H186.792L183.665 78.4062L180.572 87.7202ZM206.89 87.8911H202.806V97H197.679V72.1172H206.924C209.864 72.1172 212.131 72.7723 213.726 74.0825C215.321 75.3927 216.119 77.2441 216.119 79.6367C216.119 81.3343 215.748 82.7528 215.008 83.8921C214.279 85.02 213.168 85.9201 211.675 86.5923L217.059 96.7607V97H211.556L206.89 87.8911ZM202.806 83.7383H206.941C208.229 83.7383 209.226 83.4136 209.932 82.7642C210.639 82.1034 210.992 81.1976 210.992 80.0469C210.992 78.8734 210.656 77.9505 209.983 77.2783C209.323 76.6061 208.303 76.27 206.924 76.27H202.806V83.7383ZM240.472 85.1226C240.472 87.5721 240.039 89.7197 239.173 91.5654C238.307 93.4111 237.065 94.8353 235.447 95.8379C233.841 96.8405 231.995 97.3418 229.91 97.3418C227.848 97.3418 226.008 96.8462 224.39 95.855C222.772 94.8638 221.519 93.451 220.63 91.6167C219.742 89.771 219.292 87.6519 219.28 85.2593V84.0288C219.28 81.5793 219.719 79.4259 220.596 77.5688C221.485 75.7004 222.732 74.2705 224.339 73.2793C225.957 72.2767 227.802 71.7754 229.876 71.7754C231.95 71.7754 233.79 72.2767 235.396 73.2793C237.014 74.2705 238.261 75.7004 239.139 77.5688C240.027 79.4259 240.472 81.5736 240.472 84.0117V85.1226ZM235.276 83.9946C235.276 81.3856 234.809 79.4032 233.875 78.0474C232.941 76.6916 231.608 76.0137 229.876 76.0137C228.156 76.0137 226.828 76.6859 225.894 78.0303C224.96 79.3633 224.487 81.3229 224.476 83.9092V85.1226C224.476 87.6632 224.943 89.6343 225.877 91.0356C226.811 92.437 228.156 93.1377 229.91 93.1377C231.631 93.1377 232.952 92.4655 233.875 91.1211C234.798 89.7653 235.265 87.7943 235.276 85.208V83.9946ZM263.03 72.1172V88.5063C263.03 91.2293 262.176 93.3826 260.467 94.9663C258.769 96.55 256.445 97.3418 253.494 97.3418C250.589 97.3418 248.282 96.5728 246.573 95.0347C244.864 93.4966 243.992 91.3831 243.958 88.6943V72.1172H249.085V88.5405C249.085 90.1698 249.472 91.3604 250.247 92.1123C251.033 92.8529 252.116 93.2231 253.494 93.2231C256.377 93.2231 257.841 91.7078 257.886 88.6772V72.1172H263.03ZM287.469 97H282.342L272.361 80.6279V97H267.234V72.1172H272.361L282.359 88.5234V72.1172H287.469V97ZM291.946 97V72.1172H299.603C301.79 72.1172 303.744 72.6128 305.464 73.604C307.196 74.5838 308.546 75.9852 309.515 77.8081C310.483 79.6196 310.967 81.6818 310.967 83.9946V85.1396C310.967 87.4525 310.489 89.509 309.532 91.3091C308.586 93.1092 307.247 94.5049 305.516 95.4961C303.784 96.4873 301.83 96.9886 299.654 97H291.946ZM297.073 76.27V92.8813H299.551C301.556 92.8813 303.089 92.2262 304.148 90.916C305.208 89.6058 305.749 87.7316 305.772 85.2935V83.9775C305.772 81.4482 305.248 79.5342 304.2 78.2354C303.152 76.9251 301.619 76.27 299.603 76.27H297.073ZM337.474 91.873H328.484L326.775 97H321.324L330.586 72.1172H335.337L344.651 97H339.2L337.474 91.873ZM329.869 87.7202H336.089L332.962 78.4062L329.869 87.7202ZM92.9521 117.27H85.3301V138H80.2031V117.27H72.6836V113.117H92.9521V117.27ZM107.889 132.873H98.8994L97.1904 138H91.7388L101.001 113.117H105.752L115.066 138H109.615L107.889 132.873ZM100.284 128.72H106.504L103.377 119.406L100.284 128.72ZM117.391 138V113.117H126.106C129.126 113.117 131.416 113.698 132.977 114.86C134.537 116.011 135.318 117.703 135.318 119.936C135.318 121.155 135.005 122.232 134.378 123.166C133.751 124.089 132.88 124.767 131.763 125.2C133.039 125.519 134.042 126.162 134.771 127.131C135.512 128.099 135.882 129.284 135.882 130.686C135.882 133.078 135.118 134.89 133.592 136.12C132.065 137.351 129.889 137.977 127.063 138H117.391ZM122.518 127.165V133.881H126.91C128.117 133.881 129.057 133.597 129.729 133.027C130.413 132.446 130.755 131.648 130.755 130.634C130.755 128.356 129.576 127.199 127.217 127.165H122.518ZM122.518 123.542H126.312C128.898 123.496 130.191 122.465 130.191 120.449C130.191 119.321 129.861 118.512 129.2 118.022C128.55 117.521 127.519 117.27 126.106 117.27H122.518V123.542ZM144.871 133.881H155.757V138H139.744V113.117H144.871V133.881ZM173.685 127.216H163.841V133.881H175.394V138H158.714V113.117H175.359V117.27H163.841V123.2H173.685V127.216ZM179.358 144.238L176.778 142.888L177.393 141.777C178.156 140.387 178.549 139.003 178.572 137.624V133.796H182.742L182.725 137.214C182.714 138.479 182.395 139.755 181.768 141.042C181.141 142.329 180.338 143.395 179.358 144.238ZM79.6733 179H74.5464V154.117H79.6733V179ZM104.676 179H99.5488L89.5684 162.628V179H84.4414V154.117H89.5684L99.5659 170.523V154.117H104.676V179ZM127.371 158.27H119.749V179H114.622V158.27H107.103V154.117H127.371V158.27ZM145.281 168.216H135.438V174.881H146.99V179H130.311V154.117H146.956V158.27H135.438V164.2H145.281V168.216ZM159.209 169.891H155.125V179H149.998V154.117H159.244C162.183 154.117 164.45 154.772 166.045 156.083C167.64 157.393 168.438 159.244 168.438 161.637C168.438 163.334 168.068 164.753 167.327 165.892C166.598 167.02 165.487 167.92 163.995 168.592L169.378 178.761V179H163.875L159.209 169.891ZM155.125 165.738H159.261C160.548 165.738 161.545 165.414 162.251 164.764C162.958 164.103 163.311 163.198 163.311 162.047C163.311 160.873 162.975 159.951 162.303 159.278C161.642 158.606 160.622 158.27 159.244 158.27H155.125V165.738ZM186.399 173.873H177.41L175.701 179H170.25L179.512 154.117H184.263L193.577 179H188.125L186.399 173.873ZM178.794 169.72H185.015L181.888 160.406L178.794 169.72ZM215.059 170.711C214.865 173.389 213.874 175.497 212.085 177.035C210.308 178.573 207.961 179.342 205.044 179.342C201.854 179.342 199.342 178.271 197.508 176.129C195.685 173.976 194.773 171.025 194.773 167.276V165.755C194.773 163.363 195.195 161.255 196.038 159.432C196.881 157.609 198.083 156.214 199.644 155.245C201.216 154.265 203.039 153.775 205.113 153.775C207.984 153.775 210.297 154.544 212.051 156.083C213.806 157.621 214.82 159.78 215.093 162.56H209.966C209.841 160.953 209.391 159.791 208.616 159.073C207.853 158.344 206.685 157.979 205.113 157.979C203.404 157.979 202.122 158.595 201.268 159.825C200.424 161.044 199.992 162.941 199.969 165.516V167.396C199.969 170.085 200.373 172.05 201.182 173.292C202.002 174.534 203.29 175.155 205.044 175.155C206.628 175.155 207.807 174.796 208.582 174.078C209.368 173.349 209.818 172.227 209.932 170.711H215.059ZM236.644 158.27H229.021V179H223.895V158.27H216.375V154.117H236.644V158.27ZM245.035 179H239.908V154.117H245.035V179ZM270.037 179H264.91L254.93 162.628V179H249.803V154.117H254.93L264.927 170.523V154.117H270.037V179ZM294.202 175.855C293.279 176.961 291.975 177.821 290.289 178.436C288.602 179.04 286.734 179.342 284.683 179.342C282.53 179.342 280.639 178.875 279.009 177.94C277.391 176.995 276.138 175.628 275.25 173.839C274.372 172.05 273.922 169.948 273.899 167.533V165.841C273.899 163.357 274.315 161.209 275.147 159.398C275.99 157.575 277.198 156.185 278.77 155.228C280.354 154.26 282.205 153.775 284.324 153.775C287.275 153.775 289.582 154.482 291.246 155.895C292.909 157.296 293.895 159.341 294.202 162.03H289.212C288.984 160.606 288.477 159.563 287.691 158.902C286.916 158.242 285.845 157.911 284.478 157.911C282.735 157.911 281.408 158.566 280.496 159.876C279.585 161.187 279.123 163.135 279.112 165.721V167.311C279.112 169.92 279.607 171.891 280.599 173.224C281.59 174.557 283.042 175.223 284.957 175.223C286.882 175.223 288.255 174.813 289.075 173.993V169.703H284.41V165.926H294.202V175.855ZM93.6016 212.822L96.9512 195.117H102.061L96.541 220H91.3799L87.3296 203.354L83.2793 220H78.1182L72.5981 195.117H77.708L81.0747 212.788L85.1763 195.117H89.5171L93.6016 212.822ZM110.298 220H105.171V195.117H110.298V220ZM133.284 199.27H125.662V220H120.535V199.27H113.016V195.117H133.284V199.27ZM156.475 220H151.348V209.336H141.351V220H136.224V195.117H141.351V205.2H151.348V195.117H156.475V220ZM79.3486 252.233V261H74.2217V236.117H83.9287C85.7972 236.117 87.4378 236.459 88.8506 237.143C90.2747 237.826 91.3685 238.8 92.1318 240.065C92.8952 241.318 93.2769 242.748 93.2769 244.354C93.2769 246.793 92.4395 248.718 90.7646 250.131C89.1012 251.532 86.7941 252.233 83.8433 252.233H79.3486ZM79.3486 248.08H83.9287C85.2845 248.08 86.3156 247.761 87.022 247.123C87.7397 246.485 88.0986 245.574 88.0986 244.389C88.0986 243.17 87.7397 242.184 87.022 241.432C86.3042 240.68 85.313 240.293 84.0483 240.27H79.3486V248.08ZM106.026 251.891H101.941V261H96.8145V236.117H106.06C109 236.117 111.267 236.772 112.862 238.083C114.457 239.393 115.254 241.244 115.254 243.637C115.254 245.334 114.884 246.753 114.144 247.892C113.414 249.02 112.304 249.92 110.811 250.592L116.194 260.761V261H110.691L106.026 251.891ZM101.941 247.738H106.077C107.365 247.738 108.361 247.414 109.068 246.764C109.774 246.103 110.127 245.198 110.127 244.047C110.127 242.873 109.791 241.951 109.119 241.278C108.458 240.606 107.439 240.27 106.06 240.27H101.941V247.738ZM139.607 249.123C139.607 251.572 139.174 253.72 138.309 255.565C137.443 257.411 136.201 258.835 134.583 259.838C132.977 260.84 131.131 261.342 129.046 261.342C126.984 261.342 125.144 260.846 123.526 259.855C121.908 258.864 120.655 257.451 119.766 255.617C118.877 253.771 118.427 251.652 118.416 249.259V248.029C118.416 245.579 118.855 243.426 119.732 241.569C120.621 239.7 121.868 238.271 123.475 237.279C125.092 236.277 126.938 235.775 129.012 235.775C131.085 235.775 132.925 236.277 134.532 237.279C136.15 238.271 137.397 239.7 138.274 241.569C139.163 243.426 139.607 245.574 139.607 248.012V249.123ZM134.412 247.995C134.412 245.386 133.945 243.403 133.011 242.047C132.076 240.692 130.743 240.014 129.012 240.014C127.291 240.014 125.964 240.686 125.03 242.03C124.096 243.363 123.623 245.323 123.611 247.909V249.123C123.611 251.663 124.078 253.634 125.013 255.036C125.947 256.437 127.291 257.138 129.046 257.138C130.766 257.138 132.088 256.465 133.011 255.121C133.934 253.765 134.401 251.794 134.412 249.208V247.995ZM153.365 236.117H158.492V253.344C158.492 254.927 158.139 256.329 157.432 257.548C156.737 258.756 155.752 259.69 154.476 260.351C153.2 261.011 151.758 261.342 150.152 261.342C147.52 261.342 145.469 260.675 144 259.342C142.53 257.998 141.795 256.101 141.795 253.651H146.956C146.956 254.87 147.212 255.771 147.725 256.352C148.238 256.933 149.047 257.223 150.152 257.223C151.132 257.223 151.912 256.887 152.493 256.215C153.074 255.543 153.365 254.586 153.365 253.344V236.117ZM177.854 250.216H168.011V256.881H179.563V261H162.884V236.117H179.529V240.27H168.011V246.2H177.854V250.216ZM202.105 252.711C201.911 255.389 200.92 257.497 199.131 259.035C197.354 260.573 195.007 261.342 192.09 261.342C188.9 261.342 186.388 260.271 184.554 258.129C182.731 255.976 181.819 253.025 181.819 249.276V247.755C181.819 245.363 182.241 243.255 183.084 241.432C183.927 239.609 185.129 238.214 186.69 237.245C188.262 236.265 190.085 235.775 192.159 235.775C195.03 235.775 197.343 236.544 199.097 238.083C200.852 239.621 201.866 241.78 202.139 244.56H197.012C196.887 242.953 196.437 241.791 195.662 241.073C194.899 240.344 193.731 239.979 192.159 239.979C190.45 239.979 189.168 240.595 188.313 241.825C187.47 243.044 187.037 244.941 187.015 247.516V249.396C187.015 252.085 187.419 254.05 188.228 255.292C189.048 256.534 190.336 257.155 192.09 257.155C193.674 257.155 194.853 256.796 195.628 256.078C196.414 255.349 196.864 254.227 196.978 252.711H202.105ZM223.689 240.27H216.067V261H210.94V240.27H203.421V236.117H223.689V240.27ZM232.081 261H226.954V236.117H232.081V261ZM257.288 249.123C257.288 251.572 256.855 253.72 255.989 255.565C255.123 257.411 253.882 258.835 252.264 259.838C250.657 260.84 248.812 261.342 246.727 261.342C244.664 261.342 242.824 260.846 241.207 259.855C239.589 258.864 238.335 257.451 237.447 255.617C236.558 253.771 236.108 251.652 236.097 249.259V248.029C236.097 245.579 236.535 243.426 237.413 241.569C238.301 239.7 239.549 238.271 241.155 237.279C242.773 236.277 244.619 235.775 246.692 235.775C248.766 235.775 250.606 236.277 252.212 237.279C253.83 238.271 255.078 239.7 255.955 241.569C256.844 243.426 257.288 245.574 257.288 248.012V249.123ZM252.093 247.995C252.093 245.386 251.626 243.403 250.691 242.047C249.757 240.692 248.424 240.014 246.692 240.014C244.972 240.014 243.645 240.686 242.71 242.03C241.776 243.363 241.303 245.323 241.292 247.909V249.123C241.292 251.663 241.759 253.634 242.693 255.036C243.628 256.437 244.972 257.138 246.727 257.138C248.447 257.138 249.769 256.465 250.691 255.121C251.614 253.765 252.081 251.794 252.093 249.208V247.995ZM281.248 261H276.121L266.141 244.628V261H261.014V236.117H266.141L276.138 252.523V236.117H281.248V261ZM298.628 254.472C298.628 253.503 298.287 252.763 297.603 252.25C296.919 251.726 295.689 251.179 293.912 250.609C292.134 250.028 290.727 249.459 289.69 248.9C286.865 247.374 285.452 245.317 285.452 242.731C285.452 241.387 285.828 240.19 286.58 239.142C287.343 238.083 288.431 237.257 289.844 236.664C291.268 236.072 292.863 235.775 294.629 235.775C296.407 235.775 297.99 236.1 299.38 236.75C300.77 237.388 301.847 238.293 302.61 239.467C303.385 240.64 303.772 241.973 303.772 243.466H298.646C298.646 242.326 298.287 241.444 297.569 240.817C296.851 240.179 295.843 239.86 294.544 239.86C293.291 239.86 292.317 240.128 291.622 240.663C290.927 241.187 290.579 241.882 290.579 242.748C290.579 243.557 290.984 244.235 291.792 244.782C292.613 245.329 293.815 245.841 295.398 246.32C298.315 247.197 300.44 248.285 301.773 249.584C303.106 250.883 303.772 252.501 303.772 254.438C303.772 256.591 302.958 258.283 301.329 259.513C299.699 260.732 297.506 261.342 294.749 261.342C292.835 261.342 291.092 260.994 289.52 260.299C287.947 259.593 286.745 258.63 285.914 257.411C285.093 256.192 284.683 254.779 284.683 253.173H289.827C289.827 255.919 291.468 257.292 294.749 257.292C295.968 257.292 296.919 257.047 297.603 256.557C298.287 256.055 298.628 255.36 298.628 254.472Z" fill="white"/>
<path d="M284.083 377.957C286.268 377.636 287.779 375.603 287.457 373.417L282.214 337.801C281.893 335.616 279.86 334.105 277.674 334.426C275.489 334.748 273.978 336.781 274.3 338.966L278.96 370.625L247.301 375.286C245.116 375.607 243.605 377.64 243.926 379.826C244.248 382.011 246.281 383.522 248.466 383.2L284.083 377.957ZM168.114 293.21L281.114 377.21L285.886 370.79L172.886 286.79L168.114 293.21Z" fill="#CA1B1B"/>
<rect width="350" height="204" transform="translate(1704 157)" fill="#CA1B1B"/>
<path d="M1746.66 197.123C1746.66 199.572 1746.23 201.72 1745.36 203.565C1744.5 205.411 1743.25 206.835 1741.64 207.838C1740.03 208.84 1738.18 209.342 1736.1 209.342C1734.04 209.342 1732.2 208.846 1730.58 207.855C1728.96 206.864 1727.71 205.451 1726.82 203.617C1725.93 201.771 1725.48 199.652 1725.47 197.259V196.029C1725.47 193.579 1725.91 191.426 1726.79 189.569C1727.67 187.7 1728.92 186.271 1730.53 185.279C1732.15 184.277 1733.99 183.775 1736.07 183.775C1738.14 183.775 1739.98 184.277 1741.59 185.279C1743.2 186.271 1744.45 187.7 1745.33 189.569C1746.22 191.426 1746.66 193.574 1746.66 196.012V197.123ZM1741.47 195.995C1741.47 193.386 1741 191.403 1740.06 190.047C1739.13 188.692 1737.8 188.014 1736.07 188.014C1734.35 188.014 1733.02 188.686 1732.08 190.03C1731.15 191.363 1730.68 193.323 1730.67 195.909V197.123C1730.67 199.663 1731.13 201.634 1732.07 203.036C1733 204.437 1734.35 205.138 1736.1 205.138C1737.82 205.138 1739.14 204.465 1740.06 203.121C1740.99 201.765 1741.45 199.794 1741.47 197.208V195.995ZM1770.62 209H1765.49L1755.51 192.628V209H1750.39V184.117H1755.51L1765.51 200.523V184.117H1770.62V209ZM1790.07 198.216H1780.23V204.881H1791.78V209H1775.1V184.117H1791.74V188.27H1780.23V194.2H1790.07V198.216ZM1808.63 200.233V209H1803.5V184.117H1813.21C1815.08 184.117 1816.72 184.459 1818.13 185.143C1819.56 185.826 1820.65 186.8 1821.41 188.065C1822.18 189.318 1822.56 190.748 1822.56 192.354C1822.56 194.793 1821.72 196.718 1820.04 198.131C1818.38 199.532 1816.07 200.233 1813.12 200.233H1808.63ZM1808.63 196.08H1813.21C1814.56 196.08 1815.6 195.761 1816.3 195.123C1817.02 194.485 1817.38 193.574 1817.38 192.389C1817.38 191.17 1817.02 190.184 1816.3 189.432C1815.58 188.68 1814.59 188.293 1813.33 188.27H1808.63V196.08ZM1841.07 198.216H1831.22V204.881H1842.77V209H1826.09V184.117H1842.74V188.27H1831.22V194.2H1841.07V198.216ZM1854.99 199.891H1850.91V209H1845.78V184.117H1855.03C1857.97 184.117 1860.23 184.772 1861.83 186.083C1863.42 187.393 1864.22 189.244 1864.22 191.637C1864.22 193.334 1863.85 194.753 1863.11 195.892C1862.38 197.02 1861.27 197.92 1859.78 198.592L1865.16 208.761V209H1859.66L1854.99 199.891ZM1850.91 195.738H1855.04C1856.33 195.738 1857.33 195.414 1858.04 194.764C1858.74 194.103 1859.1 193.198 1859.1 192.047C1859.1 190.873 1858.76 189.951 1858.09 189.278C1857.43 188.606 1856.41 188.27 1855.03 188.27H1850.91V195.738ZM1881.04 202.472C1881.04 201.503 1880.7 200.763 1880.01 200.25C1879.33 199.726 1878.1 199.179 1876.32 198.609C1874.54 198.028 1873.14 197.459 1872.1 196.9C1869.28 195.374 1867.86 193.317 1867.86 190.731C1867.86 189.387 1868.24 188.19 1868.99 187.142C1869.75 186.083 1870.84 185.257 1872.25 184.664C1873.68 184.072 1875.27 183.775 1877.04 183.775C1878.82 183.775 1880.4 184.1 1881.79 184.75C1883.18 185.388 1884.26 186.293 1885.02 187.467C1885.8 188.64 1886.18 189.973 1886.18 191.466H1881.06C1881.06 190.326 1880.7 189.444 1879.98 188.817C1879.26 188.179 1878.25 187.86 1876.95 187.86C1875.7 187.86 1874.73 188.128 1874.03 188.663C1873.34 189.187 1872.99 189.882 1872.99 190.748C1872.99 191.557 1873.39 192.235 1874.2 192.782C1875.02 193.329 1876.22 193.841 1877.81 194.32C1880.73 195.197 1882.85 196.285 1884.18 197.584C1885.52 198.883 1886.18 200.501 1886.18 202.438C1886.18 204.591 1885.37 206.283 1883.74 207.513C1882.11 208.732 1879.92 209.342 1877.16 209.342C1875.25 209.342 1873.5 208.994 1871.93 208.299C1870.36 207.593 1869.16 206.63 1868.32 205.411C1867.5 204.192 1867.09 202.779 1867.09 201.173H1872.24C1872.24 203.919 1873.88 205.292 1877.16 205.292C1878.38 205.292 1879.33 205.047 1880.01 204.557C1880.7 204.055 1881.04 203.36 1881.04 202.472ZM1910.11 197.123C1910.11 199.572 1909.68 201.72 1908.81 203.565C1907.94 205.411 1906.7 206.835 1905.08 207.838C1903.48 208.84 1901.63 209.342 1899.55 209.342C1897.48 209.342 1895.64 208.846 1894.03 207.855C1892.41 206.864 1891.16 205.451 1890.27 203.617C1889.38 201.771 1888.93 199.652 1888.92 197.259V196.029C1888.92 193.579 1889.36 191.426 1890.23 189.569C1891.12 187.7 1892.37 186.271 1893.98 185.279C1895.59 184.277 1897.44 183.775 1899.51 183.775C1901.59 183.775 1903.43 184.277 1905.03 185.279C1906.65 186.271 1907.9 187.7 1908.78 189.569C1909.66 191.426 1910.11 193.574 1910.11 196.012V197.123ZM1904.91 195.995C1904.91 193.386 1904.45 191.403 1903.51 190.047C1902.58 188.692 1901.24 188.014 1899.51 188.014C1897.79 188.014 1896.47 188.686 1895.53 190.03C1894.6 191.363 1894.12 193.323 1894.11 195.909V197.123C1894.11 199.663 1894.58 201.634 1895.51 203.036C1896.45 204.437 1897.79 205.138 1899.55 205.138C1901.27 205.138 1902.59 204.465 1903.51 203.121C1904.43 201.765 1904.9 199.794 1904.91 197.208V195.995ZM1934.07 209H1928.94L1918.96 192.628V209H1913.83V184.117H1918.96L1928.96 200.523V184.117H1934.07V209ZM1739.12 243.472C1739.12 242.503 1738.78 241.763 1738.1 241.25C1737.42 240.726 1736.19 240.179 1734.41 239.609C1732.63 239.028 1731.22 238.459 1730.19 237.9C1727.36 236.374 1725.95 234.317 1725.95 231.731C1725.95 230.387 1726.32 229.19 1727.08 228.142C1727.84 227.083 1728.93 226.257 1730.34 225.664C1731.76 225.072 1733.36 224.775 1735.13 224.775C1736.9 224.775 1738.49 225.1 1739.88 225.75C1741.27 226.388 1742.34 227.293 1743.11 228.467C1743.88 229.64 1744.27 230.973 1744.27 232.466H1739.14C1739.14 231.326 1738.78 230.444 1738.06 229.817C1737.35 229.179 1736.34 228.86 1735.04 228.86C1733.79 228.86 1732.81 229.128 1732.12 229.663C1731.42 230.187 1731.08 230.882 1731.08 231.748C1731.08 232.557 1731.48 233.235 1732.29 233.782C1733.11 234.329 1734.31 234.841 1735.89 235.32C1738.81 236.197 1740.94 237.285 1742.27 238.584C1743.6 239.883 1744.27 241.501 1744.27 243.438C1744.27 245.591 1743.45 247.283 1741.82 248.513C1740.2 249.732 1738 250.342 1735.25 250.342C1733.33 250.342 1731.59 249.994 1730.02 249.299C1728.44 248.593 1727.24 247.63 1726.41 246.411C1725.59 245.192 1725.18 243.779 1725.18 242.173H1730.32C1730.32 244.919 1731.96 246.292 1735.25 246.292C1736.46 246.292 1737.42 246.047 1738.1 245.557C1738.78 245.055 1739.12 244.36 1739.12 243.472ZM1767.29 241.711C1767.09 244.389 1766.1 246.497 1764.31 248.035C1762.54 249.573 1760.19 250.342 1757.27 250.342C1754.08 250.342 1751.57 249.271 1749.74 247.129C1747.91 244.976 1747 242.025 1747 238.276V236.755C1747 234.363 1747.42 232.255 1748.27 230.432C1749.11 228.609 1750.31 227.214 1751.87 226.245C1753.45 225.265 1755.27 224.775 1757.34 224.775C1760.21 224.775 1762.53 225.544 1764.28 227.083C1766.04 228.621 1767.05 230.78 1767.32 233.56H1762.2C1762.07 231.953 1761.62 230.791 1760.85 230.073C1760.08 229.344 1758.91 228.979 1757.34 228.979C1755.63 228.979 1754.35 229.595 1753.5 230.825C1752.65 232.044 1752.22 233.941 1752.2 236.516V238.396C1752.2 241.085 1752.6 243.05 1753.41 244.292C1754.23 245.534 1755.52 246.155 1757.27 246.155C1758.86 246.155 1760.04 245.796 1760.81 245.078C1761.6 244.349 1762.05 243.227 1762.16 241.711H1767.29ZM1784.7 244.873H1775.71L1774 250H1768.55L1777.82 225.117H1782.57L1791.88 250H1786.43L1784.7 244.873ZM1777.1 240.72H1783.32L1780.19 231.406L1777.1 240.72ZM1814.44 250H1809.31L1799.33 233.628V250H1794.21V225.117H1799.33L1809.33 241.523V225.117H1814.44V250ZM1831.82 243.472C1831.82 242.503 1831.48 241.763 1830.79 241.25C1830.11 240.726 1828.88 240.179 1827.1 239.609C1825.33 239.028 1823.92 238.459 1822.88 237.9C1820.06 236.374 1818.64 234.317 1818.64 231.731C1818.64 230.387 1819.02 229.19 1819.77 228.142C1820.53 227.083 1821.62 226.257 1823.04 225.664C1824.46 225.072 1826.05 224.775 1827.82 224.775C1829.6 224.775 1831.18 225.1 1832.57 225.75C1833.96 226.388 1835.04 227.293 1835.8 228.467C1836.58 229.64 1836.96 230.973 1836.96 232.466H1831.84C1831.84 231.326 1831.48 230.444 1830.76 229.817C1830.04 229.179 1829.03 228.86 1827.74 228.86C1826.48 228.86 1825.51 229.128 1824.81 229.663C1824.12 230.187 1823.77 230.882 1823.77 231.748C1823.77 232.557 1824.17 233.235 1824.98 233.782C1825.8 234.329 1827.01 234.841 1828.59 235.32C1831.51 236.197 1833.63 237.285 1834.96 238.584C1836.3 239.883 1836.96 241.501 1836.96 243.438C1836.96 245.591 1836.15 247.283 1834.52 248.513C1832.89 249.732 1830.7 250.342 1827.94 250.342C1826.03 250.342 1824.28 249.994 1822.71 249.299C1821.14 248.593 1819.94 247.63 1819.1 246.411C1818.28 245.192 1817.87 243.779 1817.87 242.173H1823.02C1823.02 244.919 1824.66 246.292 1827.94 246.292C1829.16 246.292 1830.11 246.047 1830.79 245.557C1831.48 245.055 1831.82 244.36 1831.82 243.472ZM1863.21 244.873H1854.22L1852.52 250H1847.06L1856.33 225.117H1861.08L1870.39 250H1864.94L1863.21 244.873ZM1855.61 240.72H1861.83L1858.7 231.406L1855.61 240.72ZM1901.84 238.123C1901.84 240.447 1901.46 242.469 1900.71 244.189C1899.96 245.898 1898.91 247.271 1897.58 248.308L1901.72 251.555L1898.45 254.443L1893.16 250.188C1892.55 250.291 1891.92 250.342 1891.28 250.342C1889.21 250.342 1887.37 249.846 1885.76 248.855C1884.14 247.864 1882.88 246.451 1882 244.617C1881.11 242.771 1880.66 240.652 1880.65 238.259V237.029C1880.65 234.579 1881.08 232.426 1881.96 230.569C1882.85 228.7 1884.1 227.271 1885.7 226.279C1887.32 225.277 1889.17 224.775 1891.24 224.775C1893.31 224.775 1895.15 225.277 1896.76 226.279C1898.38 227.271 1899.63 228.7 1900.5 230.569C1901.39 232.426 1901.84 234.574 1901.84 237.012V238.123ZM1896.64 236.995C1896.64 234.386 1896.17 232.403 1895.24 231.047C1894.31 229.692 1892.97 229.014 1891.24 229.014C1889.52 229.014 1888.19 229.686 1887.26 231.03C1886.33 232.363 1885.85 234.323 1885.84 236.909V238.123C1885.84 240.663 1886.31 242.634 1887.24 244.036C1888.18 245.437 1889.52 246.138 1891.28 246.138C1893 246.138 1894.32 245.465 1895.24 244.121C1896.16 242.765 1896.63 240.794 1896.64 238.208V236.995ZM1914.81 240.891H1910.72V250H1905.6V225.117H1914.84C1917.78 225.117 1920.05 225.772 1921.64 227.083C1923.24 228.393 1924.04 230.244 1924.04 232.637C1924.04 234.334 1923.67 235.753 1922.93 236.892C1922.2 238.02 1921.09 238.92 1919.59 239.592L1924.98 249.761V250H1919.47L1914.81 240.891ZM1910.72 236.738H1914.86C1916.15 236.738 1917.14 236.414 1917.85 235.764C1918.56 235.103 1918.91 234.198 1918.91 233.047C1918.91 231.873 1918.57 230.951 1917.9 230.278C1917.24 229.606 1916.22 229.27 1914.84 229.27H1910.72V236.738ZM1956.2 241.711C1956.01 244.389 1955.01 246.497 1953.23 248.035C1951.45 249.573 1949.1 250.342 1946.19 250.342C1942.99 250.342 1940.48 249.271 1938.65 247.129C1936.83 244.976 1935.91 242.025 1935.91 238.276V236.755C1935.91 234.363 1936.34 232.255 1937.18 230.432C1938.02 228.609 1939.22 227.214 1940.78 226.245C1942.36 225.265 1944.18 224.775 1946.25 224.775C1949.12 224.775 1951.44 225.544 1953.19 227.083C1954.95 228.621 1955.96 230.78 1956.23 233.56H1951.11C1950.98 231.953 1950.53 230.791 1949.76 230.073C1948.99 229.344 1947.83 228.979 1946.25 228.979C1944.54 228.979 1943.26 229.595 1942.41 230.825C1941.57 232.044 1941.13 233.941 1941.11 236.516V238.396C1941.11 241.085 1941.51 243.05 1942.32 244.292C1943.14 245.534 1944.43 246.155 1946.19 246.155C1947.77 246.155 1948.95 245.796 1949.72 245.078C1950.51 244.349 1950.96 243.227 1951.07 241.711H1956.2ZM1980.01 238.123C1980.01 240.572 1979.57 242.72 1978.71 244.565C1977.84 246.411 1976.6 247.835 1974.98 248.838C1973.38 249.84 1971.53 250.342 1969.44 250.342C1967.38 250.342 1965.54 249.846 1963.92 248.855C1962.31 247.864 1961.05 246.451 1960.16 244.617C1959.28 242.771 1958.83 240.652 1958.81 238.259V237.029C1958.81 234.579 1959.25 232.426 1960.13 230.569C1961.02 228.7 1962.27 227.271 1963.87 226.279C1965.49 225.277 1967.34 224.775 1969.41 224.775C1971.48 224.775 1973.32 225.277 1974.93 226.279C1976.55 227.271 1977.8 228.7 1978.67 230.569C1979.56 232.426 1980.01 234.574 1980.01 237.012V238.123ZM1974.81 236.995C1974.81 234.386 1974.34 232.403 1973.41 231.047C1972.47 229.692 1971.14 229.014 1969.41 229.014C1967.69 229.014 1966.36 229.686 1965.43 231.03C1964.49 232.363 1964.02 234.323 1964.01 236.909V238.123C1964.01 240.663 1964.48 242.634 1965.41 244.036C1966.35 245.437 1967.69 246.138 1969.44 246.138C1971.16 246.138 1972.49 245.465 1973.41 244.121C1974.33 242.765 1974.8 240.794 1974.81 238.208V236.995ZM1983.73 250V225.117H1991.39C1993.58 225.117 1995.53 225.613 1997.25 226.604C1998.98 227.584 2000.33 228.985 2001.3 230.808C2002.27 232.62 2002.75 234.682 2002.75 236.995V238.14C2002.75 240.452 2002.27 242.509 2001.32 244.309C2000.37 246.109 1999.03 247.505 1997.3 248.496C1995.57 249.487 1993.62 249.989 1991.44 250H1983.73ZM1988.86 229.27V245.881H1991.34C1993.34 245.881 1994.87 245.226 1995.93 243.916C1996.99 242.606 1997.53 240.732 1997.56 238.293V236.978C1997.56 234.448 1997.03 232.534 1995.98 231.235C1994.94 229.925 1993.4 229.27 1991.39 229.27H1988.86ZM2021.47 239.216H2011.62V245.881H2023.17V250H2006.5V225.117H2023.14V229.27H2011.62V235.2H2021.47V239.216ZM1726.12 280.883C1726.12 278.274 1726.47 275.79 1727.16 273.432C1727.86 271.073 1728.88 268.988 1730.24 267.177C1731.59 265.354 1733.06 264.089 1734.65 263.383L1735.6 266.049C1733.94 267.279 1732.64 269.182 1731.71 271.757C1730.77 274.332 1730.31 277.34 1730.31 280.78V281.31C1730.31 284.762 1730.77 287.781 1731.69 290.368C1732.61 292.954 1733.92 294.885 1735.6 296.161L1734.65 298.776C1733.1 298.081 1731.65 296.85 1730.31 295.084C1728.97 293.33 1727.95 291.302 1727.25 289C1726.54 286.699 1726.16 284.295 1726.12 281.789V280.883ZM1757.26 270.27H1749.63V291H1744.51V270.27H1736.99V266.117H1757.26V270.27ZM1780.16 279.123C1780.16 281.572 1779.72 283.72 1778.86 285.565C1777.99 287.411 1776.75 288.835 1775.13 289.838C1773.53 290.84 1771.68 291.342 1769.6 291.342C1767.53 291.342 1765.69 290.846 1764.08 289.855C1762.46 288.864 1761.2 287.451 1760.32 285.617C1759.43 283.771 1758.98 281.652 1758.97 279.259V278.029C1758.97 275.579 1759.4 273.426 1760.28 271.569C1761.17 269.7 1762.42 268.271 1764.02 267.279C1765.64 266.277 1767.49 265.775 1769.56 265.775C1771.64 265.775 1773.48 266.277 1775.08 267.279C1776.7 268.271 1777.95 269.7 1778.82 271.569C1779.71 273.426 1780.16 275.574 1780.16 278.012V279.123ZM1774.96 277.995C1774.96 275.386 1774.49 273.403 1773.56 272.047C1772.63 270.692 1771.29 270.014 1769.56 270.014C1767.84 270.014 1766.51 270.686 1765.58 272.03C1764.65 273.363 1764.17 275.323 1764.16 277.909V279.123C1764.16 281.663 1764.63 283.634 1765.56 285.036C1766.5 286.437 1767.84 287.138 1769.6 287.138C1771.32 287.138 1772.64 286.465 1773.56 285.121C1774.48 283.765 1774.95 281.794 1774.96 279.208V277.995ZM1804.32 279.123C1804.32 281.572 1803.89 283.72 1803.02 285.565C1802.16 287.411 1800.92 288.835 1799.3 289.838C1797.69 290.84 1795.85 291.342 1793.76 291.342C1791.7 291.342 1789.86 290.846 1788.24 289.855C1786.62 288.864 1785.37 287.451 1784.48 285.617C1783.59 283.771 1783.14 281.652 1783.13 279.259V278.029C1783.13 275.579 1783.57 273.426 1784.45 271.569C1785.34 269.7 1786.58 268.271 1788.19 267.279C1789.81 266.277 1791.65 265.775 1793.73 265.775C1795.8 265.775 1797.64 266.277 1799.25 267.279C1800.86 268.271 1802.11 269.7 1802.99 271.569C1803.88 273.426 1804.32 275.574 1804.32 278.012V279.123ZM1799.13 277.995C1799.13 275.386 1798.66 273.403 1797.73 272.047C1796.79 270.692 1795.46 270.014 1793.73 270.014C1792.01 270.014 1790.68 270.686 1789.74 272.03C1788.81 273.363 1788.34 275.323 1788.33 277.909V279.123C1788.33 281.663 1788.79 283.634 1789.73 285.036C1790.66 286.437 1792.01 287.138 1793.76 287.138C1795.48 287.138 1796.8 286.465 1797.73 285.121C1798.65 283.765 1799.12 281.794 1799.13 279.208V277.995ZM1823.46 266.117L1829.85 284.164L1836.21 266.117H1842.95V291H1837.8V284.198L1838.31 272.458L1831.6 291H1828.08L1821.38 272.475L1821.89 284.198V291H1816.76V266.117H1823.46ZM1866.26 266.117V282.506C1866.26 285.229 1865.4 287.383 1863.69 288.966C1861.99 290.55 1859.67 291.342 1856.72 291.342C1853.81 291.342 1851.51 290.573 1849.8 289.035C1848.09 287.497 1847.22 285.383 1847.18 282.694V266.117H1852.31V282.541C1852.31 284.17 1852.7 285.36 1853.47 286.112C1854.26 286.853 1855.34 287.223 1856.72 287.223C1859.6 287.223 1861.07 285.708 1861.11 282.677V266.117H1866.26ZM1889.99 282.711C1889.8 285.389 1888.81 287.497 1887.02 289.035C1885.24 290.573 1882.9 291.342 1879.98 291.342C1876.79 291.342 1874.28 290.271 1872.44 288.129C1870.62 285.976 1869.71 283.025 1869.71 279.276V277.755C1869.71 275.363 1870.13 273.255 1870.97 271.432C1871.82 269.609 1873.02 268.214 1874.58 267.245C1876.15 266.265 1877.97 265.775 1880.05 265.775C1882.92 265.775 1885.23 266.544 1886.99 268.083C1888.74 269.621 1889.75 271.78 1890.03 274.56H1884.9C1884.78 272.953 1884.33 271.791 1883.55 271.073C1882.79 270.344 1881.62 269.979 1880.05 269.979C1878.34 269.979 1877.06 270.595 1876.2 271.825C1875.36 273.044 1874.93 274.941 1874.9 277.516V279.396C1874.9 282.085 1875.31 284.05 1876.12 285.292C1876.94 286.534 1878.22 287.155 1879.98 287.155C1881.56 287.155 1882.74 286.796 1883.52 286.078C1884.3 285.349 1884.75 284.227 1884.87 282.711H1889.99ZM1913.61 291H1908.48V280.336H1898.49V291H1893.36V266.117H1898.49V276.2H1908.48V266.117H1913.61V291ZM1944.53 270.27H1936.91V291H1931.78V270.27H1924.26V266.117H1944.53V270.27ZM1967.43 279.123C1967.43 281.572 1966.99 283.72 1966.13 285.565C1965.26 287.411 1964.02 288.835 1962.4 289.838C1960.8 290.84 1958.95 291.342 1956.87 291.342C1954.8 291.342 1952.96 290.846 1951.35 289.855C1949.73 288.864 1948.48 287.451 1947.59 285.617C1946.7 283.771 1946.25 281.652 1946.24 279.259V278.029C1946.24 275.579 1946.67 273.426 1947.55 271.569C1948.44 269.7 1949.69 268.271 1951.29 267.279C1952.91 266.277 1954.76 265.775 1956.83 265.775C1958.91 265.775 1960.75 266.277 1962.35 267.279C1963.97 268.271 1965.22 269.7 1966.09 271.569C1966.98 273.426 1967.43 275.574 1967.43 278.012V279.123ZM1962.23 277.995C1962.23 275.386 1961.77 273.403 1960.83 272.047C1959.9 270.692 1958.56 270.014 1956.83 270.014C1955.11 270.014 1953.78 270.686 1952.85 272.03C1951.92 273.363 1951.44 275.323 1951.43 277.909V279.123C1951.43 281.663 1951.9 283.634 1952.83 285.036C1953.77 286.437 1955.11 287.138 1956.87 287.138C1958.59 287.138 1959.91 286.465 1960.83 285.121C1961.75 283.765 1962.22 281.794 1962.23 279.208V277.995ZM1745.76 323.711C1745.56 326.389 1744.57 328.497 1742.78 330.035C1741 331.573 1738.66 332.342 1735.74 332.342C1732.55 332.342 1730.04 331.271 1728.2 329.129C1726.38 326.976 1725.47 324.025 1725.47 320.276V318.755C1725.47 316.363 1725.89 314.255 1726.73 312.432C1727.58 310.609 1728.78 309.214 1730.34 308.245C1731.91 307.265 1733.74 306.775 1735.81 306.775C1738.68 306.775 1740.99 307.544 1742.75 309.083C1744.5 310.621 1745.52 312.78 1745.79 315.56H1740.66C1740.54 313.953 1740.09 312.791 1739.31 312.073C1738.55 311.344 1737.38 310.979 1735.81 310.979C1734.1 310.979 1732.82 311.595 1731.96 312.825C1731.12 314.044 1730.69 315.941 1730.67 318.516V320.396C1730.67 323.085 1731.07 325.05 1731.88 326.292C1732.7 327.534 1733.99 328.155 1735.74 328.155C1737.32 328.155 1738.5 327.796 1739.28 327.078C1740.06 326.349 1740.51 325.227 1740.63 323.711H1745.76ZM1769.56 320.123C1769.56 322.572 1769.13 324.72 1768.26 326.565C1767.4 328.411 1766.15 329.835 1764.54 330.838C1762.93 331.84 1761.08 332.342 1759 332.342C1756.94 332.342 1755.1 331.846 1753.48 330.855C1751.86 329.864 1750.61 328.451 1749.72 326.617C1748.83 324.771 1748.38 322.652 1748.37 320.259V319.029C1748.37 316.579 1748.81 314.426 1749.69 312.569C1750.57 310.7 1751.82 309.271 1753.43 308.279C1755.05 307.277 1756.89 306.775 1758.97 306.775C1761.04 306.775 1762.88 307.277 1764.49 308.279C1766.1 309.271 1767.35 310.7 1768.23 312.569C1769.12 314.426 1769.56 316.574 1769.56 319.012V320.123ZM1764.37 318.995C1764.37 316.386 1763.9 314.403 1762.96 313.047C1762.03 311.692 1760.7 311.014 1758.97 311.014C1757.25 311.014 1755.92 311.686 1754.98 313.03C1754.05 314.363 1753.58 316.323 1753.57 318.909V320.123C1753.57 322.663 1754.03 324.634 1754.97 326.036C1755.9 327.437 1757.25 328.138 1759 328.138C1760.72 328.138 1762.04 327.465 1762.96 326.121C1763.89 324.765 1764.35 322.794 1764.37 320.208V318.995ZM1793.52 332H1788.39L1778.41 315.628V332H1773.29V307.117H1778.41L1788.41 323.523V307.117H1793.52V332ZM1807.19 325.831L1812.83 307.117H1818.54L1809.88 332H1804.53L1795.9 307.117H1801.59L1807.19 325.831ZM1835.87 321.216H1826.03V327.881H1837.58V332H1820.9V307.117H1837.54V311.27H1826.03V317.2H1835.87V321.216ZM1849.17 318.328L1854.34 307.117H1859.95L1851.78 322.977V332H1846.57V322.977L1838.4 307.117H1844.02L1849.17 318.328ZM1865.93 324.361C1865.93 322.766 1866.12 321.495 1866.51 320.55C1866.9 319.604 1867.61 318.676 1868.63 317.764C1869.67 316.841 1870.36 316.095 1870.7 315.525C1871.04 314.944 1871.21 314.335 1871.21 313.697C1871.21 311.771 1870.32 310.809 1868.55 310.809C1867.7 310.809 1867.02 311.071 1866.51 311.595C1866.01 312.107 1865.75 312.819 1865.73 313.731H1860.77C1860.79 311.555 1861.49 309.852 1862.87 308.621C1864.26 307.391 1866.15 306.775 1868.55 306.775C1870.96 306.775 1872.84 307.362 1874.17 308.536C1875.5 309.698 1876.17 311.344 1876.17 313.475C1876.17 314.443 1875.95 315.36 1875.52 316.226C1875.09 317.081 1874.33 318.032 1873.25 319.08L1871.86 320.396C1871 321.228 1870.5 322.202 1870.37 323.318L1870.31 324.361H1865.93ZM1865.44 329.607C1865.44 328.844 1865.69 328.217 1866.2 327.728C1866.73 327.226 1867.4 326.976 1868.2 326.976C1869.01 326.976 1869.67 327.226 1870.19 327.728C1870.71 328.217 1870.97 328.844 1870.97 329.607C1870.97 330.359 1870.72 330.98 1870.2 331.47C1869.7 331.96 1869.04 332.205 1868.2 332.205C1867.37 332.205 1866.7 331.96 1866.19 331.47C1865.69 330.98 1865.44 330.359 1865.44 329.607ZM1887.84 322.276C1887.84 324.851 1887.47 327.329 1886.73 329.71C1885.99 332.091 1884.92 334.193 1883.53 336.016C1882.14 337.839 1880.66 339.092 1879.07 339.776L1878.12 337.161C1879.73 335.942 1881.01 334.062 1881.94 331.521C1882.88 328.981 1883.36 326.058 1883.4 322.754V321.849C1883.4 318.442 1882.93 315.44 1882 312.842C1881.07 310.245 1879.78 308.296 1878.12 306.998L1879.07 304.383C1880.62 305.055 1882.08 306.274 1883.45 308.04C1884.83 309.806 1885.89 311.862 1886.64 314.209C1887.41 316.556 1887.81 318.989 1887.84 321.507V322.276Z" fill="white"/>
<path d="M1823.01 450.712C1822.85 452.915 1824.51 454.831 1826.71 454.99L1862.62 457.581C1864.82 457.74 1866.74 456.083 1866.9 453.879C1867.06 451.676 1865.4 449.761 1863.19 449.602L1831.28 447.298L1833.58 415.381C1833.74 413.178 1832.08 411.263 1829.88 411.104C1827.68 410.945 1825.76 412.602 1825.6 414.805L1823.01 450.712ZM1928.38 357.975L1824.38 447.975L1829.62 454.025L1933.62 364.025L1928.38 357.975Z" fill="#CA1B1B"/>
<path d="M1311.65 910.119C1309.5 909.584 1307.33 910.889 1306.8 913.032L1298.09 947.963C1297.55 950.106 1298.86 952.277 1301 952.812C1303.14 953.346 1305.31 952.042 1305.85 949.898L1313.59 918.849L1344.64 926.591C1346.78 927.126 1348.96 925.821 1349.49 923.678C1350.02 921.534 1348.72 919.363 1346.58 918.829L1311.65 910.119ZM1358.75 986.243L1314.11 911.94L1307.25 916.06L1351.89 990.363L1358.75 986.243Z" fill="#CA1B1B"/>
<rect width="210" height="81" transform="translate(1228 988.303)" fill="#CA1B1B"/>
<path d="M1263.12 1033.78C1263.12 1032.81 1262.78 1032.07 1262.1 1031.55C1261.42 1031.03 1260.19 1030.48 1258.41 1029.91C1256.63 1029.33 1255.22 1028.76 1254.19 1028.2C1251.36 1026.68 1249.95 1024.62 1249.95 1022.03C1249.95 1020.69 1250.32 1019.49 1251.08 1018.45C1251.84 1017.39 1252.93 1016.56 1254.34 1015.97C1255.76 1015.37 1257.36 1015.08 1259.13 1015.08C1260.9 1015.08 1262.49 1015.4 1263.88 1016.05C1265.27 1016.69 1266.34 1017.6 1267.11 1018.77C1267.88 1019.94 1268.27 1021.28 1268.27 1022.77H1263.14C1263.14 1021.63 1262.78 1020.75 1262.06 1020.12C1261.35 1019.48 1260.34 1019.16 1259.04 1019.16C1257.79 1019.16 1256.81 1019.43 1256.12 1019.97C1255.42 1020.49 1255.08 1021.19 1255.08 1022.05C1255.08 1022.86 1255.48 1023.54 1256.29 1024.09C1257.11 1024.63 1258.31 1025.14 1259.89 1025.62C1262.81 1026.5 1264.94 1027.59 1266.27 1028.89C1267.6 1030.19 1268.27 1031.8 1268.27 1033.74C1268.27 1035.89 1267.45 1037.59 1265.82 1038.82C1264.2 1040.04 1262 1040.65 1259.25 1040.65C1257.33 1040.65 1255.59 1040.3 1254.02 1039.6C1252.44 1038.9 1251.24 1037.93 1250.41 1036.71C1249.59 1035.5 1249.18 1034.08 1249.18 1032.48H1254.32C1254.32 1035.22 1255.96 1036.59 1259.25 1036.59C1260.46 1036.59 1261.42 1036.35 1262.1 1035.86C1262.78 1035.36 1263.12 1034.66 1263.12 1033.78ZM1292.01 1040.3H1286.88V1029.64H1276.88V1040.3H1271.75V1015.42H1276.88V1025.5H1286.88V1015.42H1292.01V1040.3ZM1310.86 1035.18H1301.87L1300.16 1040.3H1294.71L1303.97 1015.42H1308.72L1318.03 1040.3H1312.58L1310.86 1035.18ZM1303.25 1031.02H1309.47L1306.34 1021.71L1303.25 1031.02ZM1320.36 1040.3V1015.42H1328.01C1330.2 1015.42 1332.16 1015.92 1333.88 1016.91C1335.61 1017.89 1336.96 1019.29 1337.93 1021.11C1338.9 1022.92 1339.38 1024.99 1339.38 1027.3V1028.44C1339.38 1030.76 1338.9 1032.81 1337.94 1034.61C1337 1036.41 1335.66 1037.81 1333.93 1038.8C1332.2 1039.79 1330.24 1040.29 1328.07 1040.3H1320.36ZM1325.49 1019.57V1036.18H1327.96C1329.97 1036.18 1331.5 1035.53 1332.56 1034.22C1333.62 1032.91 1334.16 1031.03 1334.18 1028.6V1027.28C1334.18 1024.75 1333.66 1022.84 1332.61 1021.54C1331.56 1020.23 1330.03 1019.57 1328.01 1019.57H1325.49ZM1363.56 1028.43C1363.56 1030.88 1363.13 1033.02 1362.26 1034.87C1361.4 1036.71 1360.15 1038.14 1358.54 1039.14C1356.93 1040.14 1355.08 1040.65 1353 1040.65C1350.94 1040.65 1349.1 1040.15 1347.48 1039.16C1345.86 1038.17 1344.61 1036.75 1343.72 1034.92C1342.83 1033.07 1342.38 1030.96 1342.37 1028.56V1027.33C1342.37 1024.88 1342.81 1022.73 1343.69 1020.87C1344.57 1019 1345.82 1017.57 1347.43 1016.58C1349.05 1015.58 1350.89 1015.08 1352.97 1015.08C1355.04 1015.08 1356.88 1015.58 1358.49 1016.58C1360.1 1017.57 1361.35 1019 1362.23 1020.87C1363.12 1022.73 1363.56 1024.88 1363.56 1027.32V1028.43ZM1358.37 1027.3C1358.37 1024.69 1357.9 1022.71 1356.96 1021.35C1356.03 1019.99 1354.7 1019.32 1352.97 1019.32C1351.25 1019.32 1349.92 1019.99 1348.98 1021.33C1348.05 1022.67 1347.58 1024.63 1347.57 1027.21V1028.43C1347.57 1030.97 1348.03 1032.94 1348.97 1034.34C1349.9 1035.74 1351.25 1036.44 1353 1036.44C1354.72 1036.44 1356.04 1035.77 1356.96 1034.42C1357.89 1033.07 1358.35 1031.1 1358.37 1028.51V1027.3ZM1386.67 1033.13L1390.02 1015.42H1395.13L1389.61 1040.3H1384.45L1380.4 1023.66L1376.34 1040.3H1371.18L1365.66 1015.42H1370.77L1374.14 1033.09L1378.24 1015.42H1382.58L1386.67 1033.13ZM1410.81 1033.78C1410.81 1032.81 1410.47 1032.07 1409.79 1031.55C1409.11 1031.03 1407.88 1030.48 1406.1 1029.91C1404.32 1029.33 1402.91 1028.76 1401.88 1028.2C1399.05 1026.68 1397.64 1024.62 1397.64 1022.03C1397.64 1020.69 1398.01 1019.49 1398.77 1018.45C1399.53 1017.39 1400.62 1016.56 1402.03 1015.97C1403.45 1015.37 1405.05 1015.08 1406.82 1015.08C1408.59 1015.08 1410.18 1015.4 1411.57 1016.05C1412.96 1016.69 1414.03 1017.6 1414.8 1018.77C1415.57 1019.94 1415.96 1021.28 1415.96 1022.77H1410.83C1410.83 1021.63 1410.47 1020.75 1409.76 1020.12C1409.04 1019.48 1408.03 1019.16 1406.73 1019.16C1405.48 1019.16 1404.5 1019.43 1403.81 1019.97C1403.11 1020.49 1402.77 1021.19 1402.77 1022.05C1402.77 1022.86 1403.17 1023.54 1403.98 1024.09C1404.8 1024.63 1406 1025.14 1407.58 1025.62C1410.5 1026.5 1412.63 1027.59 1413.96 1028.89C1415.29 1030.19 1415.96 1031.8 1415.96 1033.74C1415.96 1035.89 1415.14 1037.59 1413.52 1038.82C1411.89 1040.04 1409.69 1040.65 1406.94 1040.65C1405.02 1040.65 1403.28 1040.3 1401.71 1039.6C1400.13 1038.9 1398.93 1037.93 1398.1 1036.71C1397.28 1035.5 1396.87 1034.08 1396.87 1032.48H1402.01C1402.01 1035.22 1403.65 1036.59 1406.94 1036.59C1408.15 1036.59 1409.11 1036.35 1409.79 1035.86C1410.47 1035.36 1410.81 1034.66 1410.81 1033.78Z" fill="white"/>
</g>
<defs>
<clipPath id="clip0_4:8">
<rect width="2124" height="1187" fill="white"/>
</clipPath>
</defs>
</svg>
