<svg width="600" height="600" viewBox="0 0 600 600" fill="none" xmlns="http://www.w3.org/2000/svg">
<g id="gesture-3">
<g id="Frame 4">
<g id="Frame 3">
<rect width="350" height="122" transform="translate(52 45)" fill="black"/>
<path id="Gesture 3, flip card" d="M93.9092 93.8555C92.9863 94.9606 91.6818 95.8208 89.9956 96.436C88.3094 97.0399 86.4409 97.3418 84.3901 97.3418C82.2368 97.3418 80.3455 96.8747 78.7163 95.9404C77.0985 94.9948 75.8452 93.6276 74.9565 91.8389C74.0793 90.0501 73.6292 87.9481 73.6064 85.5327V83.8408C73.6064 81.3571 74.0223 79.2095 74.854 77.3979C75.6971 75.575 76.9048 74.1851 78.4771 73.228C80.0607 72.2596 81.9121 71.7754 84.0312 71.7754C86.9821 71.7754 89.2892 72.4818 90.9526 73.8945C92.616 75.2959 93.6016 77.341 93.9092 80.0298H88.9189C88.6911 78.6056 88.1841 77.5632 87.3979 76.9023C86.6232 76.2415 85.5522 75.9111 84.1851 75.9111C82.4419 75.9111 81.1146 76.5662 80.2031 77.8765C79.2917 79.1867 78.8302 81.1349 78.8188 83.7212V85.3105C78.8188 87.9196 79.3145 89.8906 80.3057 91.2236C81.2969 92.5566 82.7495 93.2231 84.6636 93.2231C86.589 93.2231 87.9619 92.813 88.7822 91.9927V87.7031H84.1167V83.9263H93.9092V93.8555ZM113.05 86.2163H103.206V92.8813H114.759V97H98.0791V72.1172H114.725V76.27H103.206V82.2002H113.05V86.2163ZM130.669 90.4717C130.669 89.5033 130.328 88.7627 129.644 88.25C128.96 87.7259 127.73 87.179 125.953 86.6094C124.175 86.0283 122.768 85.4587 121.731 84.9004C118.906 83.3737 117.493 81.3172 117.493 78.731C117.493 77.3866 117.869 76.1903 118.621 75.1421C119.384 74.0825 120.472 73.2565 121.885 72.6641C123.309 72.0716 124.904 71.7754 126.67 71.7754C128.448 71.7754 130.031 72.1001 131.421 72.7495C132.811 73.3875 133.888 74.2933 134.651 75.4668C135.426 76.6403 135.813 77.9733 135.813 79.4658H130.687C130.687 78.3265 130.328 77.4435 129.61 76.8169C128.892 76.1789 127.884 75.8599 126.585 75.8599C125.332 75.8599 124.358 76.1276 123.663 76.6631C122.968 77.1872 122.62 77.8822 122.62 78.748C122.62 79.557 123.025 80.2349 123.833 80.7817C124.654 81.3286 125.856 81.8413 127.439 82.3198C130.356 83.1971 132.481 84.2852 133.814 85.584C135.147 86.8828 135.813 88.5007 135.813 90.4375C135.813 92.5908 134.999 94.2827 133.37 95.5132C131.74 96.7323 129.547 97.3418 126.79 97.3418C124.876 97.3418 123.133 96.9943 121.561 96.2993C119.988 95.5929 118.786 94.6302 117.955 93.4111C117.134 92.1921 116.724 90.7793 116.724 89.1729H121.868C121.868 91.9186 123.509 93.2915 126.79 93.2915C128.009 93.2915 128.96 93.0465 129.644 92.5566C130.328 92.0553 130.669 91.3604 130.669 90.4717ZM158.03 76.27H150.408V97H145.281V76.27H137.762V72.1172H158.03V76.27ZM179.803 72.1172V88.5063C179.803 91.2293 178.948 93.3826 177.239 94.9663C175.542 96.55 173.217 97.3418 170.267 97.3418C167.361 97.3418 165.054 96.5728 163.345 95.0347C161.636 93.4966 160.765 91.3831 160.73 88.6943V72.1172H165.857V88.5405C165.857 90.1698 166.245 91.3604 167.02 92.1123C167.806 92.8529 168.888 93.2231 170.267 93.2231C173.149 93.2231 174.613 91.7078 174.659 88.6772V72.1172H179.803ZM193.218 87.8911H189.134V97H184.007V72.1172H193.252C196.192 72.1172 198.459 72.7723 200.054 74.0825C201.649 75.3927 202.447 77.2441 202.447 79.6367C202.447 81.3343 202.076 82.7528 201.336 83.8921C200.607 85.02 199.496 85.9201 198.003 86.5923L203.387 96.7607V97H197.884L193.218 87.8911ZM189.134 83.7383H193.27C194.557 83.7383 195.554 83.4136 196.26 82.7642C196.967 82.1034 197.32 81.1976 197.32 80.0469C197.32 78.8734 196.984 77.9505 196.312 77.2783C195.651 76.6061 194.631 76.27 193.252 76.27H189.134V83.7383ZM221.331 86.2163H211.487V92.8813H223.04V97H206.36V72.1172H223.006V76.27H211.487V82.2002H221.331V86.2163ZM239.258 82.3711H241.89C243.143 82.3711 244.072 82.0578 244.676 81.4312C245.28 80.8045 245.582 79.9728 245.582 78.936C245.582 77.9334 245.28 77.153 244.676 76.5947C244.083 76.0365 243.263 75.7573 242.215 75.7573C241.269 75.7573 240.477 76.0194 239.839 76.5435C239.201 77.0562 238.882 77.7284 238.882 78.5601H233.943C233.943 77.2612 234.291 76.0991 234.986 75.0737C235.692 74.0369 236.672 73.228 237.925 72.647C239.19 72.0659 240.58 71.7754 242.095 71.7754C244.727 71.7754 246.789 72.4077 248.282 73.6724C249.774 74.9256 250.521 76.6574 250.521 78.8677C250.521 80.007 250.173 81.0552 249.478 82.0122C248.783 82.9692 247.872 83.7041 246.744 84.2168C248.145 84.7181 249.188 85.4701 249.871 86.4727C250.566 87.4753 250.914 88.6602 250.914 90.0273C250.914 92.2376 250.105 94.0093 248.487 95.3423C246.88 96.6753 244.75 97.3418 242.095 97.3418C239.611 97.3418 237.578 96.6867 235.994 95.3765C234.422 94.0662 233.636 92.3345 233.636 90.1812H238.575C238.575 91.1154 238.922 91.8787 239.617 92.4712C240.324 93.0636 241.189 93.3599 242.215 93.3599C243.388 93.3599 244.306 93.0522 244.966 92.437C245.639 91.8104 245.975 90.9844 245.975 89.959C245.975 87.4753 244.607 86.2334 241.873 86.2334H239.258V82.3711ZM255.818 103.238L253.238 101.888L253.853 100.777C254.616 99.3869 255.009 98.0026 255.032 96.624V92.7959H259.202L259.185 96.2139C259.174 97.4785 258.855 98.7546 258.228 100.042C257.601 101.329 256.798 102.395 255.818 103.238ZM287.093 86.8315H277.249V97H272.122V72.1172H288.323V76.27H277.249V82.6958H287.093V86.8315ZM296.424 92.8813H307.31V97H291.297V72.1172H296.424V92.8813ZM315.718 97H310.591V72.1172H315.718V97ZM325.613 88.2329V97H320.486V72.1172H330.193C332.062 72.1172 333.702 72.459 335.115 73.1426C336.539 73.8262 337.633 74.8003 338.396 76.0649C339.16 77.3182 339.542 78.748 339.542 80.3545C339.542 82.7926 338.704 84.7181 337.029 86.1309C335.366 87.5322 333.059 88.2329 330.108 88.2329H325.613ZM325.613 84.0801H330.193C331.549 84.0801 332.58 83.7611 333.287 83.123C334.004 82.485 334.363 81.5736 334.363 80.3887C334.363 79.1696 334.004 78.1841 333.287 77.4321C332.569 76.6802 331.578 76.2928 330.313 76.27H325.613V84.0801ZM93.7554 129.711C93.5617 132.389 92.5705 134.497 90.7817 136.035C89.0044 137.573 86.6574 138.342 83.7407 138.342C80.5506 138.342 78.0384 137.271 76.2041 135.129C74.3812 132.976 73.4697 130.025 73.4697 126.276V124.755C73.4697 122.363 73.8913 120.255 74.7344 118.432C75.5775 116.609 76.7795 115.214 78.3403 114.245C79.9126 113.265 81.7355 112.775 83.8091 112.775C86.6802 112.775 88.993 113.544 90.7476 115.083C92.5021 116.621 93.5161 118.78 93.7896 121.56H88.6626C88.5373 119.953 88.0872 118.791 87.3125 118.073C86.5492 117.344 85.3813 116.979 83.8091 116.979C82.1001 116.979 80.8184 117.595 79.9639 118.825C79.1208 120.044 78.6878 121.941 78.665 124.516V126.396C78.665 129.085 79.0695 131.05 79.8784 132.292C80.6987 133.534 81.9862 134.155 83.7407 134.155C85.3244 134.155 86.5036 133.796 87.2783 133.078C88.0645 132.349 88.5145 131.227 88.6284 129.711H93.7554ZM111.17 132.873H102.181L100.472 138H95.02L104.283 113.117H109.034L118.348 138H112.896L111.17 132.873ZM103.565 128.72H109.786L106.658 119.406L103.565 128.72ZM129.883 128.891H125.799V138H120.672V113.117H129.917C132.857 113.117 135.124 113.772 136.719 115.083C138.314 116.393 139.112 118.244 139.112 120.637C139.112 122.334 138.742 123.753 138.001 124.892C137.272 126.02 136.161 126.92 134.668 127.592L140.052 137.761V138H134.549L129.883 128.891ZM125.799 124.738H129.935C131.222 124.738 132.219 124.414 132.925 123.764C133.632 123.103 133.985 122.198 133.985 121.047C133.985 119.873 133.649 118.951 132.977 118.278C132.316 117.606 131.296 117.27 129.917 117.27H125.799V124.738ZM143.025 138V113.117H150.682C152.869 113.117 154.823 113.613 156.543 114.604C158.275 115.584 159.625 116.985 160.594 118.808C161.562 120.62 162.046 122.682 162.046 124.995V126.14C162.046 128.452 161.568 130.509 160.611 132.309C159.665 134.109 158.326 135.505 156.595 136.496C154.863 137.487 152.909 137.989 150.733 138H143.025ZM148.152 117.27V133.881H150.63C152.636 133.881 154.168 133.226 155.228 131.916C156.287 130.606 156.828 128.732 156.851 126.293V124.978C156.851 122.448 156.327 120.534 155.279 119.235C154.231 117.925 152.698 117.27 150.682 117.27H148.152Z" fill="white"/>
</g>
<path id="Line 1" d="M284.083 254.957C286.268 254.636 287.779 252.603 287.457 250.417L282.214 214.801C281.893 212.616 279.86 211.105 277.674 211.426C275.489 211.748 273.978 213.781 274.3 215.966L278.96 247.625L247.301 252.286C245.116 252.607 243.605 254.64 243.926 256.826C244.248 259.011 246.281 260.522 248.466 260.2L284.083 254.957ZM168.114 170.21L281.114 254.21L285.886 247.79L172.886 163.79L168.114 170.21Z" fill="black"/>
</g>
</g>
</svg>
