<svg width="1709" height="1187" viewBox="0 0 1709 1187" fill="none" xmlns="http://www.w3.org/2000/svg">
<g id="map-1" clip-path="url(#clip0_4:8)">
<path id="Vector 1" d="M386 739.5L256 1022L489 1098.5L534.5 995.5L714 896L954.5 957L848 1232L1088.5 1197.5V1022L1130.5 1071.5L1210.5 957L1619 789V896H2004.5V762.5L1688 399.5L1619 231.5L1478 178.5L1413 273.5L1455 453L1359.5 556.5L1646 739.5L1088.5 529.5L1054 346.5L989 273.5L954.5 140L779 178.5V346.5L714 587L534.5 621L641.5 556.5L622.5 399.5L534.5 315.5L416.5 399.5V587L386 739.5Z" fill="white"/>
<path id="c4ef847838e8ec032e33dcf60c0c99de1565f698ea52868db2d26c4e46ae336a (Traced)" fill-rule="evenodd" clip-rule="evenodd" d="M884.648 174.334C855.683 179.494 815.566 193.987 815.566 199.292C815.566 201.078 815.862 200.987 823.002 196.995C831.623 192.176 850.506 185.921 870.361 181.309C890.788 176.564 917.742 175.942 932.583 179.874C951.581 184.909 963.931 193.66 969.741 206.203C974.53 216.545 973.856 234.329 968.03 251.327C965.503 258.695 961.228 269.325 958.529 274.95C954.566 283.209 952.697 285.563 948.825 287.182C946.187 288.284 942.564 290.903 940.773 293.001C936.762 297.703 930.05 300.681 923.464 300.681C920.725 300.681 918.485 301.303 918.485 302.064C918.485 304.384 925.284 305.317 931.21 303.813C936.582 302.449 936.813 302.531 936.813 305.781C936.813 311.049 942.325 321.512 947.203 325.503L951.616 329.112L944.871 328.199C941.087 327.687 936.078 327.962 933.459 328.827C922.132 332.566 922.179 349.97 933.56 366.784C936.512 371.144 939.338 375.699 939.838 376.906C940.913 379.495 951.33 383.248 953.58 381.856C956.607 379.985 955.077 377.342 949.559 374.907C939.449 370.445 929.851 354.787 929.794 342.664C929.748 332.778 932.82 331.185 948.252 333.088C954.754 333.889 961.819 334.933 963.952 335.404C967.105 336.102 967.829 335.77 967.826 333.631C967.824 331.87 965.232 329.645 960.003 326.912C950.66 322.029 943.084 313.657 941.797 306.792C941.282 304.048 941.061 301.613 941.304 301.382C941.547 301.15 945.237 298.303 949.501 295.053L957.255 289.145L970.649 289.905C978.015 290.323 988.212 291.958 993.308 293.537C1004.13 296.889 1021.39 308.429 1023.93 314.001C1026.39 319.386 1022.99 325.915 1013.84 333.417C1009.86 336.681 1002.8 343.118 998.156 347.722C993.512 352.328 987.803 356.984 985.468 358.07L981.223 360.045L985.433 359.16C987.749 358.673 994.016 354.676 999.361 350.278C1004.71 345.878 1010.74 341.062 1012.77 339.576C1025.14 330.532 1031.11 321.346 1029.3 314.139C1028.21 309.783 1015.59 298.536 1006.8 294.081C995.791 288.5 987.887 286.515 973.046 285.601C963.768 285.031 959.456 284.242 959.922 283.198C974.365 250.806 978.254 237.096 977.356 221.714C975.977 198.103 962.397 183.073 936.032 175.977C924.403 172.848 897.771 171.996 884.648 174.334ZM788.044 205.3C778.809 214.941 775.736 225.868 775.896 248.506C776.024 266.71 778.863 287.414 782.388 295.853C785.522 303.356 791.489 310.375 797.81 314.001C807.021 319.282 811.43 319.761 802.877 314.552C793.407 308.783 786.814 299.437 784.379 288.328C783.303 283.418 782.571 269.138 782.519 252.032C782.425 220.688 783.303 216.77 792.852 205.891C799.649 198.148 795.397 197.626 788.044 205.3ZM814.043 360.715C787.669 392.546 778.472 408.022 768.312 437.653C763.878 450.588 762.8 452.552 760.466 451.941C757.485 451.162 756.808 454.195 759.034 458.358C759.924 460.019 758.24 467.227 753.443 482.298C744.697 509.772 737.693 537.713 738.277 542.798C738.548 545.166 739.575 546.747 740.844 546.747C742.435 546.747 743.404 543.598 744.755 534.056C747.712 513.179 759.652 467.075 762.103 467.075C762.69 467.075 764.886 472.309 766.983 478.708C773.571 498.808 780.949 511.919 800.035 537.445C810.128 550.943 818.386 562.4 818.386 562.907C818.386 564.188 778.552 575.654 774.095 575.654C772.091 575.654 770.451 576.22 770.451 576.912C770.451 577.603 768.707 578.593 766.574 579.11C761.648 580.307 653.253 615.338 622.417 625.698C581.554 639.428 553.273 647.848 550.977 646.967C549.751 646.496 548.035 646.968 547.164 648.016C546.293 649.063 537.048 652.634 526.618 655.948C508.062 661.846 501.17 664.968 501.17 667.474C501.17 669.743 506.283 668.785 525.114 662.984C535.358 659.827 544.04 657.545 544.405 657.911C545.489 658.995 531.591 752.986 530.13 754.446C529.869 754.707 524.142 752.974 517.405 750.595C510.666 748.217 496.167 743.704 485.186 740.566C461.248 733.727 426.449 722.353 426.449 721.367C426.449 720.978 427.679 715.796 429.182 709.851C435.415 685.212 438.14 666.711 438.287 648.054C438.421 630.891 437.709 625.967 435.419 628.256C434.926 628.749 433.666 638.215 432.62 649.29C429.612 681.097 421.414 719.263 417.813 718.217C394.588 711.468 386.981 709.615 382.498 709.615C373.647 709.615 376.313 711.571 389.912 715.056C403.292 718.484 417.99 724.309 417.99 726.184C417.99 730.024 401.713 783.523 389.137 821.015C370.426 876.8 360.668 908.234 352.573 938.792C346.003 963.599 339.542 983.317 332.074 1001.35C325.835 1016.42 326.901 1016.87 334.319 1002.31C343.101 985.075 348.783 969.713 359.597 933.979C368.834 903.452 381.53 864.785 401.75 805.591C407.695 788.189 415.362 763.816 418.786 751.431C422.212 739.045 425.184 728.741 425.393 728.534C425.6 728.326 436.232 731.585 449.019 735.777C461.806 739.97 480.833 745.902 491.302 748.962C501.77 752.023 512.238 755.293 514.564 756.231C518.736 757.913 518.661 757.963 509.152 759.797C497.656 762.015 468.506 769.953 462.047 772.624C457.53 774.492 456.301 776.414 458.682 777.888C459.352 778.301 471.245 775.791 485.109 772.308C498.975 768.825 514.548 765.583 519.717 765.102L529.112 764.229L527.134 774.643C524.275 789.692 524.754 789.081 516.655 788.007C512.293 787.429 509.63 787.609 509.63 788.483C509.63 790.503 514.47 792.812 518.7 792.812C523.288 792.812 523.284 793.001 518.163 817.86C515.885 828.921 512.666 848.91 511.013 862.279C509.357 875.647 506.504 897.056 504.67 909.852C502.835 922.649 500.316 945.81 499.071 961.322C497.228 984.269 495.758 993.8 491.177 1012.47C488.083 1025.09 485.217 1036.51 484.811 1037.85C484.405 1039.19 484.987 1038.7 486.103 1036.76C488.703 1032.25 497.749 999.375 499.684 987.409C500.499 982.368 502.146 968.408 503.344 956.386C504.541 944.365 507.409 922.834 509.716 908.539C512.023 894.245 515.444 871.718 517.319 858.48C520.119 838.716 524.175 816.885 528.629 797.617C529.286 794.772 530.484 794.619 561.413 793.443C611.203 791.548 604.055 790.441 632.925 804.521C646.847 811.31 659.218 817.735 660.417 818.795C661.617 819.856 663.549 820.947 664.713 821.222C668.387 822.088 692.909 835.353 692.909 836.474C692.909 837.065 662.932 844.988 626.294 854.083C561.481 870.173 541.354 876.222 534.711 881.609C529.24 886.045 532.931 886.341 543.015 882.275C548.303 880.142 580.545 871.477 614.663 863.019C648.781 854.56 682.406 846.035 689.385 844.072L702.073 840.503L720.049 849.399C729.936 854.292 738.015 858.632 738.002 859.044C737.989 859.456 730.585 863.6 721.546 868.254C712.508 872.907 698.562 880.769 690.552 885.722C677.271 893.938 673.568 897.161 677.411 897.161C678.192 897.161 694.06 889.476 712.671 880.082L746.51 863.004L763.768 870.884C780.337 878.449 803.3 888.162 814.581 892.375C817.529 893.477 830.534 898.88 843.482 904.382C863.037 912.694 924.317 937.092 953.378 948.136C957.45 949.683 960.78 951.145 960.78 951.385C960.78 951.623 958.529 958.039 955.778 965.642C949.425 983.194 925.175 1062.39 920.669 1080.3C914.585 1104.48 908.709 1141.89 901.481 1202.45C900.554 1210.21 898.359 1221.15 896.603 1226.78C894.844 1232.4 893.949 1237 894.61 1237C896.548 1237 901.474 1219.27 904.406 1201.75C905.899 1192.83 909.06 1172.84 911.43 1157.33C916.37 1125.01 923.299 1087.58 926.445 1076.25C931.981 1056.28 958.309 971.535 961.639 962.956C964.881 954.602 965.784 953.405 968.368 954.027C970.01 954.422 987.48 959.425 1007.19 965.145C1037.96 974.075 1043.23 976.001 1044.47 978.776C1045.75 981.663 1046.56 981.909 1052.02 981.092C1056.01 980.494 1060.86 980.975 1066.04 982.479L1073.96 984.78L1072.97 999.138C1072.43 1007.03 1070.48 1026.82 1068.64 1043.11C1062.91 1093.63 1061.74 1112.26 1061.66 1153.8C1061.6 1186.91 1062.05 1196.79 1064.25 1209.89C1065.71 1218.64 1067.13 1225.58 1067.4 1225.3C1067.67 1225.04 1066.96 1215.66 1065.82 1204.47C1063.19 1178.53 1063.19 1165.2 1065.86 1125.8C1068.1 1092.82 1070.06 1072.11 1074.95 1029.71C1076.52 1016.14 1077.81 1002.5 1077.82 999.396C1077.85 989.191 1078.97 987.145 1083.97 988.138C1086.39 988.619 1091.47 990.57 1095.27 992.475C1099.06 994.382 1102.46 995.643 1102.83 995.276C1104.02 994.084 1094.19 988.88 1086.53 986.646L1079.05 984.465L1079.48 978.536C1079.91 972.648 1079.97 972.589 1088.6 969.52L1097.28 966.432L1105.26 979.023C1115.31 994.877 1124.05 1003.77 1131.6 1005.8C1136.69 1007.17 1138.13 1006.93 1145.04 1003.55C1157.52 997.445 1169.32 979.177 1181.41 947.221C1184.35 939.465 1187.46 932.402 1188.32 931.524C1190.59 929.205 1226.02 915.442 1227.44 916.323C1228.11 916.734 1228.65 918.19 1228.65 919.561C1228.65 923.374 1234.64 928.184 1239.39 928.184C1244.9 928.184 1251.36 921.541 1255.94 911.171L1259.4 903.323L1286.67 893.702C1344.34 873.358 1377.85 860.858 1430.26 840.15C1460.11 828.353 1496.59 814.081 1511.32 808.435C1538.63 797.971 1577.2 780.134 1592.86 770.73C1616.77 756.376 1655.85 729.521 1662.47 722.906C1671.82 713.555 1672.31 710.041 1663.1 718.314C1659.35 721.692 1651.67 727.544 1646.05 731.318L1635.82 738.182L1630.51 735.196C1627.59 733.555 1607.82 727.472 1586.59 721.678C1533.5 707.194 1535.17 707.707 1476.35 687.701C1440.12 675.376 1411.75 664.634 1384.56 652.946C1331.51 630.138 1280.68 609.821 1244.16 596.824C1233.69 593.099 1214.34 585.942 1201.16 580.921C1187.98 575.899 1163.23 567.238 1146.17 561.676C1129.12 556.113 1101.71 546.734 1085.28 540.833L1055.39 530.104L1056.22 525.734C1056.67 523.332 1058.03 520.215 1059.25 518.811C1060.82 517.004 1061.01 515.969 1059.88 515.273C1059 514.731 1057.56 508.995 1056.68 502.527C1052.23 470.057 1039.23 441.425 1011.75 403.62C1001.25 389.164 981.361 366.956 978.921 366.956C976.669 366.956 977.667 370.721 980.631 373.403C985.055 377.408 1010.11 411.086 1019.29 425.38C1029.2 440.789 1039.95 462.013 1043.7 473.587C1048.97 489.806 1053.42 515.644 1051.19 517.026C1049.56 518.03 1014.02 523.48 1009.09 523.48C1006.38 523.48 1002.32 521.278 996.726 516.772C989.253 510.752 985.572 506.674 977.284 495.241C975.894 493.321 976.49 495.121 978.61 499.238C980.815 503.518 986.601 510.626 992.118 515.831C997.89 521.277 1001.04 525.184 999.956 525.551C998.957 525.888 986.087 528.109 971.354 530.485C956.621 532.861 931.323 537.468 915.134 540.72L885.702 546.634L882.469 542.578C875.035 533.253 874.97 534.762 884.314 499.154C889.046 481.122 894.616 457.803 896.691 447.333C898.768 436.863 902.962 420.365 906.013 410.67C909.064 400.976 911.837 389.871 912.177 385.993L912.795 378.942L910.577 385.993C909.356 389.871 906.115 399.072 903.374 406.44C900.632 413.808 896.543 427.451 894.288 436.757C892.032 446.064 887.278 464.783 883.724 478.356C880.168 491.928 875.989 507.951 874.435 513.961C872.882 519.971 871.214 524.864 870.728 524.832C867.835 524.642 837.839 472.198 834.669 461.787C834.138 460.041 832.796 458.614 831.685 458.614C829.123 458.614 829.143 458.943 832.364 469.537C835.684 480.458 845.102 498.02 858.875 518.967C868.076 532.963 869.302 535.573 868.554 539.561C867.469 545.344 869.072 547.05 871.975 543.202L874.213 540.233L876.143 543.84C877.204 545.824 877.808 547.673 877.484 547.947C876.615 548.683 825.06 561.671 824.772 561.226C824.637 561.018 818.197 552.281 810.46 541.811C785.456 507.973 779.661 497.844 772.54 475.536C771.178 471.27 768.824 465.311 767.308 462.295L764.552 456.809L769.136 443.258C779.893 411.457 786.783 399.032 811.222 367.368C820.076 355.895 827.925 345.717 828.665 344.747C829.405 343.778 829.722 342.984 829.371 342.984C829.02 342.984 822.123 350.963 814.043 360.715ZM514.869 353.476C504.754 356.373 487.715 364.84 477.9 371.845C468.017 378.899 455.569 391.932 452.441 398.502C450.512 402.552 450.716 402.451 454.933 397.274C472.159 376.124 497.372 360.828 521.954 356.615C549.938 351.819 582.655 373.973 601.781 410.67C619.566 444.794 621.468 478.102 607.326 507.839C597.793 527.886 564.468 555.484 534.302 568.313C519.589 574.57 498.621 579.884 488.65 579.884C468.29 579.884 438.288 564.963 435.386 553.393C434 547.872 436.532 545.273 442.854 545.727C446.897 546.018 447.756 545.751 446.186 544.692C443.037 542.566 435.497 542.927 433.529 545.298C432.581 546.441 431.806 549.673 431.806 552.479C431.806 559.321 437.397 566.031 448.885 572.978C473.254 587.712 493.571 589.119 526.754 578.371C565.916 565.686 601.199 538.896 615.303 511.137C630.177 481.861 628.105 441.296 610.084 408.926C602.709 395.679 588.1 377.716 578.032 369.513C573.366 365.711 564.86 360.268 559.132 357.417C549.579 352.663 547.595 352.205 535.165 351.889C526.872 351.678 518.997 352.293 514.869 353.476ZM1300.04 482.155C1299.55 482.651 1299.14 484.404 1299.14 486.051C1299.14 492.396 1294.75 505.374 1286.49 523.411C1281.76 533.733 1278.16 542.444 1278.49 542.771C1279.27 543.553 1287.67 528.431 1294.07 514.727C1298.97 504.247 1303.37 490.256 1303.37 485.193C1303.37 482.497 1301.45 480.746 1300.04 482.155ZM972.103 486.111C972.103 486.887 972.717 488.473 973.469 489.637C974.22 490.8 974.835 491.117 974.835 490.342C974.835 489.566 974.22 487.98 973.469 486.817C972.717 485.653 972.103 485.336 972.103 486.111ZM1224.42 511.619C1224.42 512.075 1227.29 515.724 1230.8 519.727C1236.86 526.637 1241.31 536.783 1241.36 543.83C1241.37 545.434 1241.92 547.6 1242.58 548.643C1244.71 551.995 1245.73 543.867 1244.1 536.567C1242.22 528.173 1237.11 519.273 1231.39 514.462C1227.23 510.963 1224.42 509.817 1224.42 511.619ZM1051.01 524.89C1051.01 528.175 1050.27 528.292 1043.82 526.025C1039.09 524.361 1039.07 524.326 1042.55 523.344C1048.94 521.542 1051.01 521.92 1051.01 524.89ZM1044.67 535.123C1041.28 537.021 1033.03 535.693 1024.8 531.921L1017.88 528.753L1024.93 527.157C1031.56 525.655 1032.43 525.805 1039.55 529.655C1045.97 533.122 1046.75 533.96 1044.67 535.123ZM1016.58 532.132C1019.79 534.586 1037.18 540.401 1041.31 540.401C1043.69 540.401 1047.36 539.384 1049.46 538.142C1053.17 535.955 1054.2 536.217 1082.11 546.434C1097.96 552.236 1123.93 561.258 1139.83 566.485C1155.73 571.711 1184.91 581.98 1204.68 589.305C1224.46 596.63 1250.15 606.144 1261.78 610.447C1290.96 621.242 1352.99 646.177 1389.37 661.731C1435.46 681.433 1514.3 707.228 1585.45 725.884C1605.17 731.052 1621.84 735.614 1622.5 736.02C1623.17 736.427 1622.85 737.306 1621.8 737.973C1620.49 738.796 1621.32 739.191 1624.38 739.207C1626.86 739.218 1629.24 739.813 1629.68 740.529C1630.79 742.31 1591.72 765.47 1568.42 776.847C1547.36 787.134 1523.42 796.845 1478.9 813.159C1462.61 819.125 1436.92 828.816 1421.8 834.693C1377.74 851.819 1356.3 859.747 1307.77 876.846C1282.67 885.693 1261.89 892.931 1261.6 892.931C1261.31 892.931 1261.08 890.919 1261.08 888.459C1261.08 883.042 1257.59 878.83 1253.1 878.83C1250.38 878.83 1249.8 878.095 1249.8 874.649C1249.8 867.866 1244.02 866.373 1238.02 871.607C1233.81 875.287 1231.28 881.398 1228.7 894.152L1226.28 906.123L1209.01 913.029C1199.51 916.828 1191.44 919.64 1191.08 919.278C1190.11 918.313 1194.54 889.798 1195.83 888.653C1196.44 888.118 1208.42 880.358 1222.47 871.408C1236.52 862.458 1257.06 849.097 1268.11 841.718L1288.2 828.301L1294.73 830.409C1302.83 833.021 1315.93 834.584 1313.95 832.699C1313.17 831.964 1308.57 830.203 1303.73 828.786C1294.54 826.1 1293.82 825.49 1296.58 822.731C1299.49 819.819 1296.47 819.014 1291.51 821.379C1287.05 823.504 1286.14 823.481 1278.09 821.044C1273.34 819.606 1266.88 817.993 1263.72 817.46C1258.38 816.556 1258.05 816.236 1258.9 812.76C1260.99 804.268 1261.39 785.587 1259.63 779.294C1257.59 771.991 1251.48 765.167 1244.29 762.163C1239.29 760.076 1221.11 759.55 1212.14 761.233C1209.11 761.801 1207.5 761.549 1207.5 760.507C1207.5 757.411 1200.02 747.653 1195.52 744.867C1188.91 740.782 1183.14 741.243 1177.36 746.321C1169.82 752.938 1167.79 760.607 1166.98 785.426C1166.31 805.973 1166.14 806.974 1163.27 807.554C1144.77 811.303 1129.96 816.753 1106.83 828.321C1089.06 837.213 1078.51 844.84 1059.58 862.496C1049.95 871.48 1041.54 878.83 1040.9 878.83C1040.26 878.83 1039.73 879.481 1039.73 880.276C1039.73 883.404 1048.46 876.913 1064.27 862.032C1083.28 844.141 1094.49 836.718 1119.68 825.348C1140.16 816.101 1149.14 812.918 1159.25 811.32L1166.3 810.205L1167.16 816.512C1167.64 819.981 1168.04 827.965 1168.05 834.256C1168.09 850.029 1170.36 870.193 1172.37 872.62C1174.44 875.11 1178.45 872.446 1177.27 869.369C1176.86 868.292 1175.88 857.129 1175.1 844.565C1174.32 832 1173.31 818.925 1172.85 815.51L1172.02 809.3L1190.49 810.275C1200.65 810.811 1209.77 811.563 1210.77 811.946C1212.11 812.458 1211.38 815.164 1208.01 822.239C1201.47 835.972 1192.31 863.275 1190.53 874.321C1189.7 879.515 1188.46 885.129 1187.78 886.797C1186.23 890.599 1159.36 903.926 1142.94 909.03C1122.25 915.466 1107.95 916.549 1088.2 913.179L1083.8 912.427L1082.89 897.391C1081.54 875.376 1080.47 867.549 1078.83 867.549C1077.83 867.549 1077.68 876.005 1078.35 893.98C1078.93 909.685 1078.82 919.842 1078.06 919.01C1077.36 918.238 1073.75 910.456 1070.04 901.713C1066.33 892.97 1063.02 886.088 1062.69 886.417C1062.36 886.747 1065.7 896.122 1070.11 907.248L1078.13 927.479L1077.22 945.095C1076.65 956.046 1075.65 963.32 1074.58 964.317C1072.38 966.367 1051.27 973.308 1047.24 973.308C1045.56 973.308 1034.77 970.42 1023.28 966.892C1011.78 963.362 994.848 958.162 985.654 955.333C976.46 952.504 968.655 949.457 968.311 948.56C967.967 947.663 970.33 940.332 973.56 932.269C981.059 913.554 989.286 889.652 993.72 873.698C998.554 856.3 999.094 853.448 997.552 853.448C996.809 853.448 992.925 863.76 988.918 876.362C979.664 905.478 963.677 946.515 961.591 946.515C959.537 946.515 878.087 914.056 851.213 902.527L830.65 893.706L845.314 891.28C859.164 888.987 874.644 884.598 886.339 879.649C889.823 878.174 892.348 875.771 893.941 872.412C897.558 864.788 895.659 863.795 881.403 865.857C864.027 868.369 862.989 867.922 875.744 863.423C890.725 858.138 903.659 851.193 910.332 844.853C914.809 840.596 915.665 838.857 915.665 834.008C915.665 829.058 914.455 826.73 907.199 817.707C893.528 800.709 871.261 782.942 863.629 782.942C861.528 782.942 858.579 783.845 857.073 784.95C854.688 786.7 854.021 786.671 851.87 784.731C850.513 783.506 849.402 781.78 849.402 780.894C849.402 779.079 880.351 763.292 899.095 755.543C905.877 752.74 919.2 748.172 928.702 745.393C943.267 741.133 948.189 740.328 960.075 740.267C975.214 740.19 982.382 742.02 992.121 748.45C998.248 752.496 1003.08 761.052 1003.08 767.87C1003.08 781.997 982.375 794.897 956.903 796.642C950.505 797.081 945.272 798.024 945.272 798.738C945.272 800.498 963.779 798.76 973.426 796.095C1005.32 787.282 1016.84 765.366 998.661 748.117C974.253 724.96 928.177 733.187 854.144 773.921L846.901 777.906L840.974 773.798C833.131 768.361 822.722 767.961 815.894 772.831C809.846 777.146 800.859 790.522 797.091 800.813C795.438 805.331 793.367 809.742 792.49 810.612C791.001 812.092 776.362 816.096 724.979 829.081L704.178 834.338L690.438 827.429L676.696 820.521L683.041 819.354C686.53 818.712 695.095 817.925 702.073 817.607C710.291 817.231 718.487 815.82 725.336 813.599C738.438 809.349 757.104 804.811 774.681 801.603C786.619 799.423 788.123 798.814 788.525 795.985C788.917 793.221 788.349 792.812 784.115 792.812C781.442 792.812 774.686 793.845 769.102 795.105C760.874 796.964 758.332 797.07 755.703 795.662C753.592 794.531 750.798 794.314 747.709 795.039C741.672 796.455 738.611 795.989 732.098 792.666C729.216 791.195 726.417 789.992 725.879 789.992C724.088 789.992 729.893 795.547 732.571 796.397C737.587 797.989 735.146 799.75 722.164 803.899C706.427 808.93 696.61 810.858 678.467 812.481L664.731 813.71L641.237 801.892C628.317 795.392 618.637 789.785 619.729 789.431C620.82 789.077 632.454 787.096 645.584 785.03C696.156 777.067 772.75 757.949 795.311 747.656C800.836 745.136 804.438 744.572 813.795 744.767C826.409 745.029 833.668 742.745 837.468 737.32C844.344 727.501 834.631 716.336 811.047 706.952L800.763 702.859L801.197 697.423C802.096 686.158 793.241 672.989 778.135 663.125C758.494 650.302 743.754 648.193 727.367 655.863C717.955 660.268 708.949 668.477 685.749 693.797C673.432 707.241 668.475 709.362 646.617 710.536C628.298 711.522 625.73 712.244 627.174 716.007C628.026 718.227 629.762 718.361 645.874 717.443C675.279 715.768 681.642 712.617 697.163 692.052C725.505 654.502 745.829 648.353 775.305 668.407C787.356 676.606 794.418 686.217 794.418 694.419C794.418 700.021 794.383 700.058 789.836 699.227C787.316 698.766 780.782 697.978 775.316 697.474C767.025 696.711 764.979 696.958 762.98 698.958C759.723 702.214 759.962 704.311 764.019 708.123C768.669 712.492 777.816 713.363 787.987 710.406C795.532 708.212 796.547 708.214 803.348 710.419C813.585 713.739 825.852 720.411 830.352 725.108C837.306 732.368 831.025 739.029 816.659 739.627C809.927 739.909 809.182 739.618 807.433 736.04C805.978 733.064 801.307 730.12 787.637 723.556C777.798 718.83 763.402 712.472 755.648 709.425C747.893 706.379 740.165 703.187 738.471 702.333C732.762 699.451 728.33 703.957 733.88 707.004C734.996 707.617 743.221 710.917 752.157 714.336C768.414 720.557 800.85 736.085 799.794 737.141C799.487 737.45 790.011 735.411 778.739 732.61C764.336 729.033 757.021 727.835 754.126 728.58C750.669 729.471 753.352 730.491 770.834 734.935C782.289 737.849 791.979 740.548 792.367 740.936C793.455 742.026 783.103 745.61 758.696 752.599C713.069 765.661 666.853 775.803 626.647 781.581L604.794 784.72L576.93 773.608C544.253 760.576 543.7 761.416 586.466 759.085C632.62 756.569 643.91 751.726 654.755 729.789C659.984 719.213 660.448 714.47 655.281 724.422C643.281 747.531 633.817 751.08 578.011 753.397C560.18 754.137 543.483 755.137 540.907 755.62C536.246 756.495 536.228 756.477 537.023 751.741C543.989 710.309 549.105 673.783 549.105 665.477C549.105 662.13 549.899 658.387 550.868 657.16C551.837 655.934 559.609 652.892 568.138 650.402C593.693 642.939 650.663 624.622 710.533 604.618C741.549 594.253 769.167 585.356 771.905 584.845C775.82 584.115 777.413 584.501 779.357 586.65C781.751 589.295 781.711 589.36 778.102 588.671C774.798 588.039 774.539 588.26 775.824 590.62C778.271 595.108 787.228 603.243 807.227 619.138C831.913 638.76 836.268 641.477 839.649 639.365C841.286 638.342 842.534 638.259 843.076 639.138C844.567 641.552 847.992 640.625 847.992 637.809C847.992 634.422 839.202 626.808 826.749 619.409C821.506 616.294 812.872 609.775 807.559 604.922C802.249 600.07 795.057 593.681 791.579 590.724C784.218 584.467 785.569 584.827 806.402 594.674C836.203 608.759 855.535 628.164 872.016 660.536C877.423 671.157 882.52 680.264 883.342 680.771C886.674 682.832 886.232 679.549 881.865 669.812C875.253 655.065 875.435 655.941 879.363 657.795C882.077 659.075 883.258 661.443 885.101 669.297C887.799 680.795 892.855 687.382 896.985 684.777C898.954 683.534 900.771 684.253 906.486 688.536C922.676 700.67 955.492 716.425 967.134 717.654C975.661 718.554 983.467 715.7 986.929 710.418C989.92 705.85 991.086 695.956 989.183 691.284C987.931 688.213 987.735 688.705 987.656 695.095C987.495 708.338 982.409 713.846 970.34 713.846C959.759 713.846 913.687 690.793 904.787 681.046C903.201 679.309 901.475 674.901 900.952 671.25C899.913 663.985 895.937 657.808 893.336 659.415C890.991 660.863 891.314 669.53 893.898 674.527C896.755 680.054 895.727 683.16 892.614 678.408C890.415 675.051 888.768 668.312 886.669 654.085C885.865 648.635 883.994 648.55 882.978 653.916C882.163 658.221 874.079 646.431 861.224 622.188C855.262 610.942 845.642 594.259 839.846 585.115C834.052 575.97 829.619 568.179 829.996 567.801C830.911 566.887 879.125 554.543 881.829 554.53C882.992 554.526 885.53 556.873 887.468 559.745C889.407 562.619 894.285 568.867 898.308 573.632C909.563 586.959 920.564 602.82 929.097 618.027C934.31 627.317 941.018 636.381 949.546 645.659C963.701 661.058 973.496 676.055 975.106 684.789C976.023 689.778 976.087 689.518 975.561 682.919C975.068 676.729 973.694 673.368 968.405 665.412C964.804 659.998 957.952 651.387 953.177 646.28C942.069 634.4 939.707 630.986 930.968 614.173C922.864 598.583 920.182 594.488 902.686 570.985C895.867 561.825 890.288 553.859 890.288 553.283C890.288 551.266 1009.01 529.005 1012.94 530.282C1014.11 530.66 1015.74 531.492 1016.58 532.132ZM1182.13 533.252C1182.13 534.749 1184.03 540.087 1186.36 545.114C1188.68 550.141 1190.58 555.224 1190.58 556.41C1190.58 559.534 1192.96 560.523 1193.99 557.83C1195.73 553.288 1191.29 538.166 1186.7 532.998C1183.84 529.773 1182.13 529.869 1182.13 533.252ZM1015.76 557.143C1015.76 557.819 1019.01 562.42 1022.97 567.367C1026.93 572.312 1031.98 578.972 1034.19 582.165L1038.2 587.971L1032.27 592.694C1015.78 605.826 1002.39 621.198 1003.33 625.925C1003.63 627.408 1006.04 625.261 1010.43 619.591C1016.38 611.924 1036.06 594.172 1040.23 592.716C1041.12 592.406 1042.16 591.718 1042.55 591.188C1045.12 587.674 1060.54 579.254 1069.76 576.325C1089.43 570.081 1107.55 571.883 1128.55 582.169C1149 592.186 1168.29 616.361 1177.35 643.34C1183.07 660.351 1179.16 696.432 1169.89 712.314C1161.33 726.968 1137.94 747.14 1118.28 756.828C1105.45 763.143 1093.27 765.441 1083.59 763.364C1072.74 761.037 1058.19 753.538 1051.45 746.795C1043.41 738.75 1043.6 741.687 1051.68 750.33C1062.92 762.347 1081.96 769.748 1097.88 768.286C1116.42 766.583 1139.16 754.636 1158.74 736.315C1171.64 724.241 1178.5 713.772 1182.36 700.256C1184.1 694.158 1185.77 688.853 1186.06 688.466C1187.11 687.063 1190.58 693.319 1190.58 696.621C1190.58 698.822 1189.6 700.266 1187.77 700.746C1184.47 701.607 1184.35 702.367 1186.95 705.8C1188.76 708.186 1189.04 708.114 1191.84 704.552C1196.05 699.206 1195.69 692.525 1190.94 687.431C1187.15 683.373 1187.06 682.888 1187 665.778C1186.95 650.526 1186.47 646.95 1183.24 637.973C1171.97 606.622 1149.45 582.332 1122.11 572.043C1096.26 562.309 1073.22 565.26 1047.78 581.561C1044.07 583.941 1040.83 585.648 1040.59 585.354C1040.34 585.06 1037.83 581.152 1034.99 576.671C1026.97 563.964 1015.76 552.59 1015.76 557.143ZM833.606 584.115C840.687 594.756 854.216 616.899 859.02 625.713C859.443 626.489 853.759 621.412 846.389 614.432C832.001 600.802 817.221 591.275 800.41 584.792C794.789 582.623 790.189 580.439 790.189 579.938C790.189 578.669 818.46 570.265 821.892 570.514C823.759 570.651 827.663 575.182 833.606 584.115ZM971.571 578.122C970.693 579.543 980.38 596.806 982.056 596.806C982.761 596.806 983.338 595.025 983.338 592.849C983.338 586.965 973.622 574.804 971.571 578.122ZM786.14 592.223C787.892 594.459 787.843 594.509 785.607 592.756C783.258 590.913 782.512 589.755 783.672 589.755C783.964 589.755 785.075 590.866 786.14 592.223ZM793.713 598.216C795.116 599.767 795.948 601.036 795.56 601.036C795.173 601.036 793.706 599.767 792.304 598.216C790.901 596.665 790.069 595.396 790.457 595.396C790.844 595.396 792.311 596.665 793.713 598.216ZM961.109 623.489C956.249 623.936 952.442 624.938 952.649 625.713C953.225 627.869 965.096 627.17 970.649 624.654C975.984 622.236 975.433 622.17 961.109 623.489ZM1055.81 632.834C1055.94 638.035 1056.71 641.103 1058.09 641.979C1060.95 643.788 1061.75 643.678 1064.3 641.124C1067.55 637.88 1067.01 632.421 1063.06 628.47C1057.38 622.793 1055.59 623.873 1055.81 632.834ZM1279.41 628.66C1279.41 629.117 1280.83 630.646 1282.57 632.057L1285.74 634.622L1281.96 636.346C1277.83 638.227 1273.02 637.221 1274.52 634.793C1275.04 633.96 1276.4 633.638 1277.55 634.079C1278.84 634.573 1279.4 634.204 1279.02 633.118C1278.39 631.31 1273.93 631.458 1271.96 633.35C1270.09 635.136 1272.38 638.809 1275.9 639.693C1279.9 640.699 1285.96 638.203 1287.17 635.052C1287.7 633.658 1286.86 631.836 1284.97 630.309C1281.92 627.831 1279.41 627.088 1279.41 628.66ZM1062.27 635.232C1062.25 637.797 1061.98 638 1060.88 636.289C1059.11 633.555 1059.11 632.059 1060.88 632.059C1061.65 632.059 1062.28 633.487 1062.27 635.232ZM933.125 647.218C933.528 648.574 934.537 654.762 935.369 660.966C936.899 672.383 941.555 692.268 943.048 693.761C944.282 694.995 944.023 691.12 942.521 685.882C941.782 683.31 940.161 674.113 938.918 665.445C936.283 647.088 935.705 644.75 933.803 644.75C933.027 644.75 932.723 645.861 933.125 647.218ZM943.973 697.746C944.041 699.389 944.375 699.723 944.825 698.599C945.232 697.581 945.182 696.364 944.714 695.896C944.245 695.428 943.913 696.26 943.973 697.746ZM779.371 703.487C783.044 704.095 784.169 704.757 782.896 705.565C779.927 707.448 772.652 706.985 769.663 704.725C767.021 702.725 767.048 702.654 770.451 702.625C772.389 702.609 776.403 702.998 779.371 703.487ZM1418.39 715.996C1415.35 717.151 1408.13 721.307 1402.34 725.232C1394.88 730.298 1391.38 731.933 1390.32 730.864C1389.49 730.035 1387.67 729.357 1386.27 729.357C1383.43 729.357 1382.82 733.517 1385.29 735.994C1386.44 737.135 1385.87 738.203 1383.18 739.964C1379.42 742.426 1378.43 745.446 1380.87 746.96C1381.63 747.425 1383.87 746.741 1385.85 745.441C1387.84 744.141 1389.66 743.321 1389.91 743.62C1390.16 743.919 1392.41 748.059 1394.92 752.821C1397.42 757.585 1401.25 763.189 1403.43 765.277C1407.19 768.883 1407.6 768.966 1411.47 766.962C1413.72 765.802 1425.67 761.894 1438.04 758.277C1455.73 753.109 1494.6 738.3 1497.81 735.508C1499.52 734.026 1496.39 733.706 1492.96 735.013C1490.78 735.839 1488.63 736.017 1488.18 735.405C1487.73 734.793 1484.82 734.254 1481.72 734.208C1477.59 734.146 1473.43 732.464 1466.21 727.95C1448.44 716.837 1443.14 714.64 1433.14 714.255C1427.55 714.037 1421.74 714.724 1418.39 715.996ZM1455.64 728.641C1463 732.817 1470.78 736.66 1472.92 737.182C1475.06 737.704 1477.11 738.609 1477.47 739.195C1478.43 740.756 1457.9 748.255 1434.49 754.89C1423.24 758.076 1412.97 761.252 1411.66 761.949C1409.81 762.926 1408.48 762.168 1405.82 758.625C1402.68 754.435 1395.01 740.263 1395.01 738.641C1395.01 736.839 1414.68 724.224 1420.99 721.982C1431.94 718.09 1439.63 719.568 1455.64 728.641ZM1190.41 748.302C1194.65 750.498 1201.86 760.357 1201.86 763.966C1201.86 765.195 1199.99 767.777 1197.71 769.701C1192.13 774.398 1185.78 787.498 1186.91 791.992C1188.02 796.438 1191.48 799.863 1194.87 799.863C1199.08 799.863 1206.86 792.066 1208.67 786.018C1209.58 782.982 1210.32 777.632 1210.32 774.13C1210.32 766.562 1211.33 766.068 1226.93 766.04C1244.45 766.006 1251.64 771.133 1254.32 785.549C1255.99 794.517 1254.31 810.012 1251.36 812.969C1250.51 813.819 1244.06 813.186 1233.8 811.244C1216.62 807.997 1186.49 805.518 1177.4 806.606L1171.96 807.256L1172.51 784.171C1173 763.554 1173.4 760.436 1176.25 755.023C1178.84 750.101 1182.12 747.204 1186.07 746.367C1186.3 746.319 1188.26 747.189 1190.41 748.302ZM562.418 774.485C576.332 779.911 588.069 784.393 588.501 784.44C588.932 784.49 587.872 785.099 586.143 785.794C583.192 786.982 532.552 788.007 531.447 786.901C531.166 786.621 531.468 783.869 532.118 780.788C532.768 777.707 533.714 772.807 534.217 769.898C534.722 766.99 535.582 764.611 536.128 764.614C536.675 764.616 548.505 769.057 562.418 774.485ZM1204.03 778.359C1202.04 789.242 1193.4 798.129 1193.4 789.298C1193.4 784.985 1195.38 780.731 1199.47 776.244C1203.68 771.62 1205.14 772.297 1204.03 778.359ZM835.36 777.329C838.431 778.897 840.942 780.642 840.94 781.207C840.939 781.774 838.243 783.943 834.949 786.027C826.929 791.102 819.108 799.271 821.093 800.499C821.941 801.024 823.024 800.437 823.501 799.197C824.411 796.823 841.065 784.352 843.325 784.352C845.878 784.352 850.812 792.75 850.812 797.094C850.812 802.662 857.481 809.734 862.731 809.734C868.408 809.734 868.456 806.286 862.883 798.984C857.24 791.593 857.107 789.489 862.245 788.871C868.774 788.084 891.038 806.231 903.163 822.222C909.979 831.211 910.134 831.61 906.975 832.089C905.163 832.362 896.068 831.871 886.763 831C869.218 829.356 859.598 829.91 827.55 834.412C790.206 839.659 774.827 843.441 755.848 852.049L746.491 856.293L728.512 847.271L710.533 838.249L716.172 836.719C719.274 835.879 736.715 831.049 754.93 825.987C773.145 820.926 788.553 816.784 789.168 816.784C789.784 816.784 789.609 818.054 788.779 819.605C787.949 821.156 786.34 822.425 785.205 822.425C782.531 822.425 782.566 824.424 785.281 826.678C787.933 828.879 791.847 825.815 794.468 819.485C795.556 816.856 797.54 815.041 799.884 814.527C808.639 812.603 817.836 809.243 819.796 807.252C821.681 805.336 821.604 805.212 819.091 806.103C813.66 808.03 799.468 811.024 798.823 810.38C797.634 809.19 808.754 788.813 813.828 782.885C821.482 773.941 826.288 772.701 835.36 777.329ZM1236.61 816.236C1242.7 817.484 1247.89 818.699 1248.15 818.935C1250.1 820.727 1234.31 840.975 1225.56 847.89C1219.95 852.325 1217.34 853.452 1212.66 853.469C1208.36 853.486 1207.36 853.854 1208.91 854.858C1210.08 855.609 1213.32 856.234 1216.12 856.247C1225.62 856.286 1244.12 840.613 1252.12 825.742C1253.73 822.753 1255.72 821.023 1257.52 821.039C1260.66 821.066 1280.69 826.063 1281.7 827.071C1282.51 827.885 1202.08 880.571 1197.12 882.476C1193.16 883.998 1198.67 862.911 1209.19 836.275C1214.32 823.292 1216.8 818.604 1218.22 819.152C1219.52 819.65 1220.19 818.898 1220.19 816.935C1220.19 813.297 1221.92 813.224 1236.61 816.236ZM907.843 837.885L913.416 837.788L910.7 840.79C906.55 845.377 891.748 853.163 876.515 858.772C863.2 863.675 862.097 863.841 839.081 864.421C819.385 864.916 815.225 865.386 814.533 867.192C813.36 870.251 817.598 872.917 825.273 873.948C828.851 874.427 833.365 875.355 835.304 876.009L838.828 877.197L835.304 877.312C833.365 877.377 826.302 878.895 819.608 880.685L807.437 883.941L782.281 872.887C768.445 866.807 756.585 861.295 755.927 860.636C754.537 859.246 771.569 851.868 783.859 848.539C788.504 847.281 805.944 844.076 822.615 841.416C851.042 836.881 854.461 836.625 877.599 837.282C891.169 837.667 904.78 837.938 907.843 837.885ZM863.119 868.4C862.651 868.869 861.434 868.919 860.417 868.512C859.292 868.062 859.627 867.728 861.269 867.66C862.755 867.599 863.587 867.932 863.119 868.4ZM1243.52 885.275C1240.97 889.159 1234.84 890.168 1236.25 886.47C1236.72 885.243 1237.11 883.706 1237.11 883.053C1237.11 882.4 1238.85 879.784 1240.99 877.239L1244.86 872.611L1245.31 877.231C1245.56 879.801 1244.77 883.369 1243.52 885.275ZM1253.07 895.83C1252.43 896.453 1250.1 897.409 1247.88 897.958C1244.01 898.917 1243.92 898.828 1245.59 895.589C1246.55 893.739 1248.68 890.738 1250.33 888.92L1253.32 885.617L1253.78 890.159C1254.03 892.656 1253.71 895.208 1253.07 895.83ZM1237.04 897.298C1233.59 904.068 1233.05 903.982 1233.94 896.809C1234.44 892.773 1235.24 891.521 1237.29 891.521C1239.9 891.521 1239.9 891.698 1237.04 897.298ZM1185.62 907.944C1184.34 915.586 1182.55 922.58 1181.65 923.485C1179.56 925.592 1151.38 937.422 1121.5 948.735C1103.81 955.433 1097.84 957.152 1096.58 955.908C1095.67 955.007 1092.35 949.512 1089.2 943.695C1084.27 934.579 1083.47 931.908 1083.46 924.341L1083.44 915.563L1088.02 916.586C1090.54 917.148 1101.17 917.569 1111.63 917.519C1129.12 917.437 1131.75 917.066 1144.06 912.96C1151.43 910.502 1164.12 905.15 1172.26 901.064C1180.4 896.978 1187.26 893.729 1187.5 893.843C1187.75 893.957 1186.9 900.303 1185.62 907.944ZM1052.42 897.133C1052.42 900.89 1057.3 909.951 1060.42 911.996C1065.39 915.255 1066.1 913.558 1061.88 908.535C1059.91 906.194 1057.88 902.36 1057.36 900.015C1056.52 896.169 1052.42 893.78 1052.42 897.133ZM1249.8 908.234C1249.8 910.188 1243.65 918.629 1241.05 920.246C1237.78 922.28 1237.15 921.243 1238.29 915.692C1238.99 912.283 1240.42 910.46 1243.47 909.118C1248.62 906.847 1249.8 906.682 1249.8 908.234ZM1179.31 935.808C1179.31 937.684 1165.8 968.157 1161.78 975.337C1152.31 992.285 1139.89 1002.89 1131.87 1000.88C1126.36 999.496 1116.6 989.538 1108.74 977.293C1104.77 971.099 1101.75 965.797 1102.04 965.513C1102.32 965.226 1112.69 961.185 1125.07 956.532C1137.45 951.878 1154.25 945.227 1162.39 941.749C1177.05 935.488 1179.31 934.696 1179.31 935.808ZM1089.33 960.201C1083.07 963.018 1080.15 962.539 1081.14 958.854C1081.61 957.11 1082 951.874 1082.02 947.221L1082.06 938.76L1087.58 948.631L1093.1 958.501L1089.33 960.201ZM1074.98 978.243C1074.98 982.2 1073.4 982.545 1066.43 980.114L1061.68 978.462L1066.57 976.696C1073.74 974.107 1074.98 974.336 1074.98 978.243Z" fill="black"/>
<g id="#example">
<g id="Frame 3">
<rect width="350" height="204" transform="translate(52 45)" fill="black"/>
<path id="PoCs around a table, interacting with A MAP" d="M79.3486 88.2329V97H74.2217V72.1172H83.9287C85.7972 72.1172 87.4378 72.459 88.8506 73.1426C90.2747 73.8262 91.3685 74.8003 92.1318 76.0649C92.8952 77.3182 93.2769 78.748 93.2769 80.3545C93.2769 82.7926 92.4395 84.7181 90.7646 86.1309C89.1012 87.5322 86.7941 88.2329 83.8433 88.2329H79.3486ZM79.3486 84.0801H83.9287C85.2845 84.0801 86.3156 83.7611 87.022 83.123C87.7397 82.485 88.0986 81.5736 88.0986 80.3887C88.0986 79.1696 87.7397 78.1841 87.022 77.4321C86.3042 76.6802 85.313 76.2928 84.0483 76.27H79.3486V84.0801ZM117.254 85.1226C117.254 87.5721 116.821 89.7197 115.955 91.5654C115.089 93.4111 113.847 94.8353 112.229 95.8379C110.623 96.8405 108.777 97.3418 106.692 97.3418C104.63 97.3418 102.79 96.8462 101.172 95.855C99.5545 94.8638 98.3013 93.451 97.4126 91.6167C96.5239 89.771 96.0739 87.6519 96.0625 85.2593V84.0288C96.0625 81.5793 96.5011 79.4259 97.3784 77.5688C98.2671 75.7004 99.5146 74.2705 101.121 73.2793C102.739 72.2767 104.585 71.7754 106.658 71.7754C108.732 71.7754 110.572 72.2767 112.178 73.2793C113.796 74.2705 115.044 75.7004 115.921 77.5688C116.81 79.4259 117.254 81.5736 117.254 84.0117V85.1226ZM112.059 83.9946C112.059 81.3856 111.591 79.4032 110.657 78.0474C109.723 76.6916 108.39 76.0137 106.658 76.0137C104.938 76.0137 103.611 76.6859 102.676 78.0303C101.742 79.3633 101.269 81.3229 101.258 83.9092V85.1226C101.258 87.6632 101.725 89.6343 102.659 91.0356C103.593 92.437 104.938 93.1377 106.692 93.1377C108.413 93.1377 109.734 92.4655 110.657 91.1211C111.58 89.7653 112.047 87.7943 112.059 85.208V83.9946ZM140.513 88.7114C140.319 91.3888 139.328 93.4966 137.54 95.0347C135.762 96.5728 133.415 97.3418 130.499 97.3418C127.308 97.3418 124.796 96.2708 122.962 94.1289C121.139 91.9756 120.228 89.0247 120.228 85.2764V83.7554C120.228 81.3628 120.649 79.255 121.492 77.4321C122.335 75.6092 123.537 74.2135 125.098 73.2451C126.67 72.2653 128.493 71.7754 130.567 71.7754C133.438 71.7754 135.751 72.5444 137.505 74.0825C139.26 75.6206 140.274 77.7796 140.547 80.5596H135.42C135.295 78.9531 134.845 77.791 134.07 77.0732C133.307 76.3441 132.139 75.9795 130.567 75.9795C128.858 75.9795 127.576 76.5947 126.722 77.8252C125.879 79.0443 125.446 80.9412 125.423 83.5161V85.396C125.423 88.0848 125.827 90.0501 126.636 91.292C127.457 92.5339 128.744 93.1548 130.499 93.1548C132.082 93.1548 133.261 92.7959 134.036 92.0781C134.822 91.349 135.272 90.2267 135.386 88.7114H140.513ZM156.783 90.4717C156.783 89.5033 156.441 88.7627 155.757 88.25C155.074 87.7259 153.843 87.179 152.066 86.6094C150.289 86.0283 148.882 85.4587 147.845 84.9004C145.019 83.3737 143.606 81.3172 143.606 78.731C143.606 77.3866 143.982 76.1903 144.734 75.1421C145.498 74.0825 146.586 73.2565 147.999 72.6641C149.423 72.0716 151.018 71.7754 152.784 71.7754C154.561 71.7754 156.145 72.1001 157.535 72.7495C158.925 73.3875 160.001 74.2933 160.765 75.4668C161.539 76.6403 161.927 77.9733 161.927 79.4658H156.8C156.8 78.3265 156.441 77.4435 155.723 76.8169C155.005 76.1789 153.997 75.8599 152.698 75.8599C151.445 75.8599 150.471 76.1276 149.776 76.6631C149.081 77.1872 148.733 77.8822 148.733 78.748C148.733 79.557 149.138 80.2349 149.947 80.7817C150.767 81.3286 151.969 81.8413 153.553 82.3198C156.469 83.1971 158.594 84.2852 159.927 85.584C161.26 86.8828 161.927 88.5007 161.927 90.4375C161.927 92.5908 161.112 94.2827 159.483 95.5132C157.854 96.7323 155.66 97.3418 152.903 97.3418C150.989 97.3418 149.246 96.9943 147.674 96.2993C146.102 95.5929 144.9 94.6302 144.068 93.4111C143.248 92.1921 142.837 90.7793 142.837 89.1729H147.981C147.981 91.9186 149.622 93.2915 152.903 93.2915C154.122 93.2915 155.074 93.0465 155.757 92.5566C156.441 92.0553 156.783 91.3604 156.783 90.4717ZM188.177 91.873H179.188L177.479 97H172.027L181.29 72.1172H186.041L195.354 97H189.903L188.177 91.873ZM180.572 87.7202H186.792L183.665 78.4062L180.572 87.7202ZM206.89 87.8911H202.806V97H197.679V72.1172H206.924C209.864 72.1172 212.131 72.7723 213.726 74.0825C215.321 75.3927 216.119 77.2441 216.119 79.6367C216.119 81.3343 215.748 82.7528 215.008 83.8921C214.279 85.02 213.168 85.9201 211.675 86.5923L217.059 96.7607V97H211.556L206.89 87.8911ZM202.806 83.7383H206.941C208.229 83.7383 209.226 83.4136 209.932 82.7642C210.639 82.1034 210.992 81.1976 210.992 80.0469C210.992 78.8734 210.656 77.9505 209.983 77.2783C209.323 76.6061 208.303 76.27 206.924 76.27H202.806V83.7383ZM240.472 85.1226C240.472 87.5721 240.039 89.7197 239.173 91.5654C238.307 93.4111 237.065 94.8353 235.447 95.8379C233.841 96.8405 231.995 97.3418 229.91 97.3418C227.848 97.3418 226.008 96.8462 224.39 95.855C222.772 94.8638 221.519 93.451 220.63 91.6167C219.742 89.771 219.292 87.6519 219.28 85.2593V84.0288C219.28 81.5793 219.719 79.4259 220.596 77.5688C221.485 75.7004 222.732 74.2705 224.339 73.2793C225.957 72.2767 227.802 71.7754 229.876 71.7754C231.95 71.7754 233.79 72.2767 235.396 73.2793C237.014 74.2705 238.261 75.7004 239.139 77.5688C240.027 79.4259 240.472 81.5736 240.472 84.0117V85.1226ZM235.276 83.9946C235.276 81.3856 234.809 79.4032 233.875 78.0474C232.941 76.6916 231.608 76.0137 229.876 76.0137C228.156 76.0137 226.828 76.6859 225.894 78.0303C224.96 79.3633 224.487 81.3229 224.476 83.9092V85.1226C224.476 87.6632 224.943 89.6343 225.877 91.0356C226.811 92.437 228.156 93.1377 229.91 93.1377C231.631 93.1377 232.952 92.4655 233.875 91.1211C234.798 89.7653 235.265 87.7943 235.276 85.208V83.9946ZM263.03 72.1172V88.5063C263.03 91.2293 262.176 93.3826 260.467 94.9663C258.769 96.55 256.445 97.3418 253.494 97.3418C250.589 97.3418 248.282 96.5728 246.573 95.0347C244.864 93.4966 243.992 91.3831 243.958 88.6943V72.1172H249.085V88.5405C249.085 90.1698 249.472 91.3604 250.247 92.1123C251.033 92.8529 252.116 93.2231 253.494 93.2231C256.377 93.2231 257.841 91.7078 257.886 88.6772V72.1172H263.03ZM287.469 97H282.342L272.361 80.6279V97H267.234V72.1172H272.361L282.359 88.5234V72.1172H287.469V97ZM291.946 97V72.1172H299.603C301.79 72.1172 303.744 72.6128 305.464 73.604C307.196 74.5838 308.546 75.9852 309.515 77.8081C310.483 79.6196 310.967 81.6818 310.967 83.9946V85.1396C310.967 87.4525 310.489 89.509 309.532 91.3091C308.586 93.1092 307.247 94.5049 305.516 95.4961C303.784 96.4873 301.83 96.9886 299.654 97H291.946ZM297.073 76.27V92.8813H299.551C301.556 92.8813 303.089 92.2262 304.148 90.916C305.208 89.6058 305.749 87.7316 305.772 85.2935V83.9775C305.772 81.4482 305.248 79.5342 304.2 78.2354C303.152 76.9251 301.619 76.27 299.603 76.27H297.073ZM337.474 91.873H328.484L326.775 97H321.324L330.586 72.1172H335.337L344.651 97H339.2L337.474 91.873ZM329.869 87.7202H336.089L332.962 78.4062L329.869 87.7202ZM92.9521 117.27H85.3301V138H80.2031V117.27H72.6836V113.117H92.9521V117.27ZM107.889 132.873H98.8994L97.1904 138H91.7388L101.001 113.117H105.752L115.066 138H109.615L107.889 132.873ZM100.284 128.72H106.504L103.377 119.406L100.284 128.72ZM117.391 138V113.117H126.106C129.126 113.117 131.416 113.698 132.977 114.86C134.537 116.011 135.318 117.703 135.318 119.936C135.318 121.155 135.005 122.232 134.378 123.166C133.751 124.089 132.88 124.767 131.763 125.2C133.039 125.519 134.042 126.162 134.771 127.131C135.512 128.099 135.882 129.284 135.882 130.686C135.882 133.078 135.118 134.89 133.592 136.12C132.065 137.351 129.889 137.977 127.063 138H117.391ZM122.518 127.165V133.881H126.91C128.117 133.881 129.057 133.597 129.729 133.027C130.413 132.446 130.755 131.648 130.755 130.634C130.755 128.356 129.576 127.199 127.217 127.165H122.518ZM122.518 123.542H126.312C128.898 123.496 130.191 122.465 130.191 120.449C130.191 119.321 129.861 118.512 129.2 118.022C128.55 117.521 127.519 117.27 126.106 117.27H122.518V123.542ZM144.871 133.881H155.757V138H139.744V113.117H144.871V133.881ZM173.685 127.216H163.841V133.881H175.394V138H158.714V113.117H175.359V117.27H163.841V123.2H173.685V127.216ZM179.358 144.238L176.778 142.888L177.393 141.777C178.156 140.387 178.549 139.003 178.572 137.624V133.796H182.742L182.725 137.214C182.714 138.479 182.395 139.755 181.768 141.042C181.141 142.329 180.338 143.395 179.358 144.238ZM79.6733 179H74.5464V154.117H79.6733V179ZM104.676 179H99.5488L89.5684 162.628V179H84.4414V154.117H89.5684L99.5659 170.523V154.117H104.676V179ZM127.371 158.27H119.749V179H114.622V158.27H107.103V154.117H127.371V158.27ZM145.281 168.216H135.438V174.881H146.99V179H130.311V154.117H146.956V158.27H135.438V164.2H145.281V168.216ZM159.209 169.891H155.125V179H149.998V154.117H159.244C162.183 154.117 164.45 154.772 166.045 156.083C167.64 157.393 168.438 159.244 168.438 161.637C168.438 163.334 168.068 164.753 167.327 165.892C166.598 167.02 165.487 167.92 163.995 168.592L169.378 178.761V179H163.875L159.209 169.891ZM155.125 165.738H159.261C160.548 165.738 161.545 165.414 162.251 164.764C162.958 164.103 163.311 163.198 163.311 162.047C163.311 160.873 162.975 159.951 162.303 159.278C161.642 158.606 160.622 158.27 159.244 158.27H155.125V165.738ZM186.399 173.873H177.41L175.701 179H170.25L179.512 154.117H184.263L193.577 179H188.125L186.399 173.873ZM178.794 169.72H185.015L181.888 160.406L178.794 169.72ZM215.059 170.711C214.865 173.389 213.874 175.497 212.085 177.035C210.308 178.573 207.961 179.342 205.044 179.342C201.854 179.342 199.342 178.271 197.508 176.129C195.685 173.976 194.773 171.025 194.773 167.276V165.755C194.773 163.363 195.195 161.255 196.038 159.432C196.881 157.609 198.083 156.214 199.644 155.245C201.216 154.265 203.039 153.775 205.113 153.775C207.984 153.775 210.297 154.544 212.051 156.083C213.806 157.621 214.82 159.78 215.093 162.56H209.966C209.841 160.953 209.391 159.791 208.616 159.073C207.853 158.344 206.685 157.979 205.113 157.979C203.404 157.979 202.122 158.595 201.268 159.825C200.424 161.044 199.992 162.941 199.969 165.516V167.396C199.969 170.085 200.373 172.05 201.182 173.292C202.002 174.534 203.29 175.155 205.044 175.155C206.628 175.155 207.807 174.796 208.582 174.078C209.368 173.349 209.818 172.227 209.932 170.711H215.059ZM236.644 158.27H229.021V179H223.895V158.27H216.375V154.117H236.644V158.27ZM245.035 179H239.908V154.117H245.035V179ZM270.037 179H264.91L254.93 162.628V179H249.803V154.117H254.93L264.927 170.523V154.117H270.037V179ZM294.202 175.855C293.279 176.961 291.975 177.821 290.289 178.436C288.602 179.04 286.734 179.342 284.683 179.342C282.53 179.342 280.639 178.875 279.009 177.94C277.391 176.995 276.138 175.628 275.25 173.839C274.372 172.05 273.922 169.948 273.899 167.533V165.841C273.899 163.357 274.315 161.209 275.147 159.398C275.99 157.575 277.198 156.185 278.77 155.228C280.354 154.26 282.205 153.775 284.324 153.775C287.275 153.775 289.582 154.482 291.246 155.895C292.909 157.296 293.895 159.341 294.202 162.03H289.212C288.984 160.606 288.477 159.563 287.691 158.902C286.916 158.242 285.845 157.911 284.478 157.911C282.735 157.911 281.408 158.566 280.496 159.876C279.585 161.187 279.123 163.135 279.112 165.721V167.311C279.112 169.92 279.607 171.891 280.599 173.224C281.59 174.557 283.042 175.223 284.957 175.223C286.882 175.223 288.255 174.813 289.075 173.993V169.703H284.41V165.926H294.202V175.855ZM93.6016 212.822L96.9512 195.117H102.061L96.541 220H91.3799L87.3296 203.354L83.2793 220H78.1182L72.5981 195.117H77.708L81.0747 212.788L85.1763 195.117H89.5171L93.6016 212.822ZM110.298 220H105.171V195.117H110.298V220ZM133.284 199.27H125.662V220H120.535V199.27H113.016V195.117H133.284V199.27ZM156.475 220H151.348V209.336H141.351V220H136.224V195.117H141.351V205.2H151.348V195.117H156.475V220ZM192.449 214.873H183.46L181.751 220H176.299L185.562 195.117H190.313L199.627 220H194.175L192.449 214.873ZM184.844 210.72H191.065L187.938 201.406L184.844 210.72ZM217.366 195.117L223.758 213.164L230.115 195.117H236.849V220H231.705V213.198L232.217 201.458L225.501 220H221.98L215.281 201.475L215.794 213.198V220H210.667V195.117H217.366ZM255.682 214.873H246.692L244.983 220H239.532L248.794 195.117H253.545L262.859 220H257.408L255.682 214.873ZM248.077 210.72H254.297L251.17 201.406L248.077 210.72ZM270.311 211.233V220H265.184V195.117H274.891C276.759 195.117 278.4 195.459 279.812 196.143C281.237 196.826 282.33 197.8 283.094 199.065C283.857 200.318 284.239 201.748 284.239 203.354C284.239 205.793 283.401 207.718 281.727 209.131C280.063 210.532 277.756 211.233 274.805 211.233H270.311ZM270.311 207.08H274.891C276.246 207.08 277.278 206.761 277.984 206.123C278.702 205.485 279.061 204.574 279.061 203.389C279.061 202.17 278.702 201.184 277.984 200.432C277.266 199.68 276.275 199.293 275.01 199.27H270.311V207.08Z" fill="white"/>
</g>
<path id="Line 1" d="M284.083 336.957C286.268 336.636 287.779 334.603 287.457 332.417L282.214 296.801C281.893 294.616 279.86 293.105 277.674 293.426C275.489 293.748 273.978 295.781 274.3 297.966L278.96 329.625L247.301 334.286C245.116 334.607 243.605 336.64 243.926 338.826C244.248 341.011 246.281 342.522 248.466 342.2L284.083 336.957ZM168.114 252.21L281.114 336.21L285.886 329.79L172.886 245.79L168.114 252.21Z" fill="black"/>
</g>
<g id="example">
<path id="Line 1_2" d="M1311.65 910.119C1309.5 909.584 1307.33 910.889 1306.8 913.032L1298.09 947.963C1297.55 950.106 1298.86 952.277 1301 952.812C1303.14 953.346 1305.31 952.042 1305.85 949.898L1313.59 918.849L1344.64 926.591C1346.78 927.126 1348.96 925.821 1349.49 923.678C1350.02 921.534 1348.72 919.363 1346.58 918.829L1311.65 910.119ZM1358.75 986.243L1314.11 911.94L1307.25 916.06L1351.89 990.363L1358.75 986.243Z" fill="black"/>
<g id="Frame 3_2">
<rect width="210" height="81" transform="translate(1228 988.303)" fill="black"/>
<path id="Shadows" d="M1263.12 1033.78C1263.12 1032.81 1262.78 1032.07 1262.1 1031.55C1261.42 1031.03 1260.19 1030.48 1258.41 1029.91C1256.63 1029.33 1255.22 1028.76 1254.19 1028.2C1251.36 1026.68 1249.95 1024.62 1249.95 1022.03C1249.95 1020.69 1250.32 1019.49 1251.08 1018.45C1251.84 1017.39 1252.93 1016.56 1254.34 1015.97C1255.76 1015.37 1257.36 1015.08 1259.13 1015.08C1260.9 1015.08 1262.49 1015.4 1263.88 1016.05C1265.27 1016.69 1266.34 1017.6 1267.11 1018.77C1267.88 1019.94 1268.27 1021.28 1268.27 1022.77H1263.14C1263.14 1021.63 1262.78 1020.75 1262.06 1020.12C1261.35 1019.48 1260.34 1019.16 1259.04 1019.16C1257.79 1019.16 1256.81 1019.43 1256.12 1019.97C1255.42 1020.49 1255.08 1021.19 1255.08 1022.05C1255.08 1022.86 1255.48 1023.54 1256.29 1024.09C1257.11 1024.63 1258.31 1025.14 1259.89 1025.62C1262.81 1026.5 1264.94 1027.59 1266.27 1028.89C1267.6 1030.19 1268.27 1031.8 1268.27 1033.74C1268.27 1035.89 1267.45 1037.59 1265.82 1038.82C1264.2 1040.04 1262 1040.65 1259.25 1040.65C1257.33 1040.65 1255.59 1040.3 1254.02 1039.6C1252.44 1038.9 1251.24 1037.93 1250.41 1036.71C1249.59 1035.5 1249.18 1034.08 1249.18 1032.48H1254.32C1254.32 1035.22 1255.96 1036.59 1259.25 1036.59C1260.46 1036.59 1261.42 1036.35 1262.1 1035.86C1262.78 1035.36 1263.12 1034.66 1263.12 1033.78ZM1292.01 1040.3H1286.88V1029.64H1276.88V1040.3H1271.75V1015.42H1276.88V1025.5H1286.88V1015.42H1292.01V1040.3ZM1310.86 1035.18H1301.87L1300.16 1040.3H1294.71L1303.97 1015.42H1308.72L1318.03 1040.3H1312.58L1310.86 1035.18ZM1303.25 1031.02H1309.47L1306.34 1021.71L1303.25 1031.02ZM1320.36 1040.3V1015.42H1328.01C1330.2 1015.42 1332.16 1015.92 1333.88 1016.91C1335.61 1017.89 1336.96 1019.29 1337.93 1021.11C1338.9 1022.92 1339.38 1024.99 1339.38 1027.3V1028.44C1339.38 1030.76 1338.9 1032.81 1337.94 1034.61C1337 1036.41 1335.66 1037.81 1333.93 1038.8C1332.2 1039.79 1330.24 1040.29 1328.07 1040.3H1320.36ZM1325.49 1019.57V1036.18H1327.96C1329.97 1036.18 1331.5 1035.53 1332.56 1034.22C1333.62 1032.91 1334.16 1031.03 1334.18 1028.6V1027.28C1334.18 1024.75 1333.66 1022.84 1332.61 1021.54C1331.56 1020.23 1330.03 1019.57 1328.01 1019.57H1325.49ZM1363.56 1028.43C1363.56 1030.88 1363.13 1033.02 1362.26 1034.87C1361.4 1036.71 1360.15 1038.14 1358.54 1039.14C1356.93 1040.14 1355.08 1040.65 1353 1040.65C1350.94 1040.65 1349.1 1040.15 1347.48 1039.16C1345.86 1038.17 1344.61 1036.75 1343.72 1034.92C1342.83 1033.07 1342.38 1030.96 1342.37 1028.56V1027.33C1342.37 1024.88 1342.81 1022.73 1343.69 1020.87C1344.57 1019 1345.82 1017.57 1347.43 1016.58C1349.05 1015.58 1350.89 1015.08 1352.97 1015.08C1355.04 1015.08 1356.88 1015.58 1358.49 1016.58C1360.1 1017.57 1361.35 1019 1362.23 1020.87C1363.12 1022.73 1363.56 1024.88 1363.56 1027.32V1028.43ZM1358.37 1027.3C1358.37 1024.69 1357.9 1022.71 1356.96 1021.35C1356.03 1019.99 1354.7 1019.32 1352.97 1019.32C1351.25 1019.32 1349.92 1019.99 1348.98 1021.33C1348.05 1022.67 1347.58 1024.63 1347.57 1027.21V1028.43C1347.57 1030.97 1348.03 1032.94 1348.97 1034.34C1349.9 1035.74 1351.25 1036.44 1353 1036.44C1354.72 1036.44 1356.04 1035.77 1356.96 1034.42C1357.89 1033.07 1358.35 1031.1 1358.37 1028.51V1027.3ZM1386.67 1033.13L1390.02 1015.42H1395.13L1389.61 1040.3H1384.45L1380.4 1023.66L1376.34 1040.3H1371.18L1365.66 1015.42H1370.77L1374.14 1033.09L1378.24 1015.42H1382.58L1386.67 1033.13ZM1410.81 1033.78C1410.81 1032.81 1410.47 1032.07 1409.79 1031.55C1409.11 1031.03 1407.88 1030.48 1406.1 1029.91C1404.32 1029.33 1402.91 1028.76 1401.88 1028.2C1399.05 1026.68 1397.64 1024.62 1397.64 1022.03C1397.64 1020.69 1398.01 1019.49 1398.77 1018.45C1399.53 1017.39 1400.62 1016.56 1402.03 1015.97C1403.45 1015.37 1405.05 1015.08 1406.82 1015.08C1408.59 1015.08 1410.18 1015.4 1411.57 1016.05C1412.96 1016.69 1414.03 1017.6 1414.8 1018.77C1415.57 1019.94 1415.96 1021.28 1415.96 1022.77H1410.83C1410.83 1021.63 1410.47 1020.75 1409.76 1020.12C1409.04 1019.48 1408.03 1019.16 1406.73 1019.16C1405.48 1019.16 1404.5 1019.43 1403.81 1019.97C1403.11 1020.49 1402.77 1021.19 1402.77 1022.05C1402.77 1022.86 1403.17 1023.54 1403.98 1024.09C1404.8 1024.63 1406 1025.14 1407.58 1025.62C1410.5 1026.5 1412.63 1027.59 1413.96 1028.89C1415.29 1030.19 1415.96 1031.8 1415.96 1033.74C1415.96 1035.89 1415.14 1037.59 1413.52 1038.82C1411.89 1040.04 1409.69 1040.65 1406.94 1040.65C1405.02 1040.65 1403.28 1040.3 1401.71 1039.6C1400.13 1038.9 1398.93 1037.93 1398.1 1036.71C1397.28 1035.5 1396.87 1034.08 1396.87 1032.48H1402.01C1402.01 1035.22 1403.65 1036.59 1406.94 1036.59C1408.15 1036.59 1409.11 1036.35 1409.79 1035.86C1410.47 1035.36 1410.81 1034.66 1410.81 1033.78Z" fill="white"/>
</g>
</g>
</g>
<defs>
<clipPath id="clip0_4:8">
<rect width="1709" height="1187" fill="white"/>
</clipPath>
</defs>
</svg>
